G04 ================== begin FILE IDENTIFICATION RECORD ==================*
G04 Layout Name:  F:/hash_board-20131009/board/hash_BRD-20131009.BRD*
G04 Film Name:    PASTMASK_TOP*
G04 File Format:  Gerber RS274X*
G04 File Origin:  Cadence Allegro 16.6-S014*
G04 Origin Date:  Thu Oct 10 07:58:56 2013*
G04 *
G04 Layer:  VIA CLASS/PASTEMASK_TOP*
G04 Layer:  PIN/PASTEMASK_TOP*
G04 Layer:  MANUFACTURING/PHOTOPLOT_OUTLINE*
G04 Layer:  DRAWING FORMAT/OUTLINE*
G04 Layer:  DRAWING FORMAT/TITLE_BLOCK*
G04 Layer:  DRAWING FORMAT/TITLE_DATA*
G04 Layer:  BOARD GEOMETRY/OUTLINE*
G04 *
G04 Offset:    (0.00 0.00)*
G04 Mirror:    No*
G04 Mode:      Positive*
G04 Rotation:  0*
G04 FullContactRelief:  No*
G04 UndefLineWidth:     0.00*
G04 ================== end FILE IDENTIFICATION RECORD ====================*
%FSLAX55Y55*MOIN*%
%IR0*IPPOS*OFA0.00000B0.00000*MIA0B0*SFA1.00000B1.00000*%
%ADD16R,.04799X.03598*%
%ADD18R,.055X.12*%
%ADD11C,.04*%
%ADD17R,.03X.03*%
%ADD25R,.06299X.14764*%
%ADD28R,.01X.06*%
%ADD22R,.06X.01*%
%ADD30R,.14X.18*%
%ADD12R,.05X.05*%
%ADD32R,.04X.01402*%
%ADD23R,.05X.05*%
%ADD27R,.06X.015*%
%ADD21R,.015X.06*%
%ADD13R,.032X.035*%
%ADD10R,.052X.042*%
%ADD31R,.035X.05*%
%ADD15R,.035X.032*%
%ADD24R,.07X.02402*%
%ADD14R,.01402X.055*%
%ADD29R,.14961X.11024*%
%ADD19R,.12402X.13386*%
%ADD26R,.0551X.0709*%
%ADD20R,.0709X.0551*%
%ADD35R,.23622X.23622*%
%ADD33O,.01063X.06496*%
%ADD34O,.06496X.01063*%
%ADD36R,.0984X.0787*%
%ADD37C,.015*%
%ADD38C,.025*%
%ADD39C,.001*%
%ADD40C,.006*%
G75*
%LPD*%
G75*
G54D10*
X-464500Y-71843D03*
Y-64757D03*
X-464400Y-48557D03*
Y-55643D03*
X-464600Y-31157D03*
Y-38243D03*
G54D20*
X-336170Y-445774D03*
Y-433174D03*
Y-356290D03*
Y-343690D03*
Y-279774D03*
Y-267174D03*
Y-191574D03*
Y-178974D03*
X-163180Y-315410D03*
Y-302810D03*
Y-145710D03*
Y-133110D03*
X-138270Y-431790D03*
Y-419190D03*
X-139470Y-348190D03*
Y-335590D03*
Y-167790D03*
Y-180390D03*
G54D11*
X-443294Y-429074D03*
X-394094Y63926D03*
X-197994Y68426D03*
X343206Y-429074D03*
Y63926D03*
X856006Y-429074D03*
Y63926D03*
G54D21*
X-333380Y9110D03*
X-331410D03*
Y42110D03*
X-333380D03*
X-329440Y9110D03*
X-327470D03*
X-325500D03*
X-323530D03*
X-321570D03*
X-319600D03*
X-317630D03*
Y42110D03*
X-319600D03*
X-321570D03*
X-323530D03*
X-325500D03*
X-327470D03*
X-329440D03*
X-315660Y9110D03*
X-313690D03*
X-311720D03*
Y42110D03*
X-313690D03*
X-315660D03*
G54D12*
X-429700Y-455500D03*
Y-447300D03*
Y-437100D03*
Y-428900D03*
X-429200Y-353000D03*
Y-344800D03*
Y-334200D03*
Y-326000D03*
Y-272300D03*
Y-253500D03*
Y-264100D03*
Y-245300D03*
Y-184700D03*
Y-176500D03*
Y-158200D03*
Y-166400D03*
X-345600Y-441984D03*
Y-433784D03*
Y-355400D03*
Y-347200D03*
Y-275984D03*
Y-267784D03*
Y-187784D03*
Y-179584D03*
G54D30*
X-179100Y-450500D03*
Y-412000D03*
Y-375100D03*
Y-336600D03*
Y-204400D03*
Y-165900D03*
G54D40*
G01X-471200Y75800D02*
Y85200D01*
X906700D01*
Y-473600D01*
X-471200D01*
Y85300D01*
X-453700D01*
G01X-471284Y-111524D02*
Y85296D01*
G01X1241765Y-1042196D02*
X1242455Y-1043293D01*
X1243375Y-1043919D01*
X1244410Y-1044076D01*
X1245330Y-1043919D01*
X1246250Y-1043136D01*
X1246825Y-1042196D01*
X1246940Y-1041256D01*
X1246710Y-1040160D01*
X1245905Y-1039376D01*
X1245100Y-1039063D01*
X1244065D01*
G01X1245100D02*
X1245790Y-1038593D01*
X1246365Y-1037810D01*
X1246595Y-1036869D01*
X1246365Y-1035929D01*
X1245790Y-1035146D01*
X1244755Y-1034676D01*
X1243720Y-1034833D01*
X1242685Y-1035459D01*
G01X1253495Y-1044389D02*
X1253265Y-1044233D01*
Y-1043919D01*
X1253495Y-1043763D01*
X1253725Y-1043919D01*
Y-1044233D01*
X1253495Y-1044389D01*
G01X1269365Y-1044076D02*
Y-1034676D01*
X1271665D01*
X1272585Y-1035146D01*
X1273275Y-1035773D01*
X1273850Y-1036713D01*
X1274310Y-1037810D01*
X1274425Y-1039376D01*
X1274310Y-1040943D01*
X1273850Y-1042039D01*
X1273275Y-1042980D01*
X1272585Y-1043606D01*
X1271665Y-1044076D01*
X1269365D01*
G01X1281095D02*
X1280175Y-1043919D01*
X1279370Y-1043293D01*
X1278680Y-1042353D01*
X1278220Y-1041256D01*
X1277990Y-1040003D01*
Y-1038749D01*
X1278220Y-1037496D01*
X1278680Y-1036399D01*
X1279370Y-1035459D01*
X1280175Y-1034833D01*
X1281095Y-1034676D01*
X1282015Y-1034833D01*
X1282820Y-1035459D01*
X1283510Y-1036399D01*
X1283970Y-1037496D01*
X1284200Y-1038749D01*
Y-1040003D01*
X1283970Y-1041256D01*
X1283510Y-1042353D01*
X1282820Y-1043293D01*
X1282015Y-1043919D01*
X1281095Y-1044076D01*
G01X1296850D02*
Y-1034676D01*
X1302140Y-1044076D01*
Y-1034676D01*
G01X1308695Y-1044076D02*
X1307775Y-1043919D01*
X1306970Y-1043293D01*
X1306280Y-1042353D01*
X1305820Y-1041256D01*
X1305590Y-1040003D01*
Y-1038749D01*
X1305820Y-1037496D01*
X1306280Y-1036399D01*
X1306970Y-1035459D01*
X1307775Y-1034833D01*
X1308695Y-1034676D01*
X1309615Y-1034833D01*
X1310420Y-1035459D01*
X1311110Y-1036399D01*
X1311570Y-1037496D01*
X1311800Y-1038749D01*
Y-1040003D01*
X1311570Y-1041256D01*
X1311110Y-1042353D01*
X1310420Y-1043293D01*
X1309615Y-1043919D01*
X1308695Y-1044076D01*
G01X1317895Y-1034676D02*
Y-1044076D01*
G01X1315250Y-1034676D02*
X1320540D01*
G01X1333880Y-1042823D02*
X1334800Y-1043606D01*
X1335835Y-1044076D01*
X1336755D01*
X1337675Y-1043606D01*
X1338365Y-1042823D01*
X1338710Y-1041726D01*
X1338480Y-1040629D01*
X1337905Y-1039689D01*
X1336870Y-1039063D01*
X1335490Y-1038749D01*
X1334685Y-1038123D01*
X1334340Y-1037026D01*
X1334570Y-1035929D01*
X1335145Y-1035146D01*
X1335950Y-1034676D01*
X1336755D01*
X1337560Y-1034989D01*
X1338250Y-1035773D01*
G01X1348025Y-1035459D02*
X1347335Y-1034989D01*
X1346530Y-1034676D01*
X1345610D01*
X1344575Y-1035146D01*
X1343770Y-1035929D01*
X1343195Y-1036869D01*
X1342735Y-1038436D01*
X1342620Y-1039846D01*
X1342850Y-1041256D01*
X1343195Y-1042196D01*
X1343885Y-1043136D01*
X1344690Y-1043763D01*
X1345495Y-1044076D01*
X1346300D01*
X1347105Y-1043763D01*
X1347795Y-1043293D01*
X1348370Y-1042666D01*
G01X1351820Y-1044076D02*
X1354695Y-1034676D01*
X1357570Y-1044076D01*
G01X1356535Y-1040786D02*
X1352855D01*
G01X1361595Y-1034676D02*
Y-1044076D01*
X1366195D01*
G01X1375395D02*
X1370795D01*
Y-1034676D01*
X1375395D01*
G01X1373555Y-1039219D02*
X1370795D01*
G01X1388965Y-1044076D02*
Y-1034676D01*
X1391265D01*
X1392185Y-1035146D01*
X1392875Y-1035773D01*
X1393450Y-1036713D01*
X1393910Y-1037810D01*
X1394025Y-1039376D01*
X1393910Y-1040943D01*
X1393450Y-1042039D01*
X1392875Y-1042980D01*
X1392185Y-1043606D01*
X1391265Y-1044076D01*
X1388965D01*
G01X1398395D02*
Y-1034676D01*
X1401270D01*
X1402190Y-1035146D01*
X1402765Y-1035773D01*
X1402995Y-1037026D01*
X1402765Y-1038279D01*
X1402075Y-1039063D01*
X1401270Y-1039533D01*
X1398395D01*
G01X1401270D02*
X1402995Y-1044076D01*
G01X1407020D02*
X1409895Y-1034676D01*
X1412770Y-1044076D01*
G01X1411735Y-1040786D02*
X1408055D01*
G01X1415645Y-1034676D02*
X1417255Y-1044076D01*
X1419095Y-1034676D01*
X1420935Y-1044076D01*
X1422545Y-1034676D01*
G01X1426915D02*
X1429675D01*
G01X1428295D02*
Y-1044076D01*
G01X1426915D02*
X1429675D01*
G01X1434850D02*
Y-1034676D01*
X1440140Y-1044076D01*
Y-1034676D01*
G01X1447385Y-1039376D02*
X1449685D01*
Y-1042196D01*
X1448995Y-1043136D01*
X1448190Y-1043763D01*
X1447040Y-1044076D01*
X1445890Y-1043763D01*
X1445085Y-1043136D01*
X1444395Y-1042196D01*
X1443935Y-1041099D01*
X1443705Y-1039846D01*
Y-1038749D01*
X1443935Y-1037810D01*
X1444395Y-1036713D01*
X1445085Y-1035773D01*
X1445775Y-1035146D01*
X1446695Y-1034676D01*
X1447500D01*
X1448420Y-1034989D01*
X1449110Y-1035616D01*
G01X1242110Y-1006243D02*
X1242800Y-1005303D01*
X1243605Y-1004833D01*
X1244525Y-1004676D01*
X1245675Y-1004989D01*
X1246480Y-1005773D01*
X1246710Y-1006713D01*
X1246595Y-1007653D01*
X1246135Y-1008436D01*
X1243835Y-1010003D01*
X1242800Y-1011099D01*
X1242110Y-1012666D01*
X1241880Y-1014076D01*
X1246710D01*
G01X1253495Y-1014389D02*
X1253265Y-1014233D01*
Y-1013919D01*
X1253495Y-1013763D01*
X1253725Y-1013919D01*
Y-1014233D01*
X1253495Y-1014389D01*
G01X1272815Y-1009063D02*
X1273275Y-1008593D01*
X1273620Y-1007810D01*
X1273850Y-1006713D01*
X1273620Y-1005773D01*
X1273160Y-1005146D01*
X1272355Y-1004676D01*
X1269250D01*
Y-1014076D01*
X1273045D01*
X1273850Y-1013449D01*
X1274310Y-1012509D01*
X1274540Y-1011413D01*
X1274310Y-1010316D01*
X1273620Y-1009376D01*
X1272815Y-1009063D01*
X1269250D01*
G01X1278795Y-1014076D02*
Y-1004676D01*
X1281670D01*
X1282590Y-1005146D01*
X1283165Y-1005773D01*
X1283395Y-1007026D01*
X1283165Y-1008279D01*
X1282475Y-1009063D01*
X1281670Y-1009533D01*
X1278795D01*
G01X1281670D02*
X1283395Y-1014076D01*
G01X1292595D02*
X1287995D01*
Y-1004676D01*
X1292595D01*
G01X1290755Y-1009219D02*
X1287995D01*
G01X1296620Y-1014076D02*
X1299495Y-1004676D01*
X1302370Y-1014076D01*
G01X1301335Y-1010786D02*
X1297655D01*
G01X1306165Y-1014076D02*
Y-1004676D01*
G01X1310535D02*
X1306165Y-1010473D01*
G01X1311225Y-1014076D02*
X1308120Y-1007810D01*
G01X1324220Y-1014076D02*
X1327095Y-1004676D01*
X1329970Y-1014076D01*
G01X1328935Y-1010786D02*
X1325255D01*
G01X1333995Y-1004676D02*
Y-1014076D01*
X1338595D01*
G01X1343195Y-1004676D02*
Y-1014076D01*
X1347795D01*
G01X1361480Y-1012823D02*
X1362400Y-1013606D01*
X1363435Y-1014076D01*
X1364355D01*
X1365275Y-1013606D01*
X1365965Y-1012823D01*
X1366310Y-1011726D01*
X1366080Y-1010629D01*
X1365505Y-1009689D01*
X1364470Y-1009063D01*
X1363090Y-1008749D01*
X1362285Y-1008123D01*
X1361940Y-1007026D01*
X1362170Y-1005929D01*
X1362745Y-1005146D01*
X1363550Y-1004676D01*
X1364355D01*
X1365160Y-1004989D01*
X1365850Y-1005773D01*
G01X1370680Y-1014076D02*
Y-1004676D01*
G01X1375510D02*
Y-1014076D01*
G01Y-1009376D02*
X1370680D01*
G01X1379420Y-1014076D02*
X1382295Y-1004676D01*
X1385170Y-1014076D01*
G01X1384135Y-1010786D02*
X1380455D01*
G01X1389195Y-1014076D02*
Y-1004676D01*
X1392070D01*
X1392990Y-1005146D01*
X1393565Y-1005773D01*
X1393795Y-1007026D01*
X1393565Y-1008279D01*
X1392875Y-1009063D01*
X1392070Y-1009533D01*
X1389195D01*
G01X1392070D02*
X1393795Y-1014076D01*
G01X1398395D02*
Y-1004676D01*
X1401155D01*
X1402075Y-1005146D01*
X1402765Y-1006243D01*
X1402995Y-1007496D01*
X1402765Y-1008749D01*
X1402190Y-1009689D01*
X1401155Y-1010160D01*
X1398395D01*
G01X1421395Y-1014076D02*
X1416795D01*
Y-1004676D01*
X1421395D01*
G01X1419555Y-1009219D02*
X1416795D01*
G01X1425765Y-1014076D02*
Y-1004676D01*
X1428065D01*
X1428985Y-1005146D01*
X1429675Y-1005773D01*
X1430250Y-1006713D01*
X1430710Y-1007810D01*
X1430825Y-1009376D01*
X1430710Y-1010943D01*
X1430250Y-1012039D01*
X1429675Y-1012980D01*
X1428985Y-1013606D01*
X1428065Y-1014076D01*
X1425765D01*
G01X1438185Y-1009376D02*
X1440485D01*
Y-1012196D01*
X1439795Y-1013136D01*
X1438990Y-1013763D01*
X1437840Y-1014076D01*
X1436690Y-1013763D01*
X1435885Y-1013136D01*
X1435195Y-1012196D01*
X1434735Y-1011099D01*
X1434505Y-1009846D01*
Y-1008749D01*
X1434735Y-1007810D01*
X1435195Y-1006713D01*
X1435885Y-1005773D01*
X1436575Y-1005146D01*
X1437495Y-1004676D01*
X1438300D01*
X1439220Y-1004989D01*
X1439910Y-1005616D01*
G01X1448995Y-1014076D02*
X1444395D01*
Y-1004676D01*
X1448995D01*
G01X1447155Y-1009219D02*
X1444395D01*
G01X1453480Y-1012823D02*
X1454400Y-1013606D01*
X1455435Y-1014076D01*
X1456355D01*
X1457275Y-1013606D01*
X1457965Y-1012823D01*
X1458310Y-1011726D01*
X1458080Y-1010629D01*
X1457505Y-1009689D01*
X1456470Y-1009063D01*
X1455090Y-1008749D01*
X1454285Y-1008123D01*
X1453940Y-1007026D01*
X1454170Y-1005929D01*
X1454745Y-1005146D01*
X1455550Y-1004676D01*
X1456355D01*
X1457160Y-1004989D01*
X1457850Y-1005773D01*
G01X1244295Y-984076D02*
Y-974676D01*
X1242915Y-976556D01*
G01Y-984076D02*
X1245675D01*
G01X1253495Y-984389D02*
X1253265Y-984233D01*
Y-983919D01*
X1253495Y-983763D01*
X1253725Y-983919D01*
Y-984233D01*
X1253495Y-984389D01*
G01X1269365Y-984076D02*
Y-974676D01*
X1271665D01*
X1272585Y-975146D01*
X1273275Y-975773D01*
X1273850Y-976713D01*
X1274310Y-977810D01*
X1274425Y-979376D01*
X1274310Y-980943D01*
X1273850Y-982039D01*
X1273275Y-982980D01*
X1272585Y-983606D01*
X1271665Y-984076D01*
X1269365D01*
G01X1279715Y-974676D02*
X1282475D01*
G01X1281095D02*
Y-984076D01*
G01X1279715D02*
X1282475D01*
G01X1287305D02*
Y-974676D01*
X1290295Y-982509D01*
X1293285Y-974676D01*
Y-984076D01*
G01X1301795D02*
X1297195D01*
Y-974676D01*
X1301795D01*
G01X1299955Y-979219D02*
X1297195D01*
G01X1306050Y-984076D02*
Y-974676D01*
X1311340Y-984076D01*
Y-974676D01*
G01X1315480Y-982823D02*
X1316400Y-983606D01*
X1317435Y-984076D01*
X1318355D01*
X1319275Y-983606D01*
X1319965Y-982823D01*
X1320310Y-981726D01*
X1320080Y-980629D01*
X1319505Y-979689D01*
X1318470Y-979063D01*
X1317090Y-978749D01*
X1316285Y-978123D01*
X1315940Y-977026D01*
X1316170Y-975929D01*
X1316745Y-975146D01*
X1317550Y-974676D01*
X1318355D01*
X1319160Y-974989D01*
X1319850Y-975773D01*
G01X1325715Y-974676D02*
X1328475D01*
G01X1327095D02*
Y-984076D01*
G01X1325715D02*
X1328475D01*
G01X1336295D02*
X1335375Y-983919D01*
X1334570Y-983293D01*
X1333880Y-982353D01*
X1333420Y-981256D01*
X1333190Y-980003D01*
Y-978749D01*
X1333420Y-977496D01*
X1333880Y-976399D01*
X1334570Y-975459D01*
X1335375Y-974833D01*
X1336295Y-974676D01*
X1337215Y-974833D01*
X1338020Y-975459D01*
X1338710Y-976399D01*
X1339170Y-977496D01*
X1339400Y-978749D01*
Y-980003D01*
X1339170Y-981256D01*
X1338710Y-982353D01*
X1338020Y-983293D01*
X1337215Y-983919D01*
X1336295Y-984076D01*
G01X1342850D02*
Y-974676D01*
X1348140Y-984076D01*
Y-974676D01*
G01X1352280Y-982823D02*
X1353200Y-983606D01*
X1354235Y-984076D01*
X1355155D01*
X1356075Y-983606D01*
X1356765Y-982823D01*
X1357110Y-981726D01*
X1356880Y-980629D01*
X1356305Y-979689D01*
X1355270Y-979063D01*
X1353890Y-978749D01*
X1353085Y-978123D01*
X1352740Y-977026D01*
X1352970Y-975929D01*
X1353545Y-975146D01*
X1354350Y-974676D01*
X1355155D01*
X1355960Y-974989D01*
X1356650Y-975773D01*
G01X1370220Y-984076D02*
X1373095Y-974676D01*
X1375970Y-984076D01*
G01X1374935Y-980786D02*
X1371255D01*
G01X1379995Y-984076D02*
Y-974676D01*
X1382870D01*
X1383790Y-975146D01*
X1384365Y-975773D01*
X1384595Y-977026D01*
X1384365Y-978279D01*
X1383675Y-979063D01*
X1382870Y-979533D01*
X1379995D01*
G01X1382870D02*
X1384595Y-984076D01*
G01X1393795D02*
X1389195D01*
Y-974676D01*
X1393795D01*
G01X1391955Y-979219D02*
X1389195D01*
G01X1408515Y-974676D02*
X1411275D01*
G01X1409895D02*
Y-984076D01*
G01X1408515D02*
X1411275D01*
G01X1416450D02*
Y-974676D01*
X1421740Y-984076D01*
Y-974676D01*
G01X1436115D02*
X1438875D01*
G01X1437495D02*
Y-984076D01*
G01X1436115D02*
X1438875D01*
G01X1444050D02*
Y-974676D01*
X1449340Y-984076D01*
Y-974676D01*
G01X1458425Y-975459D02*
X1457735Y-974989D01*
X1456930Y-974676D01*
X1456010D01*
X1454975Y-975146D01*
X1454170Y-975929D01*
X1453595Y-976869D01*
X1453135Y-978436D01*
X1453020Y-979846D01*
X1453250Y-981256D01*
X1453595Y-982196D01*
X1454285Y-983136D01*
X1455090Y-983763D01*
X1455895Y-984076D01*
X1456700D01*
X1457505Y-983763D01*
X1458195Y-983293D01*
X1458770Y-982666D01*
G01X1462680Y-984076D02*
Y-974676D01*
G01X1467510D02*
Y-984076D01*
G01Y-979376D02*
X1462680D01*
G01X1476595Y-984076D02*
X1471995D01*
Y-974676D01*
X1476595D01*
G01X1474755Y-979219D02*
X1471995D01*
G01X1481080Y-982823D02*
X1482000Y-983606D01*
X1483035Y-984076D01*
X1483955D01*
X1484875Y-983606D01*
X1485565Y-982823D01*
X1485910Y-981726D01*
X1485680Y-980629D01*
X1485105Y-979689D01*
X1484070Y-979063D01*
X1482690Y-978749D01*
X1481885Y-978123D01*
X1481540Y-977026D01*
X1481770Y-975929D01*
X1482345Y-975146D01*
X1483150Y-974676D01*
X1483955D01*
X1484760Y-974989D01*
X1485450Y-975773D01*
G01X1241765Y-944676D02*
Y-951413D01*
X1242225Y-952823D01*
X1243145Y-953763D01*
X1244295Y-954076D01*
X1245445Y-953763D01*
X1246365Y-952823D01*
X1246825Y-951413D01*
Y-944676D01*
G01X1250850Y-954076D02*
Y-944676D01*
X1256140Y-954076D01*
Y-944676D01*
G01X1260395D02*
Y-954076D01*
X1264995D01*
G01X1274195D02*
X1269595D01*
Y-944676D01*
X1274195D01*
G01X1272355Y-949219D02*
X1269595D01*
G01X1278680Y-952823D02*
X1279600Y-953606D01*
X1280635Y-954076D01*
X1281555D01*
X1282475Y-953606D01*
X1283165Y-952823D01*
X1283510Y-951726D01*
X1283280Y-950629D01*
X1282705Y-949689D01*
X1281670Y-949063D01*
X1280290Y-948749D01*
X1279485Y-948123D01*
X1279140Y-947026D01*
X1279370Y-945929D01*
X1279945Y-945146D01*
X1280750Y-944676D01*
X1281555D01*
X1282360Y-944989D01*
X1283050Y-945773D01*
G01X1287880Y-952823D02*
X1288800Y-953606D01*
X1289835Y-954076D01*
X1290755D01*
X1291675Y-953606D01*
X1292365Y-952823D01*
X1292710Y-951726D01*
X1292480Y-950629D01*
X1291905Y-949689D01*
X1290870Y-949063D01*
X1289490Y-948749D01*
X1288685Y-948123D01*
X1288340Y-947026D01*
X1288570Y-945929D01*
X1289145Y-945146D01*
X1289950Y-944676D01*
X1290755D01*
X1291560Y-944989D01*
X1292250Y-945773D01*
G01X1308695Y-954076D02*
X1307775Y-953919D01*
X1306970Y-953293D01*
X1306280Y-952353D01*
X1305820Y-951256D01*
X1305590Y-950003D01*
Y-948749D01*
X1305820Y-947496D01*
X1306280Y-946399D01*
X1306970Y-945459D01*
X1307775Y-944833D01*
X1308695Y-944676D01*
X1309615Y-944833D01*
X1310420Y-945459D01*
X1311110Y-946399D01*
X1311570Y-947496D01*
X1311800Y-948749D01*
Y-950003D01*
X1311570Y-951256D01*
X1311110Y-952353D01*
X1310420Y-953293D01*
X1309615Y-953919D01*
X1308695Y-954076D01*
G01X1317895Y-944676D02*
Y-954076D01*
G01X1315250Y-944676D02*
X1320540D01*
G01X1324680Y-954076D02*
Y-944676D01*
G01X1329510D02*
Y-954076D01*
G01Y-949376D02*
X1324680D01*
G01X1338595Y-954076D02*
X1333995D01*
Y-944676D01*
X1338595D01*
G01X1336755Y-949219D02*
X1333995D01*
G01X1343195Y-954076D02*
Y-944676D01*
X1346070D01*
X1346990Y-945146D01*
X1347565Y-945773D01*
X1347795Y-947026D01*
X1347565Y-948279D01*
X1346875Y-949063D01*
X1346070Y-949533D01*
X1343195D01*
G01X1346070D02*
X1347795Y-954076D01*
G01X1351245Y-944676D02*
X1352855Y-954076D01*
X1354695Y-944676D01*
X1356535Y-954076D01*
X1358145Y-944676D01*
G01X1362515D02*
X1365275D01*
G01X1363895D02*
Y-954076D01*
G01X1362515D02*
X1365275D01*
G01X1370680Y-952823D02*
X1371600Y-953606D01*
X1372635Y-954076D01*
X1373555D01*
X1374475Y-953606D01*
X1375165Y-952823D01*
X1375510Y-951726D01*
X1375280Y-950629D01*
X1374705Y-949689D01*
X1373670Y-949063D01*
X1372290Y-948749D01*
X1371485Y-948123D01*
X1371140Y-947026D01*
X1371370Y-945929D01*
X1371945Y-945146D01*
X1372750Y-944676D01*
X1373555D01*
X1374360Y-944989D01*
X1375050Y-945773D01*
G01X1384595Y-954076D02*
X1379995D01*
Y-944676D01*
X1384595D01*
G01X1382755Y-949219D02*
X1379995D01*
G01X1398280Y-952823D02*
X1399200Y-953606D01*
X1400235Y-954076D01*
X1401155D01*
X1402075Y-953606D01*
X1402765Y-952823D01*
X1403110Y-951726D01*
X1402880Y-950629D01*
X1402305Y-949689D01*
X1401270Y-949063D01*
X1399890Y-948749D01*
X1399085Y-948123D01*
X1398740Y-947026D01*
X1398970Y-945929D01*
X1399545Y-945146D01*
X1400350Y-944676D01*
X1401155D01*
X1401960Y-944989D01*
X1402650Y-945773D01*
G01X1407595Y-954076D02*
Y-944676D01*
X1410355D01*
X1411275Y-945146D01*
X1411965Y-946243D01*
X1412195Y-947496D01*
X1411965Y-948749D01*
X1411390Y-949689D01*
X1410355Y-950160D01*
X1407595D01*
G01X1421395Y-954076D02*
X1416795D01*
Y-944676D01*
X1421395D01*
G01X1419555Y-949219D02*
X1416795D01*
G01X1430825Y-945459D02*
X1430135Y-944989D01*
X1429330Y-944676D01*
X1428410D01*
X1427375Y-945146D01*
X1426570Y-945929D01*
X1425995Y-946869D01*
X1425535Y-948436D01*
X1425420Y-949846D01*
X1425650Y-951256D01*
X1425995Y-952196D01*
X1426685Y-953136D01*
X1427490Y-953763D01*
X1428295Y-954076D01*
X1429100D01*
X1429905Y-953763D01*
X1430595Y-953293D01*
X1431170Y-952666D01*
G01X1436115Y-944676D02*
X1438875D01*
G01X1437495D02*
Y-954076D01*
G01X1436115D02*
X1438875D01*
G01X1444510D02*
Y-944676D01*
X1448880D01*
G01X1447270Y-949219D02*
X1444510D01*
G01X1454515Y-944676D02*
X1457275D01*
G01X1455895D02*
Y-954076D01*
G01X1454515D02*
X1457275D01*
G01X1467395D02*
X1462795D01*
Y-944676D01*
X1467395D01*
G01X1465555Y-949219D02*
X1462795D01*
G01X1471765Y-954076D02*
Y-944676D01*
X1474065D01*
X1474985Y-945146D01*
X1475675Y-945773D01*
X1476250Y-946713D01*
X1476710Y-947810D01*
X1476825Y-949376D01*
X1476710Y-950943D01*
X1476250Y-952039D01*
X1475675Y-952980D01*
X1474985Y-953606D01*
X1474065Y-954076D01*
X1471765D01*
G01X1483495Y-954389D02*
X1483265Y-954233D01*
Y-953919D01*
X1483495Y-953763D01*
X1483725Y-953919D01*
Y-954233D01*
X1483495Y-954389D01*
G01Y-950160D02*
X1483265Y-950003D01*
Y-949689D01*
X1483495Y-949533D01*
X1483725Y-949689D01*
Y-950003D01*
X1483495Y-950160D01*
G01X1504595Y-1038076D02*
X1499995D01*
Y-1028676D01*
X1504595D01*
G01X1502755Y-1033219D02*
X1499995D01*
G01X1508850Y-1038076D02*
Y-1028676D01*
X1514140Y-1038076D01*
Y-1028676D01*
G01X1521385Y-1033376D02*
X1523685D01*
Y-1036196D01*
X1522995Y-1037136D01*
X1522190Y-1037763D01*
X1521040Y-1038076D01*
X1519890Y-1037763D01*
X1519085Y-1037136D01*
X1518395Y-1036196D01*
X1517935Y-1035099D01*
X1517705Y-1033846D01*
Y-1032749D01*
X1517935Y-1031810D01*
X1518395Y-1030713D01*
X1519085Y-1029773D01*
X1519775Y-1029146D01*
X1520695Y-1028676D01*
X1521500D01*
X1522420Y-1028989D01*
X1523110Y-1029616D01*
G01X1527595Y-1038076D02*
Y-1028676D01*
X1530470D01*
X1531390Y-1029146D01*
X1531965Y-1029773D01*
X1532195Y-1031026D01*
X1531965Y-1032279D01*
X1531275Y-1033063D01*
X1530470Y-1033533D01*
X1527595D01*
G01X1530470D02*
X1532195Y-1038076D01*
G01X1504825Y-1004459D02*
X1504135Y-1003989D01*
X1503330Y-1003676D01*
X1502410D01*
X1501375Y-1004146D01*
X1500570Y-1004929D01*
X1499995Y-1005869D01*
X1499535Y-1007436D01*
X1499420Y-1008846D01*
X1499650Y-1010256D01*
X1499995Y-1011196D01*
X1500685Y-1012136D01*
X1501490Y-1012763D01*
X1502295Y-1013076D01*
X1503100D01*
X1503905Y-1012763D01*
X1504595Y-1012293D01*
X1505170Y-1011666D01*
G01X1509080Y-1013076D02*
Y-1003676D01*
G01X1513910D02*
Y-1013076D01*
G01Y-1008376D02*
X1509080D01*
G01X1518165Y-1013076D02*
Y-1003676D01*
G01X1522535D02*
X1518165Y-1009473D01*
G01X1523225Y-1013076D02*
X1520120Y-1006810D01*
G01X1540015Y-1008063D02*
X1540475Y-1007593D01*
X1540820Y-1006810D01*
X1541050Y-1005713D01*
X1540820Y-1004773D01*
X1540360Y-1004146D01*
X1539555Y-1003676D01*
X1536450D01*
Y-1013076D01*
X1540245D01*
X1541050Y-1012449D01*
X1541510Y-1011509D01*
X1541740Y-1010413D01*
X1541510Y-1009316D01*
X1540820Y-1008376D01*
X1540015Y-1008063D01*
X1536450D01*
G01X1548295Y-1013076D02*
Y-1008846D01*
X1545995Y-1003676D01*
G01X1550595D02*
X1548295Y-1008846D01*
G01X1499765Y-983076D02*
Y-973676D01*
X1502065D01*
X1502985Y-974146D01*
X1503675Y-974773D01*
X1504250Y-975713D01*
X1504710Y-976810D01*
X1504825Y-978376D01*
X1504710Y-979943D01*
X1504250Y-981039D01*
X1503675Y-981980D01*
X1502985Y-982606D01*
X1502065Y-983076D01*
X1499765D01*
G01X1509195D02*
Y-973676D01*
X1512070D01*
X1512990Y-974146D01*
X1513565Y-974773D01*
X1513795Y-976026D01*
X1513565Y-977279D01*
X1512875Y-978063D01*
X1512070Y-978533D01*
X1509195D01*
G01X1512070D02*
X1513795Y-983076D01*
G01X1518050D02*
Y-973676D01*
X1523340Y-983076D01*
Y-973676D01*
G01X1540015Y-978063D02*
X1540475Y-977593D01*
X1540820Y-976810D01*
X1541050Y-975713D01*
X1540820Y-974773D01*
X1540360Y-974146D01*
X1539555Y-973676D01*
X1536450D01*
Y-983076D01*
X1540245D01*
X1541050Y-982449D01*
X1541510Y-981509D01*
X1541740Y-980413D01*
X1541510Y-979316D01*
X1540820Y-978376D01*
X1540015Y-978063D01*
X1536450D01*
G01X1548295Y-983076D02*
Y-978846D01*
X1545995Y-973676D01*
G01X1550595D02*
X1548295Y-978846D01*
G01X1554880Y-951823D02*
X1555800Y-952606D01*
X1556835Y-953076D01*
X1557755D01*
X1558675Y-952606D01*
X1559365Y-951823D01*
X1559710Y-950726D01*
X1559480Y-949629D01*
X1558905Y-948689D01*
X1557870Y-948063D01*
X1556490Y-947749D01*
X1555685Y-947123D01*
X1555340Y-946026D01*
X1555570Y-944929D01*
X1556145Y-944146D01*
X1556950Y-943676D01*
X1557755D01*
X1558560Y-943989D01*
X1559250Y-944773D01*
G01X1565115Y-943676D02*
X1567875D01*
G01X1566495D02*
Y-953076D01*
G01X1565115D02*
X1567875D01*
G01X1576385Y-948376D02*
X1578685D01*
Y-951196D01*
X1577995Y-952136D01*
X1577190Y-952763D01*
X1576040Y-953076D01*
X1574890Y-952763D01*
X1574085Y-952136D01*
X1573395Y-951196D01*
X1572935Y-950099D01*
X1572705Y-948846D01*
Y-947749D01*
X1572935Y-946810D01*
X1573395Y-945713D01*
X1574085Y-944773D01*
X1574775Y-944146D01*
X1575695Y-943676D01*
X1576500D01*
X1577420Y-943989D01*
X1578110Y-944616D01*
G01X1582250Y-953076D02*
Y-943676D01*
X1587540Y-953076D01*
Y-943676D01*
G01X1591220Y-953076D02*
X1594095Y-943676D01*
X1596970Y-953076D01*
G01X1595935Y-949786D02*
X1592255D01*
G01X1603295Y-943676D02*
Y-953076D01*
G01X1600650Y-943676D02*
X1605940D01*
G01X1609965D02*
Y-950413D01*
X1610425Y-951823D01*
X1611345Y-952763D01*
X1612495Y-953076D01*
X1613645Y-952763D01*
X1614565Y-951823D01*
X1615025Y-950413D01*
Y-943676D01*
G01X1619395Y-953076D02*
Y-943676D01*
X1622270D01*
X1623190Y-944146D01*
X1623765Y-944773D01*
X1623995Y-946026D01*
X1623765Y-947279D01*
X1623075Y-948063D01*
X1622270Y-948533D01*
X1619395D01*
G01X1622270D02*
X1623995Y-953076D01*
G01X1633195D02*
X1628595D01*
Y-943676D01*
X1633195D01*
G01X1631355Y-948219D02*
X1628595D01*
G01X1683265Y-952476D02*
Y-943076D01*
X1685565D01*
X1686485Y-943546D01*
X1687175Y-944173D01*
X1687750Y-945113D01*
X1688210Y-946210D01*
X1688325Y-947776D01*
X1688210Y-949343D01*
X1687750Y-950439D01*
X1687175Y-951380D01*
X1686485Y-952006D01*
X1685565Y-952476D01*
X1683265D01*
G01X1692120D02*
X1694995Y-943076D01*
X1697870Y-952476D01*
G01X1696835Y-949186D02*
X1693155D01*
G01X1704195Y-943076D02*
Y-952476D01*
G01X1701550Y-943076D02*
X1706840D01*
G01X1715695Y-952476D02*
X1711095D01*
Y-943076D01*
X1715695D01*
G01X1713855Y-947619D02*
X1711095D01*
G01X1757295Y-1013676D02*
Y-1023076D01*
G01X1754650Y-1013676D02*
X1759940D01*
G01X1765115D02*
X1767875D01*
G01X1766495D02*
Y-1023076D01*
G01X1765115D02*
X1767875D01*
G01X1775695Y-1013676D02*
Y-1023076D01*
G01X1773050Y-1013676D02*
X1778340D01*
G01X1782595D02*
Y-1023076D01*
X1787195D01*
G01X1796395D02*
X1791795D01*
Y-1013676D01*
X1796395D01*
G01X1794555Y-1018219D02*
X1791795D01*
G54D31*
X-179152Y-318400D03*
X-182900Y-309400D03*
X-178752Y-149000D03*
X-182500Y-140000D03*
X-175400Y-309400D03*
X-175000Y-140000D03*
G54D13*
X-428600Y-311700D03*
Y-317700D03*
X-426900Y-296400D03*
Y-302400D03*
X-428600Y-230900D03*
Y-236900D03*
X-427000Y-216800D03*
Y-222800D03*
X-428600Y-144100D03*
Y-150100D03*
X-426700Y-128700D03*
Y-134700D03*
X-420700Y-433500D03*
Y-439500D03*
X-414700Y-433800D03*
Y-439800D03*
X-415000Y-387500D03*
Y-381500D03*
X-420400Y-387700D03*
Y-381700D03*
X-420300Y-369500D03*
Y-375500D03*
X-414700Y-369500D03*
Y-375500D03*
X-418700Y-353300D03*
X-413200Y-353500D03*
X-418700Y-347300D03*
X-413200Y-347500D03*
X-415000Y-302500D03*
Y-296500D03*
X-421200Y-302500D03*
Y-296500D03*
X-420600Y-266300D03*
Y-272300D03*
X-414200Y-266500D03*
Y-272500D03*
X-415300Y-222500D03*
Y-216500D03*
X-421500Y-222900D03*
Y-216900D03*
X-419300Y-184700D03*
X-413800D03*
X-419300Y-178700D03*
X-413800D03*
X-415400Y-134800D03*
Y-128800D03*
X-421200Y-134800D03*
Y-128800D03*
X-408900Y-440000D03*
Y-434000D03*
X-409300Y-387500D03*
Y-381500D03*
X-407700Y-353600D03*
Y-347600D03*
X-409300Y-302300D03*
Y-296300D03*
X-408400Y-272600D03*
Y-266600D03*
X-409400Y-222000D03*
Y-216000D03*
X-408100Y-184800D03*
Y-178800D03*
X-409800Y-134800D03*
Y-128800D03*
X-386724Y-58814D03*
Y-52814D03*
X-386600Y-39700D03*
Y-33700D03*
X-377900Y-87100D03*
Y-93100D03*
X-342700Y-4900D03*
Y1100D03*
X-335126Y-4838D03*
Y1162D03*
X-319628Y-4957D03*
X-327766Y-4872D03*
X-319628Y1043D03*
X-327766Y1128D03*
X-313316Y-4656D03*
Y1344D03*
X-274420Y-9170D03*
Y-3170D03*
X-262776Y-38814D03*
Y-32814D03*
X-252636Y-38814D03*
Y-32814D03*
X-244100Y-424500D03*
Y-430500D03*
X-238600Y-430600D03*
Y-424600D03*
X-243000Y-339900D03*
Y-345900D03*
X-237700Y-346000D03*
Y-340000D03*
X-242000Y-171800D03*
Y-177800D03*
X-236600Y-177900D03*
Y-171900D03*
X-233294Y-38814D03*
Y-32814D03*
X-240914Y-38814D03*
Y-32814D03*
X-194100Y3800D03*
Y-2200D03*
X-193310Y17490D03*
Y11490D03*
X-186950Y10890D03*
Y4890D03*
X-186750Y17800D03*
Y23800D03*
X-13284Y-392115D03*
X-18900D03*
X-13284Y-386115D03*
X-18900D03*
X-11720Y-323295D03*
Y-317295D03*
X-12484Y-274504D03*
Y-268504D03*
X-18100Y-274504D03*
Y-268504D03*
X-11720Y-205184D03*
Y-199184D03*
X-13184Y-156194D03*
X-18700D03*
X-13184Y-150194D03*
X-18700D03*
X-11720Y-87074D03*
Y-81074D03*
X-12984Y-37884D03*
Y-31884D03*
X-18800Y-37884D03*
Y-31884D03*
X-11720Y31036D03*
Y37036D03*
X-5168Y-392015D03*
X432Y-392415D03*
X-5168Y-386015D03*
X432Y-386415D03*
X-5168Y-267904D03*
Y-273904D03*
X432D03*
Y-267904D03*
X-5168Y-155794D03*
X332Y-156194D03*
X-5168Y-149794D03*
X332Y-150194D03*
X-5168Y-31684D03*
Y-37684D03*
X532D03*
Y-31684D03*
X30469Y-325800D03*
Y-319800D03*
X30280Y-200800D03*
Y-206800D03*
X25490Y-88500D03*
Y-82500D03*
X112942Y-392015D03*
Y-386015D03*
X106390Y-323295D03*
Y-317295D03*
X112942Y-267904D03*
Y-273904D03*
X106390Y-205184D03*
Y-199184D03*
X112942Y-155794D03*
Y-149794D03*
X106390Y-87074D03*
Y-81074D03*
X112942Y-31684D03*
Y-37684D03*
X106390Y31036D03*
Y37036D03*
X129300Y-392031D03*
Y-386031D03*
Y-273920D03*
Y-267920D03*
Y-155810D03*
Y-149810D03*
Y-37700D03*
Y-31700D03*
X231052Y-392015D03*
Y-386015D03*
X224500Y-323295D03*
Y-317295D03*
X231052Y-267904D03*
Y-273904D03*
X224500Y-205184D03*
Y-199184D03*
X231052Y-155794D03*
Y-149794D03*
X224500Y-87074D03*
Y-81074D03*
X231052Y-31684D03*
Y-37684D03*
X224500Y31036D03*
Y37036D03*
X342611Y-323295D03*
Y-317295D03*
Y-205184D03*
Y-199184D03*
Y-87074D03*
Y-81074D03*
Y31036D03*
Y37036D03*
X349163Y-392015D03*
X361000Y-392500D03*
X349163Y-386015D03*
X361000Y-386500D03*
X349163Y-267904D03*
Y-273904D03*
Y-155794D03*
Y-149794D03*
Y-31684D03*
Y-37684D03*
X467273Y-392015D03*
Y-386015D03*
X460721Y-323295D03*
Y-317295D03*
X467273Y-267904D03*
Y-273904D03*
X460721Y-205184D03*
Y-199184D03*
X467273Y-155794D03*
Y-149794D03*
X460721Y-87074D03*
Y-81074D03*
X467273Y-31684D03*
Y-37684D03*
X460721Y31036D03*
Y37036D03*
X578831Y-323295D03*
Y-317295D03*
Y-205184D03*
Y-199184D03*
Y-87074D03*
Y-81074D03*
Y31036D03*
Y37036D03*
X585383Y-392015D03*
Y-386015D03*
Y-267904D03*
Y-273904D03*
Y-155794D03*
Y-149794D03*
Y-31684D03*
Y-37684D03*
X597720Y-392404D03*
Y-386404D03*
X597400Y-274320D03*
Y-268320D03*
Y-156210D03*
Y-150210D03*
Y-38100D03*
Y-32100D03*
X703493Y-392015D03*
Y-386015D03*
X696941Y-323295D03*
Y-317295D03*
X703493Y-267904D03*
Y-273904D03*
X696941Y-205184D03*
Y-199184D03*
X703493Y-155794D03*
Y-149794D03*
X696941Y-87074D03*
Y-81074D03*
X703493Y-31684D03*
Y-37684D03*
X696941Y31036D03*
Y37036D03*
X715500Y-392231D03*
Y-386231D03*
Y-274120D03*
Y-268120D03*
Y-156010D03*
Y-150010D03*
Y-37900D03*
Y-31900D03*
X815052Y-323295D03*
Y-317295D03*
Y-205184D03*
Y-199184D03*
Y-87074D03*
Y-81074D03*
Y31036D03*
Y37036D03*
X821604Y-392015D03*
Y-386015D03*
Y-267904D03*
Y-273904D03*
Y-155794D03*
Y-149794D03*
Y-31684D03*
Y-37684D03*
X833700Y-392631D03*
Y-386631D03*
Y-274520D03*
Y-268520D03*
Y-156410D03*
Y-150410D03*
Y-38300D03*
Y-32300D03*
G54D22*
X-339050Y22660D03*
Y20690D03*
Y18720D03*
Y16750D03*
Y14780D03*
Y36440D03*
Y34470D03*
Y32500D03*
Y30530D03*
Y28560D03*
Y26590D03*
Y24630D03*
X-306050Y14780D03*
Y16750D03*
Y18720D03*
Y20690D03*
Y22660D03*
Y24630D03*
Y26590D03*
Y28560D03*
Y30530D03*
Y32500D03*
Y34470D03*
Y36440D03*
G54D14*
X-419604Y-421418D03*
X-417045D03*
X-414486D03*
X-411927D03*
Y-397918D03*
X-414486D03*
X-417045D03*
X-419604D03*
X-419704Y-335918D03*
X-417145D03*
X-414586D03*
X-412027D03*
Y-312418D03*
X-414586D03*
X-417145D03*
X-419704D03*
X-419604Y-255418D03*
X-417045D03*
X-414486D03*
X-411927D03*
Y-231918D03*
X-414486D03*
X-417045D03*
X-419604D03*
Y-167218D03*
X-417045D03*
X-414486D03*
X-411927D03*
Y-143718D03*
X-414486D03*
X-417045D03*
X-419604D03*
X-409368Y-421418D03*
X-406805D03*
X-404246D03*
Y-397918D03*
X-406805D03*
X-409368D03*
X-409468Y-335918D03*
X-406905D03*
X-404346D03*
Y-312418D03*
X-406905D03*
X-409468D03*
X-409368Y-255418D03*
X-406805D03*
X-404246D03*
Y-231918D03*
X-406805D03*
X-409368D03*
Y-167218D03*
X-406805D03*
X-404246D03*
Y-143718D03*
X-406805D03*
X-409368D03*
G54D23*
X-316704Y-438584D03*
X-324904D03*
X-314000Y-352200D03*
X-322200D03*
X-316704Y-272584D03*
X-324904D03*
X-316704Y-184384D03*
X-324904D03*
X-307404Y-438584D03*
Y-429368D03*
X-306300Y-352200D03*
X-306600Y-343500D03*
X-307404Y-272584D03*
Y-263368D03*
Y-184384D03*
Y-175168D03*
X-299204Y-438584D03*
Y-429368D03*
X-298100Y-352200D03*
X-298400Y-343500D03*
X-299204Y-272584D03*
Y-263368D03*
Y-184384D03*
Y-175168D03*
G54D32*
X-85634Y-355072D03*
Y-357631D03*
Y-360190D03*
Y-239520D03*
Y-242079D03*
Y-236961D03*
Y-118851D03*
Y-121410D03*
Y-123969D03*
Y-3300D03*
Y-5859D03*
Y-741D03*
X-77366Y-360190D03*
Y-357631D03*
Y-355072D03*
Y-242079D03*
Y-239520D03*
Y-236961D03*
Y-123969D03*
Y-121410D03*
Y-118851D03*
Y-5859D03*
Y-3300D03*
Y-741D03*
X175666Y-340872D03*
Y-343431D03*
Y-345990D03*
Y-211879D03*
Y-206761D03*
Y-209320D03*
Y-88051D03*
Y-90610D03*
Y-93169D03*
Y30359D03*
Y27800D03*
Y25241D03*
X183934Y-345990D03*
Y-343431D03*
Y-340872D03*
Y-211879D03*
Y-209320D03*
Y-206761D03*
Y-93169D03*
Y-90610D03*
Y-88051D03*
Y25241D03*
Y27800D03*
Y30359D03*
X646166Y-340872D03*
Y-343431D03*
Y-345990D03*
X646366Y-210679D03*
Y-205561D03*
Y-208120D03*
X648266Y-87951D03*
Y-90510D03*
Y-93069D03*
X646866Y30359D03*
Y27800D03*
Y25241D03*
X654434Y-345990D03*
Y-343431D03*
Y-340872D03*
X654634Y-210679D03*
Y-208120D03*
Y-205561D03*
X656534Y-93069D03*
Y-90510D03*
Y-87951D03*
X655134Y25241D03*
Y27800D03*
Y30359D03*
G54D33*
X-12795Y-377067D03*
X-14764D03*
Y-331595D03*
X-12795D03*
Y-258956D03*
X-14764D03*
Y-213484D03*
X-12795D03*
Y-140846D03*
X-14764D03*
Y-95374D03*
X-12795D03*
Y-22736D03*
X-14764D03*
Y22736D03*
X-12795D03*
X984Y-377067D03*
X-984D03*
X-2953D03*
X-4921D03*
X-6890D03*
X-8858D03*
X-10827D03*
Y-331595D03*
X-8858D03*
X-6890D03*
X-4921D03*
X-2953D03*
X-984D03*
X984D03*
Y-258956D03*
X-984D03*
X-2953D03*
X-4921D03*
X-6890D03*
X-8858D03*
X-10827D03*
Y-213484D03*
X-8858D03*
X-6890D03*
X-4921D03*
X-2953D03*
X-984D03*
X984D03*
Y-140846D03*
X-984D03*
X-2953D03*
X-4921D03*
X-6890D03*
X-8858D03*
X-10827D03*
Y-95374D03*
X-8858D03*
X-6890D03*
X-4921D03*
X-2953D03*
X-984D03*
X984D03*
Y-22736D03*
X-984D03*
X-2953D03*
X-4921D03*
X-6890D03*
X-8858D03*
X-10827D03*
Y22736D03*
X-8858D03*
X-6890D03*
X-4921D03*
X-2953D03*
X-984D03*
X984D03*
X14764Y-377067D03*
X12795D03*
X10827D03*
X8858D03*
X6890D03*
X4921D03*
X2953D03*
Y-331595D03*
X4921D03*
X6890D03*
X8858D03*
X10827D03*
X12795D03*
X14764D03*
Y-258956D03*
X12795D03*
X10827D03*
X8858D03*
X6890D03*
X4921D03*
X2953D03*
Y-213484D03*
X4921D03*
X6890D03*
X8858D03*
X10827D03*
X12795D03*
X14764D03*
Y-140846D03*
X12795D03*
X10827D03*
X8858D03*
X6890D03*
X4921D03*
X2953D03*
Y-95374D03*
X4921D03*
X6890D03*
X8858D03*
X10827D03*
X12795D03*
X14764D03*
Y-22736D03*
X12795D03*
X10827D03*
X8858D03*
X6890D03*
X4921D03*
X2953D03*
Y22736D03*
X4921D03*
X6890D03*
X8858D03*
X10827D03*
X12795D03*
X14764D03*
X111220Y-377067D03*
X109252D03*
X107283D03*
X105315D03*
X103346D03*
Y-331595D03*
X105315D03*
X107283D03*
X109252D03*
X111220D03*
Y-258956D03*
X109252D03*
X107283D03*
X105315D03*
X103346D03*
Y-213484D03*
X105315D03*
X107283D03*
X109252D03*
X111220D03*
Y-140846D03*
X109252D03*
X107283D03*
X105315D03*
X103346D03*
Y-95374D03*
X105315D03*
X107283D03*
X109252D03*
X111220D03*
Y-22736D03*
X109252D03*
X107283D03*
X105315D03*
X103346D03*
Y22736D03*
X105315D03*
X107283D03*
X109252D03*
X111220D03*
X125000Y-377067D03*
X123031D03*
X121063D03*
X119094D03*
X117126D03*
X115157D03*
X113189D03*
Y-331595D03*
X115157D03*
X117126D03*
X119094D03*
X121063D03*
X123031D03*
X125000D03*
Y-258956D03*
X123031D03*
X121063D03*
X119094D03*
X117126D03*
X115157D03*
X113189D03*
Y-213484D03*
X115157D03*
X117126D03*
X119094D03*
X121063D03*
X123031D03*
X125000D03*
Y-140846D03*
X123031D03*
X121063D03*
X119094D03*
X117126D03*
X115157D03*
X113189D03*
Y-95374D03*
X115157D03*
X117126D03*
X119094D03*
X121063D03*
X123031D03*
X125000D03*
Y-22736D03*
X123031D03*
X121063D03*
X119094D03*
X117126D03*
X115157D03*
X113189D03*
Y22736D03*
X115157D03*
X117126D03*
X119094D03*
X121063D03*
X123031D03*
X125000D03*
X132874Y-377067D03*
X130905D03*
X128937D03*
X126968D03*
Y-331595D03*
X128937D03*
X130905D03*
X132874D03*
Y-258956D03*
X130905D03*
X128937D03*
X126968D03*
Y-213484D03*
X128937D03*
X130905D03*
X132874D03*
Y-140846D03*
X130905D03*
X128937D03*
X126968D03*
Y-95374D03*
X128937D03*
X130905D03*
X132874D03*
Y-22736D03*
X130905D03*
X128937D03*
X126968D03*
Y22736D03*
X128937D03*
X130905D03*
X132874D03*
X221456Y-377067D03*
Y-331595D03*
Y-258956D03*
Y-213484D03*
Y-140846D03*
Y-95374D03*
Y-22736D03*
Y22736D03*
X235236Y-377067D03*
X233267D03*
X231299D03*
X229330D03*
X227362D03*
X225393D03*
X223425D03*
Y-331595D03*
X225393D03*
X227362D03*
X229330D03*
X231299D03*
X233267D03*
X235236D03*
Y-258956D03*
X233267D03*
X231299D03*
X229330D03*
X227362D03*
X225393D03*
X223425D03*
Y-213484D03*
X225393D03*
X227362D03*
X229330D03*
X231299D03*
X233267D03*
X235236D03*
Y-140846D03*
X233267D03*
X231299D03*
X229330D03*
X227362D03*
X225393D03*
X223425D03*
Y-95374D03*
X225393D03*
X227362D03*
X229330D03*
X231299D03*
X233267D03*
X235236D03*
Y-22736D03*
X233267D03*
X231299D03*
X229330D03*
X227362D03*
X225393D03*
X223425D03*
Y22736D03*
X225393D03*
X227362D03*
X229330D03*
X231299D03*
X233267D03*
X235236D03*
X249015Y-377067D03*
X247047D03*
X245078D03*
X243110D03*
X241141D03*
X239173D03*
X237204D03*
Y-331595D03*
X239173D03*
X241141D03*
X243110D03*
X245078D03*
X247047D03*
X249015D03*
Y-258956D03*
X247047D03*
X245078D03*
X243110D03*
X241141D03*
X239173D03*
X237204D03*
Y-213484D03*
X239173D03*
X241141D03*
X243110D03*
X245078D03*
X247047D03*
X249015D03*
Y-140846D03*
X247047D03*
X245078D03*
X243110D03*
X241141D03*
X239173D03*
X237204D03*
Y-95374D03*
X239173D03*
X241141D03*
X243110D03*
X245078D03*
X247047D03*
X249015D03*
Y-22736D03*
X247047D03*
X245078D03*
X243110D03*
X241141D03*
X239173D03*
X237204D03*
Y22736D03*
X239173D03*
X241141D03*
X243110D03*
X245078D03*
X247047D03*
X249015D03*
X250984Y-377067D03*
Y-331595D03*
Y-258956D03*
Y-213484D03*
Y-140846D03*
Y-95374D03*
Y-22736D03*
Y22736D03*
X347441Y-377067D03*
X345473D03*
X343504D03*
X341536D03*
X339567D03*
Y-331595D03*
X341536D03*
X343504D03*
X345473D03*
X347441D03*
Y-258956D03*
X345473D03*
X343504D03*
X341536D03*
X339567D03*
Y-213484D03*
X341536D03*
X343504D03*
X345473D03*
X347441D03*
Y-140846D03*
X345473D03*
X343504D03*
X341536D03*
X339567D03*
Y-95374D03*
X341536D03*
X343504D03*
X345473D03*
X347441D03*
Y-22736D03*
X345473D03*
X343504D03*
X341536D03*
X339567D03*
Y22736D03*
X341536D03*
X343504D03*
X345473D03*
X347441D03*
X361221Y-377067D03*
X359252D03*
X357284D03*
X355315D03*
X353347D03*
X351378D03*
X349410D03*
Y-331595D03*
X351378D03*
X353347D03*
X355315D03*
X357284D03*
X359252D03*
X361221D03*
Y-258956D03*
X359252D03*
X357284D03*
X355315D03*
X353347D03*
X351378D03*
X349410D03*
Y-213484D03*
X351378D03*
X353347D03*
X355315D03*
X357284D03*
X359252D03*
X361221D03*
Y-140846D03*
X359252D03*
X357284D03*
X355315D03*
X353347D03*
X351378D03*
X349410D03*
Y-95374D03*
X351378D03*
X353347D03*
X355315D03*
X357284D03*
X359252D03*
X361221D03*
Y-22736D03*
X359252D03*
X357284D03*
X355315D03*
X353347D03*
X351378D03*
X349410D03*
Y22736D03*
X351378D03*
X353347D03*
X355315D03*
X357284D03*
X359252D03*
X361221D03*
X369095Y-377067D03*
X367126D03*
X365158D03*
X363189D03*
Y-331595D03*
X365158D03*
X367126D03*
X369095D03*
Y-258956D03*
X367126D03*
X365158D03*
X363189D03*
Y-213484D03*
X365158D03*
X367126D03*
X369095D03*
Y-140846D03*
X367126D03*
X365158D03*
X363189D03*
Y-95374D03*
X365158D03*
X367126D03*
X369095D03*
Y-22736D03*
X367126D03*
X365158D03*
X363189D03*
Y22736D03*
X365158D03*
X367126D03*
X369095D03*
X457677Y-377067D03*
Y-331595D03*
Y-258956D03*
Y-213484D03*
Y-140846D03*
Y-95374D03*
Y-22736D03*
Y22736D03*
X471457Y-377067D03*
X469488D03*
X467520D03*
X465551D03*
X463583D03*
X461614D03*
X459646D03*
Y-331595D03*
X461614D03*
X463583D03*
X465551D03*
X467520D03*
X469488D03*
X471457D03*
Y-258956D03*
X469488D03*
X467520D03*
X465551D03*
X463583D03*
X461614D03*
X459646D03*
Y-213484D03*
X461614D03*
X463583D03*
X465551D03*
X467520D03*
X469488D03*
X471457D03*
Y-140846D03*
X469488D03*
X467520D03*
X465551D03*
X463583D03*
X461614D03*
X459646D03*
Y-95374D03*
X461614D03*
X463583D03*
X465551D03*
X467520D03*
X469488D03*
X471457D03*
Y-22736D03*
X469488D03*
X467520D03*
X465551D03*
X463583D03*
X461614D03*
X459646D03*
Y22736D03*
X461614D03*
X463583D03*
X465551D03*
X467520D03*
X469488D03*
X471457D03*
X485236Y-377067D03*
X483268D03*
X481299D03*
X479331D03*
X477362D03*
X475394D03*
X473425D03*
Y-331595D03*
X475394D03*
X477362D03*
X479331D03*
X481299D03*
X483268D03*
X485236D03*
Y-258956D03*
X483268D03*
X481299D03*
X479331D03*
X477362D03*
X475394D03*
X473425D03*
Y-213484D03*
X475394D03*
X477362D03*
X479331D03*
X481299D03*
X483268D03*
X485236D03*
Y-140846D03*
X483268D03*
X481299D03*
X479331D03*
X477362D03*
X475394D03*
X473425D03*
Y-95374D03*
X475394D03*
X477362D03*
X479331D03*
X481299D03*
X483268D03*
X485236D03*
Y-22736D03*
X483268D03*
X481299D03*
X479331D03*
X477362D03*
X475394D03*
X473425D03*
Y22736D03*
X475394D03*
X477362D03*
X479331D03*
X481299D03*
X483268D03*
X485236D03*
X487205Y-377067D03*
Y-331595D03*
Y-258956D03*
Y-213484D03*
Y-140846D03*
Y-95374D03*
Y-22736D03*
Y22736D03*
X581693Y-377067D03*
X579724D03*
X577756D03*
X575787D03*
Y-331595D03*
X577756D03*
X579724D03*
X581693D03*
Y-258956D03*
X579724D03*
X577756D03*
X575787D03*
Y-213484D03*
X577756D03*
X579724D03*
X581693D03*
Y-140846D03*
X579724D03*
X577756D03*
X575787D03*
Y-95374D03*
X577756D03*
X579724D03*
X581693D03*
Y-22736D03*
X579724D03*
X577756D03*
X575787D03*
Y22736D03*
X577756D03*
X579724D03*
X581693D03*
X595472Y-377067D03*
X593504D03*
X591535D03*
X589567D03*
X587598D03*
X585630D03*
X583661D03*
Y-331595D03*
X585630D03*
X587598D03*
X589567D03*
X591535D03*
X593504D03*
X595472D03*
Y-258956D03*
X593504D03*
X591535D03*
X589567D03*
X587598D03*
X585630D03*
X583661D03*
Y-213484D03*
X585630D03*
X587598D03*
X589567D03*
X591535D03*
X593504D03*
X595472D03*
Y-140846D03*
X593504D03*
X591535D03*
X589567D03*
X587598D03*
X585630D03*
X583661D03*
Y-95374D03*
X585630D03*
X587598D03*
X589567D03*
X591535D03*
X593504D03*
X595472D03*
Y-22736D03*
X593504D03*
X591535D03*
X589567D03*
X587598D03*
X585630D03*
X583661D03*
Y22736D03*
X585630D03*
X587598D03*
X589567D03*
X591535D03*
X593504D03*
X595472D03*
X605315Y-377067D03*
X603346D03*
X601378D03*
X599409D03*
X597441D03*
Y-331595D03*
X599409D03*
X601378D03*
X603346D03*
X605315D03*
Y-258956D03*
X603346D03*
X601378D03*
X599409D03*
X597441D03*
Y-213484D03*
X599409D03*
X601378D03*
X603346D03*
X605315D03*
Y-140846D03*
X603346D03*
X601378D03*
X599409D03*
X597441D03*
Y-95374D03*
X599409D03*
X601378D03*
X603346D03*
X605315D03*
Y-22736D03*
X603346D03*
X601378D03*
X599409D03*
X597441D03*
Y22736D03*
X599409D03*
X601378D03*
X603346D03*
X605315D03*
X705708Y-377067D03*
X703740D03*
X701771D03*
X699803D03*
X697834D03*
X695866D03*
X693897D03*
Y-331595D03*
X695866D03*
X697834D03*
X699803D03*
X701771D03*
X703740D03*
X705708D03*
Y-258956D03*
X703740D03*
X701771D03*
X699803D03*
X697834D03*
X695866D03*
X693897D03*
Y-213484D03*
X695866D03*
X697834D03*
X699803D03*
X701771D03*
X703740D03*
X705708D03*
Y-140846D03*
X703740D03*
X701771D03*
X699803D03*
X697834D03*
X695866D03*
X693897D03*
Y-95374D03*
X695866D03*
X697834D03*
X699803D03*
X701771D03*
X703740D03*
X705708D03*
Y-22736D03*
X703740D03*
X701771D03*
X699803D03*
X697834D03*
X695866D03*
X693897D03*
Y22736D03*
X695866D03*
X697834D03*
X699803D03*
X701771D03*
X703740D03*
X705708D03*
X719488Y-377067D03*
X717519D03*
X715551D03*
X713582D03*
X711614D03*
X709645D03*
X707677D03*
Y-331595D03*
X709645D03*
X711614D03*
X713582D03*
X715551D03*
X717519D03*
X719488D03*
Y-258956D03*
X717519D03*
X715551D03*
X713582D03*
X711614D03*
X709645D03*
X707677D03*
Y-213484D03*
X709645D03*
X711614D03*
X713582D03*
X715551D03*
X717519D03*
X719488D03*
Y-140846D03*
X717519D03*
X715551D03*
X713582D03*
X711614D03*
X709645D03*
X707677D03*
Y-95374D03*
X709645D03*
X711614D03*
X713582D03*
X715551D03*
X717519D03*
X719488D03*
Y-22736D03*
X717519D03*
X715551D03*
X713582D03*
X711614D03*
X709645D03*
X707677D03*
Y22736D03*
X709645D03*
X711614D03*
X713582D03*
X715551D03*
X717519D03*
X719488D03*
X723425Y-377067D03*
X721456D03*
Y-331595D03*
X723425D03*
Y-258956D03*
X721456D03*
Y-213484D03*
X723425D03*
Y-140846D03*
X721456D03*
Y-95374D03*
X723425D03*
Y-22736D03*
X721456D03*
Y22736D03*
X723425D03*
X815945Y-377067D03*
X813977D03*
X812008D03*
Y-331595D03*
X813977D03*
X815945D03*
Y-258956D03*
X813977D03*
X812008D03*
Y-213484D03*
X813977D03*
X815945D03*
Y-140846D03*
X813977D03*
X812008D03*
Y-95374D03*
X813977D03*
X815945D03*
Y-22736D03*
X813977D03*
X812008D03*
Y22736D03*
X813977D03*
X815945D03*
X829725Y-377067D03*
X827756D03*
X825788D03*
X823819D03*
X821851D03*
X819882D03*
X817914D03*
Y-331595D03*
X819882D03*
X821851D03*
X823819D03*
X825788D03*
X827756D03*
X829725D03*
Y-258956D03*
X827756D03*
X825788D03*
X823819D03*
X821851D03*
X819882D03*
X817914D03*
Y-213484D03*
X819882D03*
X821851D03*
X823819D03*
X825788D03*
X827756D03*
X829725D03*
Y-140846D03*
X827756D03*
X825788D03*
X823819D03*
X821851D03*
X819882D03*
X817914D03*
Y-95374D03*
X819882D03*
X821851D03*
X823819D03*
X825788D03*
X827756D03*
X829725D03*
Y-22736D03*
X827756D03*
X825788D03*
X823819D03*
X821851D03*
X819882D03*
X817914D03*
Y22736D03*
X819882D03*
X821851D03*
X823819D03*
X825788D03*
X827756D03*
X829725D03*
X841536Y-377067D03*
X839567D03*
X837599D03*
X835630D03*
X833662D03*
X831693D03*
Y-331595D03*
X833662D03*
X835630D03*
X837599D03*
X839567D03*
X841536D03*
Y-258956D03*
X839567D03*
X837599D03*
X835630D03*
X833662D03*
X831693D03*
Y-213484D03*
X833662D03*
X835630D03*
X837599D03*
X839567D03*
X841536D03*
Y-140846D03*
X839567D03*
X837599D03*
X835630D03*
X833662D03*
X831693D03*
Y-95374D03*
X833662D03*
X835630D03*
X837599D03*
X839567D03*
X841536D03*
Y-22736D03*
X839567D03*
X837599D03*
X835630D03*
X833662D03*
X831693D03*
Y22736D03*
X833662D03*
X835630D03*
X837599D03*
X839567D03*
X841536D03*
G54D24*
X-273888Y-431360D03*
Y-436360D03*
Y-441360D03*
Y-426360D03*
X-272188Y-351360D03*
Y-356360D03*
Y-341360D03*
Y-346360D03*
X-272088Y-182660D03*
Y-187660D03*
Y-172660D03*
Y-177660D03*
X-251888Y-441360D03*
Y-436360D03*
Y-431360D03*
Y-426360D03*
X-250188Y-356360D03*
Y-351360D03*
Y-346360D03*
Y-341360D03*
X-250088Y-187660D03*
Y-182660D03*
Y-177660D03*
Y-172660D03*
G54D15*
X-422200Y-58900D03*
X-416200D03*
X-422600Y-71500D03*
X-416600D03*
X-415400Y-39400D03*
X-421400D03*
X-415400Y62800D03*
X-421400D03*
X-370100Y-8700D03*
X-370648Y22946D03*
X-370754Y36096D03*
X-367600Y-36700D03*
X-361600D03*
X-367600Y-44200D03*
X-361600D03*
X-357600Y-8700D03*
X-364100D03*
X-364648Y22946D03*
X-358120Y16126D03*
X-358286Y22806D03*
X-364754Y36096D03*
X-358336Y37106D03*
Y31096D03*
X-358286Y45686D03*
X-351600Y-8700D03*
X-352120Y16126D03*
X-352286Y22806D03*
X-352336Y37106D03*
Y31096D03*
X-352286Y45686D03*
X-321584Y-429516D03*
X-315584D03*
X-320800Y-342900D03*
X-314800D03*
X-322400Y-263600D03*
X-316400D03*
X-322000Y-175400D03*
X-316000D03*
X-306338Y-4486D03*
X-306400Y1800D03*
X-300338Y-4486D03*
X-291236Y10956D03*
X-297236D03*
X-300400Y1800D03*
X-297488Y17704D03*
X-291488D03*
X-291438Y23876D03*
X-297438D03*
X-297574Y36564D03*
X-291574D03*
X-292000Y46700D03*
X-298000D03*
X-260800Y53620D03*
X-254800D03*
X-232700Y63900D03*
X-238700D03*
X-232900Y70100D03*
X-238900D03*
X-207410Y-22990D03*
X-213410D03*
X-216310Y54440D03*
X-210310D03*
X-196260Y29640D03*
X-196230Y35260D03*
X-196300Y42300D03*
X-190260Y29640D03*
X-190230Y35260D03*
X-190300Y42300D03*
X-83800Y18400D03*
X-83900Y12000D03*
X-77800Y18400D03*
X-77900Y12000D03*
X-31956Y-361783D03*
X-37956D03*
X-31956Y-339495D03*
X-37956D03*
X-31956Y-243672D03*
X-37956D03*
X-31956Y-221384D03*
X-37956D03*
X-31956Y-125562D03*
X-37956D03*
X-31956Y-103274D03*
X-37956D03*
X-31956Y-7452D03*
X-37956D03*
X-31956Y14836D03*
X-37956D03*
X11700Y-315169D03*
X12100Y-197480D03*
X13500Y-78790D03*
X7500D03*
X17700Y-315169D03*
X18100Y-197480D03*
X37300Y-369031D03*
X31300D03*
X31416Y-355379D03*
X37416D03*
X31200Y-360731D03*
X37200D03*
X31200Y-242620D03*
X37200D03*
X37300Y-250920D03*
X31300D03*
X31416Y-237268D03*
X37416D03*
X37300Y-132810D03*
X31300D03*
X31416Y-119158D03*
X37416D03*
X31200Y-124510D03*
X37200D03*
X37300Y-14700D03*
X31300D03*
X31200Y-6400D03*
X37200D03*
X31416Y-1048D03*
X37416D03*
X80154Y-361783D03*
Y-339495D03*
Y-243672D03*
Y-221384D03*
Y-125562D03*
Y-103274D03*
Y-7452D03*
Y14836D03*
X86154Y-361783D03*
Y-339495D03*
Y-243672D03*
Y-221384D03*
Y-125562D03*
Y-103274D03*
Y-7452D03*
Y14836D03*
X154900Y-368731D03*
X148900D03*
X149526Y-355379D03*
X149100Y-360731D03*
X155100D03*
X149100Y-242620D03*
X155100D03*
X154900Y-250620D03*
X148900D03*
X149526Y-237268D03*
X154900Y-132510D03*
X148900D03*
X149526Y-119158D03*
X149100Y-124510D03*
X155100D03*
X154900Y-14400D03*
X148900D03*
X149100Y-6400D03*
X155100D03*
X149526Y-1048D03*
X155526Y-355379D03*
Y-237268D03*
Y-119158D03*
Y-1048D03*
X204264Y-361783D03*
X198264D03*
X204264Y-339495D03*
X198264D03*
X204264Y-243672D03*
X198264D03*
X204264Y-221384D03*
X198264D03*
X204264Y-125562D03*
X198264D03*
X204264Y-103274D03*
X198264D03*
X204264Y-7452D03*
X198264D03*
X204264Y14836D03*
X198264D03*
X274200Y-373231D03*
X268200D03*
X274220Y-367721D03*
X268220D03*
X267636Y-355379D03*
X273636D03*
X268200Y-360831D03*
X274200D03*
Y-255120D03*
X268200D03*
Y-242720D03*
X274200D03*
X274220Y-249610D03*
X268220D03*
X267636Y-237268D03*
X273636D03*
X274200Y-137010D03*
X268200D03*
X274220Y-131500D03*
X268220D03*
X267636Y-119158D03*
X273636D03*
X268200Y-124610D03*
X274200D03*
Y-18900D03*
X268200D03*
X274220Y-13390D03*
X268220D03*
X268200Y-6500D03*
X274200D03*
X267636Y-1048D03*
X273636D03*
X316375Y-361783D03*
Y-339495D03*
Y-243672D03*
Y-221384D03*
Y-125562D03*
Y-103274D03*
Y-7452D03*
Y14836D03*
X322375Y-361783D03*
Y-339495D03*
Y-243672D03*
Y-221384D03*
Y-125562D03*
Y-103274D03*
Y-7452D03*
Y14836D03*
X386500Y-368000D03*
X385747Y-355379D03*
X386300Y-360531D03*
X386374Y-255169D03*
X386300Y-242420D03*
X386374Y-249500D03*
X385747Y-237268D03*
X386374Y-131390D03*
Y-137059D03*
X385747Y-119158D03*
X386300Y-124310D03*
X386374Y-18949D03*
Y-13280D03*
X386300Y-6200D03*
X385747Y-1048D03*
X392500Y-368000D03*
X391747Y-355379D03*
X392300Y-360531D03*
X392374Y-255169D03*
X392300Y-242420D03*
X392374Y-249500D03*
X391747Y-237268D03*
X392374Y-131390D03*
Y-137059D03*
X391747Y-119158D03*
X392300Y-124310D03*
X392374Y-18949D03*
Y-13280D03*
X392300Y-6200D03*
X391747Y-1048D03*
X440485Y-361783D03*
X434485D03*
X440485Y-339495D03*
X434485D03*
X440485Y-243672D03*
X434485D03*
X440485Y-221384D03*
X434485D03*
X440485Y-125562D03*
X434485D03*
X440485Y-103274D03*
X434485D03*
X440485Y-7452D03*
X434485D03*
X440485Y14836D03*
X434485D03*
X510400Y-373931D03*
X504400D03*
X510400Y-368231D03*
X504400D03*
X503857Y-355379D03*
X509857D03*
X504300Y-360731D03*
X510300D03*
X510400Y-255820D03*
X504400D03*
X504300Y-242620D03*
X510300D03*
X510400Y-250120D03*
X504400D03*
X503857Y-237268D03*
X509857D03*
X510400Y-137710D03*
X504400D03*
X510400Y-132010D03*
X504400D03*
X503857Y-119158D03*
X509857D03*
X504300Y-124510D03*
X510300D03*
X510400Y-19600D03*
X504400D03*
X510400Y-13900D03*
X504400D03*
X504300Y-6400D03*
X510300D03*
X503857Y-1048D03*
X509857D03*
X552595Y-361783D03*
Y-339495D03*
Y-243672D03*
Y-221384D03*
Y-125562D03*
Y-103274D03*
Y-7452D03*
Y14836D03*
X558595Y-361783D03*
Y-339495D03*
Y-243672D03*
Y-221384D03*
Y-125562D03*
Y-103274D03*
Y-7452D03*
Y14836D03*
X622400Y-369031D03*
X621967Y-355379D03*
X622200Y-360631D03*
Y-242520D03*
X622400Y-250920D03*
X621967Y-237268D03*
X622400Y-132810D03*
X621967Y-119158D03*
X622200Y-124410D03*
X622400Y-14700D03*
X622200Y-6300D03*
X621967Y-1048D03*
X628400Y-369031D03*
X627967Y-355379D03*
X628200Y-360631D03*
Y-242520D03*
X628400Y-250920D03*
X627967Y-237268D03*
X628400Y-132810D03*
X627967Y-119158D03*
X628200Y-124410D03*
X628400Y-14700D03*
X628200Y-6300D03*
X627967Y-1048D03*
X676705Y-361783D03*
X670705D03*
X676705Y-339495D03*
X670705D03*
X676705Y-243672D03*
X670705D03*
X676705Y-221384D03*
X670705D03*
X676705Y-125562D03*
X670705D03*
X676705Y-103274D03*
X670705D03*
X676705Y-7452D03*
X670705D03*
X676705Y14836D03*
X670705D03*
X746000Y-369031D03*
X740000D03*
X740077Y-355379D03*
X746077D03*
X740000Y-360731D03*
X746000D03*
X740000Y-242620D03*
X746000D03*
Y-250920D03*
X740000D03*
X740077Y-237268D03*
X746077D03*
X746000Y-132810D03*
X740000D03*
X740077Y-119158D03*
X746077D03*
X740000Y-124510D03*
X746000D03*
Y-14700D03*
X740000D03*
Y-6400D03*
X746000D03*
X740077Y-1048D03*
X746077D03*
X788816Y-361783D03*
Y-339495D03*
Y-243672D03*
Y-221384D03*
Y-125562D03*
Y-103274D03*
Y-7452D03*
Y14836D03*
X794816Y-361783D03*
Y-339495D03*
Y-243672D03*
Y-221384D03*
Y-125562D03*
Y-103274D03*
Y-7452D03*
Y14836D03*
X858188Y-355379D03*
X858300Y-360631D03*
Y-242520D03*
X858188Y-237268D03*
X858500Y-227920D03*
Y-222120D03*
X858188Y-119158D03*
X858300Y-124410D03*
X858500Y-104010D03*
Y-109810D03*
X858300Y-6300D03*
X858188Y-1048D03*
X858500Y8300D03*
Y14100D03*
X864188Y-355379D03*
X864300Y-360631D03*
Y-242520D03*
X864188Y-237268D03*
X864500Y-227920D03*
Y-222120D03*
X864188Y-119158D03*
X864300Y-124410D03*
X864500Y-104010D03*
Y-109810D03*
X864300Y-6300D03*
X864188Y-1048D03*
X864500Y8300D03*
Y14100D03*
G54D34*
X-22736Y-369095D03*
Y-367126D03*
Y-365158D03*
Y-363189D03*
Y-361221D03*
Y-359252D03*
Y-357284D03*
Y-355315D03*
Y-353347D03*
Y-351378D03*
Y-349410D03*
Y-347441D03*
Y-345473D03*
Y-343504D03*
Y-341536D03*
Y-339567D03*
Y-250984D03*
Y-249015D03*
Y-247047D03*
Y-245078D03*
Y-243110D03*
Y-241141D03*
Y-239173D03*
Y-237204D03*
Y-235236D03*
Y-233267D03*
Y-231299D03*
Y-229330D03*
Y-227362D03*
Y-225393D03*
Y-223425D03*
Y-221456D03*
Y-132874D03*
Y-130905D03*
Y-128937D03*
Y-126968D03*
Y-125000D03*
Y-123031D03*
Y-121063D03*
Y-119094D03*
Y-117126D03*
Y-115157D03*
Y-113189D03*
Y-111220D03*
Y-109252D03*
Y-107283D03*
Y-105315D03*
Y-103346D03*
Y-14764D03*
Y-12795D03*
Y-10827D03*
Y-8858D03*
Y-6890D03*
Y-4921D03*
Y-2953D03*
Y-984D03*
Y984D03*
Y2953D03*
Y4921D03*
Y6890D03*
Y8858D03*
Y10827D03*
Y12795D03*
Y14764D03*
X22736Y-363189D03*
Y-365158D03*
Y-367126D03*
Y-369095D03*
Y-349410D03*
Y-351378D03*
Y-353347D03*
Y-355315D03*
Y-357284D03*
Y-359252D03*
Y-361221D03*
Y-339567D03*
Y-341536D03*
Y-343504D03*
Y-345473D03*
Y-347441D03*
Y-239173D03*
Y-241141D03*
Y-243110D03*
Y-245078D03*
Y-247047D03*
Y-249015D03*
Y-250984D03*
Y-225393D03*
Y-227362D03*
Y-229330D03*
Y-231299D03*
Y-233267D03*
Y-235236D03*
Y-237204D03*
Y-221456D03*
Y-223425D03*
Y-128937D03*
Y-130905D03*
Y-132874D03*
Y-115157D03*
Y-117126D03*
Y-119094D03*
Y-121063D03*
Y-123031D03*
Y-125000D03*
Y-126968D03*
Y-103346D03*
Y-105315D03*
Y-107283D03*
Y-109252D03*
Y-111220D03*
Y-113189D03*
Y-4921D03*
Y-6890D03*
Y-8858D03*
Y-10827D03*
Y-12795D03*
Y-14764D03*
Y8858D03*
Y6890D03*
Y4921D03*
Y2953D03*
Y984D03*
Y-984D03*
Y-2953D03*
Y14764D03*
Y12795D03*
Y10827D03*
X95374Y-369095D03*
Y-367126D03*
Y-365158D03*
Y-363189D03*
Y-361221D03*
Y-359252D03*
Y-357284D03*
Y-355315D03*
Y-353347D03*
Y-351378D03*
Y-349410D03*
Y-347441D03*
Y-345473D03*
Y-343504D03*
Y-341536D03*
Y-339567D03*
Y-250984D03*
Y-249015D03*
Y-247047D03*
Y-245078D03*
Y-243110D03*
Y-241141D03*
Y-239173D03*
Y-237204D03*
Y-235236D03*
Y-233267D03*
Y-231299D03*
Y-229330D03*
Y-227362D03*
Y-225393D03*
Y-223425D03*
Y-221456D03*
Y-132874D03*
Y-130905D03*
Y-128937D03*
Y-126968D03*
Y-125000D03*
Y-123031D03*
Y-121063D03*
Y-119094D03*
Y-117126D03*
Y-115157D03*
Y-113189D03*
Y-111220D03*
Y-109252D03*
Y-107283D03*
Y-105315D03*
Y-103346D03*
Y-14764D03*
Y-12795D03*
Y-10827D03*
Y-8858D03*
Y-6890D03*
Y-4921D03*
Y-2953D03*
Y-984D03*
Y984D03*
Y2953D03*
Y4921D03*
Y6890D03*
Y8858D03*
Y10827D03*
Y12795D03*
Y14764D03*
X140846Y-363189D03*
Y-365158D03*
Y-367126D03*
Y-369095D03*
Y-349410D03*
Y-351378D03*
Y-353347D03*
Y-355315D03*
Y-357284D03*
Y-359252D03*
Y-361221D03*
Y-339567D03*
Y-341536D03*
Y-343504D03*
Y-345473D03*
Y-347441D03*
Y-239173D03*
Y-241141D03*
Y-243110D03*
Y-245078D03*
Y-247047D03*
Y-249015D03*
Y-250984D03*
Y-225393D03*
Y-227362D03*
Y-229330D03*
Y-231299D03*
Y-233267D03*
Y-235236D03*
Y-237204D03*
Y-221456D03*
Y-223425D03*
Y-128937D03*
Y-130905D03*
Y-132874D03*
Y-115157D03*
Y-117126D03*
Y-119094D03*
Y-121063D03*
Y-123031D03*
Y-125000D03*
Y-126968D03*
Y-103346D03*
Y-105315D03*
Y-107283D03*
Y-109252D03*
Y-111220D03*
Y-113189D03*
Y-4921D03*
Y-6890D03*
Y-8858D03*
Y-10827D03*
Y-12795D03*
Y-14764D03*
Y8858D03*
Y6890D03*
Y4921D03*
Y2953D03*
Y984D03*
Y-984D03*
Y-2953D03*
Y14764D03*
Y12795D03*
Y10827D03*
X213484Y-369095D03*
Y-367126D03*
Y-365158D03*
Y-363189D03*
Y-361221D03*
Y-359252D03*
Y-357284D03*
Y-355315D03*
Y-353347D03*
Y-351378D03*
Y-349410D03*
Y-347441D03*
Y-345473D03*
Y-343504D03*
Y-341536D03*
Y-339567D03*
Y-250984D03*
Y-249015D03*
Y-247047D03*
Y-245078D03*
Y-243110D03*
Y-241141D03*
Y-239173D03*
Y-237204D03*
Y-235236D03*
Y-233267D03*
Y-231299D03*
Y-229330D03*
Y-227362D03*
Y-225393D03*
Y-223425D03*
Y-221456D03*
Y-132874D03*
Y-130905D03*
Y-128937D03*
Y-126968D03*
Y-125000D03*
Y-123031D03*
Y-121063D03*
Y-119094D03*
Y-117126D03*
Y-115157D03*
Y-113189D03*
Y-111220D03*
Y-109252D03*
Y-107283D03*
Y-105315D03*
Y-103346D03*
Y-14764D03*
Y-12795D03*
Y-10827D03*
Y-8858D03*
Y-6890D03*
Y-4921D03*
Y-2953D03*
Y-984D03*
Y984D03*
Y2953D03*
Y4921D03*
Y6890D03*
Y8858D03*
Y10827D03*
Y12795D03*
Y14764D03*
X258956Y-363189D03*
Y-365158D03*
Y-367126D03*
Y-369095D03*
Y-349410D03*
Y-351378D03*
Y-353347D03*
Y-355315D03*
Y-357284D03*
Y-359252D03*
Y-361221D03*
Y-339567D03*
Y-341536D03*
Y-343504D03*
Y-345473D03*
Y-347441D03*
Y-239173D03*
Y-241141D03*
Y-243110D03*
Y-245078D03*
Y-247047D03*
Y-249015D03*
Y-250984D03*
Y-225393D03*
Y-227362D03*
Y-229330D03*
Y-231299D03*
Y-233267D03*
Y-235236D03*
Y-237204D03*
Y-221456D03*
Y-223425D03*
Y-128937D03*
Y-130905D03*
Y-132874D03*
Y-115157D03*
Y-117126D03*
Y-119094D03*
Y-121063D03*
Y-123031D03*
Y-125000D03*
Y-126968D03*
Y-103346D03*
Y-105315D03*
Y-107283D03*
Y-109252D03*
Y-111220D03*
Y-113189D03*
Y-4921D03*
Y-6890D03*
Y-8858D03*
Y-10827D03*
Y-12795D03*
Y-14764D03*
Y8858D03*
Y6890D03*
Y4921D03*
Y2953D03*
Y984D03*
Y-984D03*
Y-2953D03*
Y14764D03*
Y12795D03*
Y10827D03*
X331595Y-369095D03*
Y-367126D03*
Y-365158D03*
Y-363189D03*
Y-361221D03*
Y-359252D03*
Y-357284D03*
Y-355315D03*
Y-353347D03*
Y-351378D03*
Y-349410D03*
Y-347441D03*
Y-345473D03*
Y-343504D03*
Y-341536D03*
Y-339567D03*
Y-250984D03*
Y-249015D03*
Y-247047D03*
Y-245078D03*
Y-243110D03*
Y-241141D03*
Y-239173D03*
Y-237204D03*
Y-235236D03*
Y-233267D03*
Y-231299D03*
Y-229330D03*
Y-227362D03*
Y-225393D03*
Y-223425D03*
Y-221456D03*
Y-132874D03*
Y-130905D03*
Y-128937D03*
Y-126968D03*
Y-125000D03*
Y-123031D03*
Y-121063D03*
Y-119094D03*
Y-117126D03*
Y-115157D03*
Y-113189D03*
Y-111220D03*
Y-109252D03*
Y-107283D03*
Y-105315D03*
Y-103346D03*
Y-14764D03*
Y-12795D03*
Y-10827D03*
Y-8858D03*
Y-6890D03*
Y-4921D03*
Y-2953D03*
Y-984D03*
Y984D03*
Y2953D03*
Y4921D03*
Y6890D03*
Y8858D03*
Y10827D03*
Y12795D03*
Y14764D03*
X377067Y-363189D03*
Y-365158D03*
Y-367126D03*
Y-369095D03*
Y-349410D03*
Y-351378D03*
Y-353347D03*
Y-355315D03*
Y-357284D03*
Y-359252D03*
Y-361221D03*
Y-339567D03*
Y-341536D03*
Y-343504D03*
Y-345473D03*
Y-347441D03*
Y-239173D03*
Y-241141D03*
Y-243110D03*
Y-245078D03*
Y-247047D03*
Y-249015D03*
Y-250984D03*
Y-225393D03*
Y-227362D03*
Y-229330D03*
Y-231299D03*
Y-233267D03*
Y-235236D03*
Y-237204D03*
Y-221456D03*
Y-223425D03*
Y-128937D03*
Y-130905D03*
Y-132874D03*
Y-115157D03*
Y-117126D03*
Y-119094D03*
Y-121063D03*
Y-123031D03*
Y-125000D03*
Y-126968D03*
Y-103346D03*
Y-105315D03*
Y-107283D03*
Y-109252D03*
Y-111220D03*
Y-113189D03*
Y-4921D03*
Y-6890D03*
Y-8858D03*
Y-10827D03*
Y-12795D03*
Y-14764D03*
Y8858D03*
Y6890D03*
Y4921D03*
Y2953D03*
Y984D03*
Y-984D03*
Y-2953D03*
Y14764D03*
Y12795D03*
Y10827D03*
X449705Y-369095D03*
Y-367126D03*
Y-365158D03*
Y-363189D03*
Y-361221D03*
Y-359252D03*
Y-357284D03*
Y-355315D03*
Y-353347D03*
Y-351378D03*
Y-349410D03*
Y-347441D03*
Y-345473D03*
Y-343504D03*
Y-341536D03*
Y-339567D03*
Y-250984D03*
Y-249015D03*
Y-247047D03*
Y-245078D03*
Y-243110D03*
Y-241141D03*
Y-239173D03*
Y-237204D03*
Y-235236D03*
Y-233267D03*
Y-231299D03*
Y-229330D03*
Y-227362D03*
Y-225393D03*
Y-223425D03*
Y-221456D03*
Y-132874D03*
Y-130905D03*
Y-128937D03*
Y-126968D03*
Y-125000D03*
Y-123031D03*
Y-121063D03*
Y-119094D03*
Y-117126D03*
Y-115157D03*
Y-113189D03*
Y-111220D03*
Y-109252D03*
Y-107283D03*
Y-105315D03*
Y-103346D03*
Y-14764D03*
Y-12795D03*
Y-10827D03*
Y-8858D03*
Y-6890D03*
Y-4921D03*
Y-2953D03*
Y-984D03*
Y984D03*
Y2953D03*
Y4921D03*
Y6890D03*
Y8858D03*
Y10827D03*
Y12795D03*
Y14764D03*
X495177Y-363189D03*
Y-365158D03*
Y-367126D03*
Y-369095D03*
Y-349410D03*
Y-351378D03*
Y-353347D03*
Y-355315D03*
Y-357284D03*
Y-359252D03*
Y-361221D03*
Y-339567D03*
Y-341536D03*
Y-343504D03*
Y-345473D03*
Y-347441D03*
Y-239173D03*
Y-241141D03*
Y-243110D03*
Y-245078D03*
Y-247047D03*
Y-249015D03*
Y-250984D03*
Y-225393D03*
Y-227362D03*
Y-229330D03*
Y-231299D03*
Y-233267D03*
Y-235236D03*
Y-237204D03*
Y-221456D03*
Y-223425D03*
Y-128937D03*
Y-130905D03*
Y-132874D03*
Y-115157D03*
Y-117126D03*
Y-119094D03*
Y-121063D03*
Y-123031D03*
Y-125000D03*
Y-126968D03*
Y-103346D03*
Y-105315D03*
Y-107283D03*
Y-109252D03*
Y-111220D03*
Y-113189D03*
Y-4921D03*
Y-6890D03*
Y-8858D03*
Y-10827D03*
Y-12795D03*
Y-14764D03*
Y8858D03*
Y6890D03*
Y4921D03*
Y2953D03*
Y984D03*
Y-984D03*
Y-2953D03*
Y14764D03*
Y12795D03*
Y10827D03*
X567815Y-369095D03*
Y-367126D03*
Y-365158D03*
Y-363189D03*
Y-361221D03*
Y-359252D03*
Y-357284D03*
Y-355315D03*
Y-353347D03*
Y-351378D03*
Y-349410D03*
Y-347441D03*
Y-345473D03*
Y-343504D03*
Y-341536D03*
Y-339567D03*
Y-250984D03*
Y-249015D03*
Y-247047D03*
Y-245078D03*
Y-243110D03*
Y-241141D03*
Y-239173D03*
Y-237204D03*
Y-235236D03*
Y-233267D03*
Y-231299D03*
Y-229330D03*
Y-227362D03*
Y-225393D03*
Y-223425D03*
Y-221456D03*
Y-132874D03*
Y-130905D03*
Y-128937D03*
Y-126968D03*
Y-125000D03*
Y-123031D03*
Y-121063D03*
Y-119094D03*
Y-117126D03*
Y-115157D03*
Y-113189D03*
Y-111220D03*
Y-109252D03*
Y-107283D03*
Y-105315D03*
Y-103346D03*
Y-14764D03*
Y-12795D03*
Y-10827D03*
Y-8858D03*
Y-6890D03*
Y-4921D03*
Y-2953D03*
Y-984D03*
Y984D03*
Y2953D03*
Y4921D03*
Y6890D03*
Y8858D03*
Y10827D03*
Y12795D03*
Y14764D03*
X613287Y-363189D03*
Y-365158D03*
Y-367126D03*
Y-369095D03*
Y-349410D03*
Y-351378D03*
Y-353347D03*
Y-355315D03*
Y-357284D03*
Y-359252D03*
Y-361221D03*
Y-339567D03*
Y-341536D03*
Y-343504D03*
Y-345473D03*
Y-347441D03*
Y-239173D03*
Y-241141D03*
Y-243110D03*
Y-245078D03*
Y-247047D03*
Y-249015D03*
Y-250984D03*
Y-225393D03*
Y-227362D03*
Y-229330D03*
Y-231299D03*
Y-233267D03*
Y-235236D03*
Y-237204D03*
Y-221456D03*
Y-223425D03*
Y-128937D03*
Y-130905D03*
Y-132874D03*
Y-115157D03*
Y-117126D03*
Y-119094D03*
Y-121063D03*
Y-123031D03*
Y-125000D03*
Y-126968D03*
Y-103346D03*
Y-105315D03*
Y-107283D03*
Y-109252D03*
Y-111220D03*
Y-113189D03*
Y-4921D03*
Y-6890D03*
Y-8858D03*
Y-10827D03*
Y-12795D03*
Y-14764D03*
Y8858D03*
Y6890D03*
Y4921D03*
Y2953D03*
Y984D03*
Y-984D03*
Y-2953D03*
Y14764D03*
Y12795D03*
Y10827D03*
X685925Y-369095D03*
Y-367126D03*
Y-365158D03*
Y-363189D03*
Y-361221D03*
Y-359252D03*
Y-357284D03*
Y-355315D03*
Y-353347D03*
Y-351378D03*
Y-349410D03*
Y-347441D03*
Y-345473D03*
Y-343504D03*
Y-341536D03*
Y-339567D03*
Y-250984D03*
Y-249015D03*
Y-247047D03*
Y-245078D03*
Y-243110D03*
Y-241141D03*
Y-239173D03*
Y-237204D03*
Y-235236D03*
Y-233267D03*
Y-231299D03*
Y-229330D03*
Y-227362D03*
Y-225393D03*
Y-223425D03*
Y-221456D03*
Y-132874D03*
Y-130905D03*
Y-128937D03*
Y-126968D03*
Y-125000D03*
Y-123031D03*
Y-121063D03*
Y-119094D03*
Y-117126D03*
Y-115157D03*
Y-113189D03*
Y-111220D03*
Y-109252D03*
Y-107283D03*
Y-105315D03*
Y-103346D03*
Y-14764D03*
Y-12795D03*
Y-10827D03*
Y-8858D03*
Y-6890D03*
Y-4921D03*
Y-2953D03*
Y-984D03*
Y984D03*
Y2953D03*
Y4921D03*
Y6890D03*
Y8858D03*
Y10827D03*
Y12795D03*
Y14764D03*
X731397Y-363189D03*
Y-365158D03*
Y-367126D03*
Y-369095D03*
Y-349410D03*
Y-351378D03*
Y-353347D03*
Y-355315D03*
Y-357284D03*
Y-359252D03*
Y-361221D03*
Y-339567D03*
Y-341536D03*
Y-343504D03*
Y-345473D03*
Y-347441D03*
Y-239173D03*
Y-241141D03*
Y-243110D03*
Y-245078D03*
Y-247047D03*
Y-249015D03*
Y-250984D03*
Y-225393D03*
Y-227362D03*
Y-229330D03*
Y-231299D03*
Y-233267D03*
Y-235236D03*
Y-237204D03*
Y-221456D03*
Y-223425D03*
Y-128937D03*
Y-130905D03*
Y-132874D03*
Y-115157D03*
Y-117126D03*
Y-119094D03*
Y-121063D03*
Y-123031D03*
Y-125000D03*
Y-126968D03*
Y-103346D03*
Y-105315D03*
Y-107283D03*
Y-109252D03*
Y-111220D03*
Y-113189D03*
Y-4921D03*
Y-6890D03*
Y-8858D03*
Y-10827D03*
Y-12795D03*
Y-14764D03*
Y8858D03*
Y6890D03*
Y4921D03*
Y2953D03*
Y984D03*
Y-984D03*
Y-2953D03*
Y14764D03*
Y12795D03*
Y10827D03*
X804036Y-369095D03*
Y-367126D03*
Y-365158D03*
Y-363189D03*
Y-361221D03*
Y-359252D03*
Y-357284D03*
Y-355315D03*
Y-353347D03*
Y-351378D03*
Y-349410D03*
Y-347441D03*
Y-345473D03*
Y-343504D03*
Y-341536D03*
Y-339567D03*
Y-250984D03*
Y-249015D03*
Y-247047D03*
Y-245078D03*
Y-243110D03*
Y-241141D03*
Y-239173D03*
Y-237204D03*
Y-235236D03*
Y-233267D03*
Y-231299D03*
Y-229330D03*
Y-227362D03*
Y-225393D03*
Y-223425D03*
Y-221456D03*
Y-132874D03*
Y-130905D03*
Y-128937D03*
Y-126968D03*
Y-125000D03*
Y-123031D03*
Y-121063D03*
Y-119094D03*
Y-117126D03*
Y-115157D03*
Y-113189D03*
Y-111220D03*
Y-109252D03*
Y-107283D03*
Y-105315D03*
Y-103346D03*
Y-14764D03*
Y-12795D03*
Y-10827D03*
Y-8858D03*
Y-6890D03*
Y-4921D03*
Y-2953D03*
Y-984D03*
Y984D03*
Y2953D03*
Y4921D03*
Y6890D03*
Y8858D03*
Y10827D03*
Y12795D03*
Y14764D03*
X849508Y-363189D03*
Y-365158D03*
Y-367126D03*
Y-369095D03*
Y-349410D03*
Y-351378D03*
Y-353347D03*
Y-355315D03*
Y-357284D03*
Y-359252D03*
Y-361221D03*
Y-339567D03*
Y-341536D03*
Y-343504D03*
Y-345473D03*
Y-347441D03*
Y-239173D03*
Y-241141D03*
Y-243110D03*
Y-245078D03*
Y-247047D03*
Y-249015D03*
Y-250984D03*
Y-225393D03*
Y-227362D03*
Y-229330D03*
Y-231299D03*
Y-233267D03*
Y-235236D03*
Y-237204D03*
Y-221456D03*
Y-223425D03*
Y-128937D03*
Y-130905D03*
Y-132874D03*
Y-115157D03*
Y-117126D03*
Y-119094D03*
Y-121063D03*
Y-123031D03*
Y-125000D03*
Y-126968D03*
Y-103346D03*
Y-105315D03*
Y-107283D03*
Y-109252D03*
Y-111220D03*
Y-113189D03*
Y-4921D03*
Y-6890D03*
Y-8858D03*
Y-10827D03*
Y-12795D03*
Y-14764D03*
Y8858D03*
Y6890D03*
Y4921D03*
Y2953D03*
Y984D03*
Y-984D03*
Y-2953D03*
Y14764D03*
Y12795D03*
Y10827D03*
G54D25*
X-274000Y-406224D03*
Y-384176D03*
Y-319524D03*
Y-297476D03*
Y-242524D03*
Y-220476D03*
Y-152324D03*
Y-130276D03*
G54D16*
X-402812Y-390017D03*
Y-377115D03*
Y-304602D03*
Y-291700D03*
Y-224017D03*
Y-211115D03*
Y-135817D03*
Y-122915D03*
G54D35*
X0Y-354331D03*
Y-236220D03*
Y-118110D03*
Y0D03*
X118110Y-354331D03*
Y-236220D03*
Y-118110D03*
Y0D03*
X236220Y-354331D03*
Y-236220D03*
Y-118110D03*
Y0D03*
X354331Y-354331D03*
Y-236220D03*
Y-118110D03*
Y0D03*
X472441Y-354331D03*
Y-236220D03*
Y-118110D03*
Y0D03*
X590551Y-354331D03*
Y-236220D03*
Y-118110D03*
Y0D03*
X708661Y-354331D03*
Y-236220D03*
Y-118110D03*
Y0D03*
X826772Y-354331D03*
Y-236220D03*
Y-118110D03*
Y0D03*
G54D26*
X-269690Y-450630D03*
Y-366130D03*
X-267890Y-196930D03*
X-257090Y-450630D03*
Y-366130D03*
X-255290Y-196930D03*
X-187210Y-298570D03*
Y-130070D03*
X-174610Y-298570D03*
Y-130070D03*
G54D17*
X-387398Y-437436D03*
Y-431936D03*
Y-426436D03*
Y-420936D03*
Y-396436D03*
Y-390936D03*
Y-385436D03*
Y-379936D03*
X-387498Y-351936D03*
Y-346436D03*
Y-340936D03*
Y-335436D03*
Y-310936D03*
Y-305436D03*
Y-299936D03*
Y-294436D03*
X-387398Y-271436D03*
Y-265936D03*
Y-260436D03*
Y-254936D03*
Y-230436D03*
Y-224936D03*
Y-219436D03*
Y-213936D03*
Y-183236D03*
Y-177736D03*
Y-172236D03*
Y-166736D03*
Y-142236D03*
Y-136736D03*
Y-131236D03*
Y-125736D03*
X-363300Y-437436D03*
Y-431936D03*
Y-426436D03*
Y-420936D03*
Y-396436D03*
Y-390936D03*
Y-385436D03*
Y-379936D03*
X-363400Y-351936D03*
Y-346436D03*
Y-340936D03*
Y-335436D03*
Y-310936D03*
Y-305436D03*
Y-299936D03*
Y-294436D03*
X-363300Y-271436D03*
Y-265936D03*
Y-260436D03*
Y-254936D03*
Y-230436D03*
Y-224936D03*
Y-219436D03*
Y-213936D03*
Y-183236D03*
Y-177736D03*
Y-172236D03*
Y-166736D03*
Y-142236D03*
Y-136736D03*
Y-131236D03*
Y-125736D03*
G54D36*
X169600Y-377431D03*
Y-357931D03*
Y-244320D03*
Y-224820D03*
Y-126210D03*
Y-106710D03*
Y-8100D03*
Y11400D03*
X188600Y-377431D03*
Y-357931D03*
Y-244320D03*
Y-224820D03*
Y-126210D03*
Y-106710D03*
Y-8100D03*
Y11400D03*
X641500Y-377431D03*
Y-357931D03*
Y-244320D03*
Y-224820D03*
Y-126210D03*
Y-106710D03*
Y-8100D03*
Y11400D03*
X660500Y-377431D03*
Y-357931D03*
Y-244320D03*
Y-224820D03*
Y-126210D03*
Y-106710D03*
Y-8100D03*
Y11400D03*
G54D27*
X-265360Y-8700D03*
Y-6730D03*
Y-4770D03*
Y-2800D03*
Y-830D03*
Y1140D03*
Y3110D03*
Y5080D03*
Y7050D03*
Y9010D03*
Y10980D03*
Y12950D03*
Y14920D03*
Y16890D03*
Y18860D03*
Y20830D03*
Y22790D03*
Y24760D03*
Y26730D03*
Y28700D03*
Y30670D03*
Y32640D03*
Y34610D03*
Y36570D03*
Y38540D03*
X-204360Y-4770D03*
Y-6730D03*
Y-8700D03*
Y9010D03*
Y7050D03*
Y5080D03*
Y3110D03*
Y1140D03*
Y-830D03*
Y-2800D03*
Y22790D03*
Y20830D03*
Y18860D03*
Y16890D03*
Y14920D03*
Y12950D03*
Y10980D03*
Y36570D03*
Y34610D03*
Y32640D03*
Y30670D03*
Y28700D03*
Y26730D03*
Y24760D03*
Y38540D03*
G54D18*
X-365590Y3886D03*
X-352590D03*
G54D37*
G01X1743845Y-1023076D02*
X1493845D01*
G01X1743845Y-993076D02*
X1493845D01*
G01X1743845Y-963076D02*
X1493845D01*
G01X1656845Y-933076D02*
Y-1183076D01*
G54D19*
X-344171Y-394821D03*
X-344271Y-309321D03*
X-344171Y-228821D03*
Y-140621D03*
X-307163Y-394821D03*
X-307263Y-309321D03*
X-307163Y-228821D03*
Y-140621D03*
G54D28*
X-248640Y-15580D03*
X-250610D03*
X-252580D03*
X-254550D03*
X-256510D03*
X-258480D03*
Y45420D03*
X-256510D03*
X-254550D03*
X-252580D03*
X-250610D03*
X-248640D03*
X-234860Y-15580D03*
X-236830D03*
X-238800D03*
X-240770D03*
X-242730D03*
X-244700D03*
X-246670D03*
Y45420D03*
X-244700D03*
X-242730D03*
X-240770D03*
X-238800D03*
X-236830D03*
X-234860D03*
X-221080Y-15580D03*
X-223050D03*
X-225020D03*
X-226990D03*
X-228950D03*
X-230920D03*
X-232890D03*
Y45420D03*
X-230920D03*
X-228950D03*
X-226990D03*
X-225020D03*
X-223050D03*
X-221080D03*
X-211240Y-15580D03*
X-213210D03*
X-215170D03*
X-217140D03*
X-219110D03*
Y45420D03*
X-217140D03*
X-215170D03*
X-213210D03*
X-211240D03*
G54D38*
G01X1223845Y-1183076D02*
Y-933076D01*
X2253845D01*
G01X1493845Y-1183076D02*
Y-933076D01*
G01X1743845D02*
Y-1183076D01*
G01X2253845Y-1003076D02*
X1743845D01*
G54D29*
X-222800Y-450873D03*
Y-422527D03*
Y-365173D03*
Y-336827D03*
X-221000Y-197173D03*
Y-168827D03*
G54D39*
G01X1425845Y-1009076D02*
X1235845D01*
M02*
