G04 ================== begin FILE IDENTIFICATION RECORD ==================*
G04 Layout Name:  F:/hash_board-20131009/board/hash_BRD-20131009.BRD*
G04 Film Name:    PASTMASK_BOT*
G04 File Format:  Gerber RS274X*
G04 File Origin:  Cadence Allegro 16.6-S014*
G04 Origin Date:  Thu Oct 10 07:58:56 2013*
G04 *
G04 Layer:  VIA CLASS/PASTEMASK_BOTTOM*
G04 Layer:  PIN/PASTEMASK_BOTTOM*
G04 Layer:  MANUFACTURING/PHOTOPLOT_OUTLINE*
G04 Layer:  DRAWING FORMAT/OUTLINE*
G04 Layer:  DRAWING FORMAT/TITLE_BLOCK*
G04 Layer:  DRAWING FORMAT/TITLE_DATA*
G04 Layer:  BOARD GEOMETRY/OUTLINE*
G04 *
G04 Offset:    (0.00 0.00)*
G04 Mirror:    No*
G04 Mode:      Positive*
G04 Rotation:  0*
G04 FullContactRelief:  No*
G04 UndefLineWidth:     0.00*
G04 ================== end FILE IDENTIFICATION RECORD ====================*
%FSLAX55Y55*MOIN*%
%IR0*IPPOS*OFA0.00000B0.00000*MIA0B0*SFA1.00000B1.00000*%
%ADD10C,.04*%
%ADD11C,.015*%
%ADD12C,.025*%
%ADD13C,.001*%
%ADD14C,.006*%
G75*
%LPD*%
G75*
G54D10*
X-443294Y-429074D03*
X-394094Y63926D03*
X-197994Y68426D03*
X343206Y-429074D03*
X343200Y63900D03*
X856006Y-429074D03*
Y63926D03*
G54D11*
G01X1743845Y-1023076D02*
X1493845D01*
G01X1743845Y-993076D02*
X1493845D01*
G01X1743845Y-963076D02*
X1493845D01*
G01X1656845Y-933076D02*
Y-1183076D01*
G54D12*
G01X1223845D02*
Y-933076D01*
X2253845D01*
G01X1493845Y-1183076D02*
Y-933076D01*
G01X1743845D02*
Y-1183076D01*
G01X2253845Y-1003076D02*
X1743845D01*
G54D13*
G01X1425845Y-1009076D02*
X1235845D01*
G54D14*
G01X-471200Y75800D02*
Y85200D01*
X906700D01*
Y-473600D01*
X-471200D01*
Y85300D01*
X-453700D01*
G01X-471284Y-111524D02*
Y85296D01*
G01X1241765Y-1042196D02*
X1242455Y-1043293D01*
X1243375Y-1043919D01*
X1244410Y-1044076D01*
X1245330Y-1043919D01*
X1246250Y-1043136D01*
X1246825Y-1042196D01*
X1246940Y-1041256D01*
X1246710Y-1040160D01*
X1245905Y-1039376D01*
X1245100Y-1039063D01*
X1244065D01*
G01X1245100D02*
X1245790Y-1038593D01*
X1246365Y-1037810D01*
X1246595Y-1036869D01*
X1246365Y-1035929D01*
X1245790Y-1035146D01*
X1244755Y-1034676D01*
X1243720Y-1034833D01*
X1242685Y-1035459D01*
G01X1253495Y-1044389D02*
X1253265Y-1044233D01*
Y-1043919D01*
X1253495Y-1043763D01*
X1253725Y-1043919D01*
Y-1044233D01*
X1253495Y-1044389D01*
G01X1269365Y-1044076D02*
Y-1034676D01*
X1271665D01*
X1272585Y-1035146D01*
X1273275Y-1035773D01*
X1273850Y-1036713D01*
X1274310Y-1037810D01*
X1274425Y-1039376D01*
X1274310Y-1040943D01*
X1273850Y-1042039D01*
X1273275Y-1042980D01*
X1272585Y-1043606D01*
X1271665Y-1044076D01*
X1269365D01*
G01X1281095D02*
X1280175Y-1043919D01*
X1279370Y-1043293D01*
X1278680Y-1042353D01*
X1278220Y-1041256D01*
X1277990Y-1040003D01*
Y-1038749D01*
X1278220Y-1037496D01*
X1278680Y-1036399D01*
X1279370Y-1035459D01*
X1280175Y-1034833D01*
X1281095Y-1034676D01*
X1282015Y-1034833D01*
X1282820Y-1035459D01*
X1283510Y-1036399D01*
X1283970Y-1037496D01*
X1284200Y-1038749D01*
Y-1040003D01*
X1283970Y-1041256D01*
X1283510Y-1042353D01*
X1282820Y-1043293D01*
X1282015Y-1043919D01*
X1281095Y-1044076D01*
G01X1296850D02*
Y-1034676D01*
X1302140Y-1044076D01*
Y-1034676D01*
G01X1308695Y-1044076D02*
X1307775Y-1043919D01*
X1306970Y-1043293D01*
X1306280Y-1042353D01*
X1305820Y-1041256D01*
X1305590Y-1040003D01*
Y-1038749D01*
X1305820Y-1037496D01*
X1306280Y-1036399D01*
X1306970Y-1035459D01*
X1307775Y-1034833D01*
X1308695Y-1034676D01*
X1309615Y-1034833D01*
X1310420Y-1035459D01*
X1311110Y-1036399D01*
X1311570Y-1037496D01*
X1311800Y-1038749D01*
Y-1040003D01*
X1311570Y-1041256D01*
X1311110Y-1042353D01*
X1310420Y-1043293D01*
X1309615Y-1043919D01*
X1308695Y-1044076D01*
G01X1317895Y-1034676D02*
Y-1044076D01*
G01X1315250Y-1034676D02*
X1320540D01*
G01X1333880Y-1042823D02*
X1334800Y-1043606D01*
X1335835Y-1044076D01*
X1336755D01*
X1337675Y-1043606D01*
X1338365Y-1042823D01*
X1338710Y-1041726D01*
X1338480Y-1040629D01*
X1337905Y-1039689D01*
X1336870Y-1039063D01*
X1335490Y-1038749D01*
X1334685Y-1038123D01*
X1334340Y-1037026D01*
X1334570Y-1035929D01*
X1335145Y-1035146D01*
X1335950Y-1034676D01*
X1336755D01*
X1337560Y-1034989D01*
X1338250Y-1035773D01*
G01X1348025Y-1035459D02*
X1347335Y-1034989D01*
X1346530Y-1034676D01*
X1345610D01*
X1344575Y-1035146D01*
X1343770Y-1035929D01*
X1343195Y-1036869D01*
X1342735Y-1038436D01*
X1342620Y-1039846D01*
X1342850Y-1041256D01*
X1343195Y-1042196D01*
X1343885Y-1043136D01*
X1344690Y-1043763D01*
X1345495Y-1044076D01*
X1346300D01*
X1347105Y-1043763D01*
X1347795Y-1043293D01*
X1348370Y-1042666D01*
G01X1351820Y-1044076D02*
X1354695Y-1034676D01*
X1357570Y-1044076D01*
G01X1356535Y-1040786D02*
X1352855D01*
G01X1361595Y-1034676D02*
Y-1044076D01*
X1366195D01*
G01X1375395D02*
X1370795D01*
Y-1034676D01*
X1375395D01*
G01X1373555Y-1039219D02*
X1370795D01*
G01X1388965Y-1044076D02*
Y-1034676D01*
X1391265D01*
X1392185Y-1035146D01*
X1392875Y-1035773D01*
X1393450Y-1036713D01*
X1393910Y-1037810D01*
X1394025Y-1039376D01*
X1393910Y-1040943D01*
X1393450Y-1042039D01*
X1392875Y-1042980D01*
X1392185Y-1043606D01*
X1391265Y-1044076D01*
X1388965D01*
G01X1398395D02*
Y-1034676D01*
X1401270D01*
X1402190Y-1035146D01*
X1402765Y-1035773D01*
X1402995Y-1037026D01*
X1402765Y-1038279D01*
X1402075Y-1039063D01*
X1401270Y-1039533D01*
X1398395D01*
G01X1401270D02*
X1402995Y-1044076D01*
G01X1407020D02*
X1409895Y-1034676D01*
X1412770Y-1044076D01*
G01X1411735Y-1040786D02*
X1408055D01*
G01X1415645Y-1034676D02*
X1417255Y-1044076D01*
X1419095Y-1034676D01*
X1420935Y-1044076D01*
X1422545Y-1034676D01*
G01X1426915D02*
X1429675D01*
G01X1428295D02*
Y-1044076D01*
G01X1426915D02*
X1429675D01*
G01X1434850D02*
Y-1034676D01*
X1440140Y-1044076D01*
Y-1034676D01*
G01X1447385Y-1039376D02*
X1449685D01*
Y-1042196D01*
X1448995Y-1043136D01*
X1448190Y-1043763D01*
X1447040Y-1044076D01*
X1445890Y-1043763D01*
X1445085Y-1043136D01*
X1444395Y-1042196D01*
X1443935Y-1041099D01*
X1443705Y-1039846D01*
Y-1038749D01*
X1443935Y-1037810D01*
X1444395Y-1036713D01*
X1445085Y-1035773D01*
X1445775Y-1035146D01*
X1446695Y-1034676D01*
X1447500D01*
X1448420Y-1034989D01*
X1449110Y-1035616D01*
G01X1242110Y-1006243D02*
X1242800Y-1005303D01*
X1243605Y-1004833D01*
X1244525Y-1004676D01*
X1245675Y-1004989D01*
X1246480Y-1005773D01*
X1246710Y-1006713D01*
X1246595Y-1007653D01*
X1246135Y-1008436D01*
X1243835Y-1010003D01*
X1242800Y-1011099D01*
X1242110Y-1012666D01*
X1241880Y-1014076D01*
X1246710D01*
G01X1253495Y-1014389D02*
X1253265Y-1014233D01*
Y-1013919D01*
X1253495Y-1013763D01*
X1253725Y-1013919D01*
Y-1014233D01*
X1253495Y-1014389D01*
G01X1272815Y-1009063D02*
X1273275Y-1008593D01*
X1273620Y-1007810D01*
X1273850Y-1006713D01*
X1273620Y-1005773D01*
X1273160Y-1005146D01*
X1272355Y-1004676D01*
X1269250D01*
Y-1014076D01*
X1273045D01*
X1273850Y-1013449D01*
X1274310Y-1012509D01*
X1274540Y-1011413D01*
X1274310Y-1010316D01*
X1273620Y-1009376D01*
X1272815Y-1009063D01*
X1269250D01*
G01X1278795Y-1014076D02*
Y-1004676D01*
X1281670D01*
X1282590Y-1005146D01*
X1283165Y-1005773D01*
X1283395Y-1007026D01*
X1283165Y-1008279D01*
X1282475Y-1009063D01*
X1281670Y-1009533D01*
X1278795D01*
G01X1281670D02*
X1283395Y-1014076D01*
G01X1292595D02*
X1287995D01*
Y-1004676D01*
X1292595D01*
G01X1290755Y-1009219D02*
X1287995D01*
G01X1296620Y-1014076D02*
X1299495Y-1004676D01*
X1302370Y-1014076D01*
G01X1301335Y-1010786D02*
X1297655D01*
G01X1306165Y-1014076D02*
Y-1004676D01*
G01X1310535D02*
X1306165Y-1010473D01*
G01X1311225Y-1014076D02*
X1308120Y-1007810D01*
G01X1324220Y-1014076D02*
X1327095Y-1004676D01*
X1329970Y-1014076D01*
G01X1328935Y-1010786D02*
X1325255D01*
G01X1333995Y-1004676D02*
Y-1014076D01*
X1338595D01*
G01X1343195Y-1004676D02*
Y-1014076D01*
X1347795D01*
G01X1361480Y-1012823D02*
X1362400Y-1013606D01*
X1363435Y-1014076D01*
X1364355D01*
X1365275Y-1013606D01*
X1365965Y-1012823D01*
X1366310Y-1011726D01*
X1366080Y-1010629D01*
X1365505Y-1009689D01*
X1364470Y-1009063D01*
X1363090Y-1008749D01*
X1362285Y-1008123D01*
X1361940Y-1007026D01*
X1362170Y-1005929D01*
X1362745Y-1005146D01*
X1363550Y-1004676D01*
X1364355D01*
X1365160Y-1004989D01*
X1365850Y-1005773D01*
G01X1370680Y-1014076D02*
Y-1004676D01*
G01X1375510D02*
Y-1014076D01*
G01Y-1009376D02*
X1370680D01*
G01X1379420Y-1014076D02*
X1382295Y-1004676D01*
X1385170Y-1014076D01*
G01X1384135Y-1010786D02*
X1380455D01*
G01X1389195Y-1014076D02*
Y-1004676D01*
X1392070D01*
X1392990Y-1005146D01*
X1393565Y-1005773D01*
X1393795Y-1007026D01*
X1393565Y-1008279D01*
X1392875Y-1009063D01*
X1392070Y-1009533D01*
X1389195D01*
G01X1392070D02*
X1393795Y-1014076D01*
G01X1398395D02*
Y-1004676D01*
X1401155D01*
X1402075Y-1005146D01*
X1402765Y-1006243D01*
X1402995Y-1007496D01*
X1402765Y-1008749D01*
X1402190Y-1009689D01*
X1401155Y-1010160D01*
X1398395D01*
G01X1421395Y-1014076D02*
X1416795D01*
Y-1004676D01*
X1421395D01*
G01X1419555Y-1009219D02*
X1416795D01*
G01X1425765Y-1014076D02*
Y-1004676D01*
X1428065D01*
X1428985Y-1005146D01*
X1429675Y-1005773D01*
X1430250Y-1006713D01*
X1430710Y-1007810D01*
X1430825Y-1009376D01*
X1430710Y-1010943D01*
X1430250Y-1012039D01*
X1429675Y-1012980D01*
X1428985Y-1013606D01*
X1428065Y-1014076D01*
X1425765D01*
G01X1438185Y-1009376D02*
X1440485D01*
Y-1012196D01*
X1439795Y-1013136D01*
X1438990Y-1013763D01*
X1437840Y-1014076D01*
X1436690Y-1013763D01*
X1435885Y-1013136D01*
X1435195Y-1012196D01*
X1434735Y-1011099D01*
X1434505Y-1009846D01*
Y-1008749D01*
X1434735Y-1007810D01*
X1435195Y-1006713D01*
X1435885Y-1005773D01*
X1436575Y-1005146D01*
X1437495Y-1004676D01*
X1438300D01*
X1439220Y-1004989D01*
X1439910Y-1005616D01*
G01X1448995Y-1014076D02*
X1444395D01*
Y-1004676D01*
X1448995D01*
G01X1447155Y-1009219D02*
X1444395D01*
G01X1453480Y-1012823D02*
X1454400Y-1013606D01*
X1455435Y-1014076D01*
X1456355D01*
X1457275Y-1013606D01*
X1457965Y-1012823D01*
X1458310Y-1011726D01*
X1458080Y-1010629D01*
X1457505Y-1009689D01*
X1456470Y-1009063D01*
X1455090Y-1008749D01*
X1454285Y-1008123D01*
X1453940Y-1007026D01*
X1454170Y-1005929D01*
X1454745Y-1005146D01*
X1455550Y-1004676D01*
X1456355D01*
X1457160Y-1004989D01*
X1457850Y-1005773D01*
G01X1244295Y-984076D02*
Y-974676D01*
X1242915Y-976556D01*
G01Y-984076D02*
X1245675D01*
G01X1253495Y-984389D02*
X1253265Y-984233D01*
Y-983919D01*
X1253495Y-983763D01*
X1253725Y-983919D01*
Y-984233D01*
X1253495Y-984389D01*
G01X1269365Y-984076D02*
Y-974676D01*
X1271665D01*
X1272585Y-975146D01*
X1273275Y-975773D01*
X1273850Y-976713D01*
X1274310Y-977810D01*
X1274425Y-979376D01*
X1274310Y-980943D01*
X1273850Y-982039D01*
X1273275Y-982980D01*
X1272585Y-983606D01*
X1271665Y-984076D01*
X1269365D01*
G01X1279715Y-974676D02*
X1282475D01*
G01X1281095D02*
Y-984076D01*
G01X1279715D02*
X1282475D01*
G01X1287305D02*
Y-974676D01*
X1290295Y-982509D01*
X1293285Y-974676D01*
Y-984076D01*
G01X1301795D02*
X1297195D01*
Y-974676D01*
X1301795D01*
G01X1299955Y-979219D02*
X1297195D01*
G01X1306050Y-984076D02*
Y-974676D01*
X1311340Y-984076D01*
Y-974676D01*
G01X1315480Y-982823D02*
X1316400Y-983606D01*
X1317435Y-984076D01*
X1318355D01*
X1319275Y-983606D01*
X1319965Y-982823D01*
X1320310Y-981726D01*
X1320080Y-980629D01*
X1319505Y-979689D01*
X1318470Y-979063D01*
X1317090Y-978749D01*
X1316285Y-978123D01*
X1315940Y-977026D01*
X1316170Y-975929D01*
X1316745Y-975146D01*
X1317550Y-974676D01*
X1318355D01*
X1319160Y-974989D01*
X1319850Y-975773D01*
G01X1325715Y-974676D02*
X1328475D01*
G01X1327095D02*
Y-984076D01*
G01X1325715D02*
X1328475D01*
G01X1336295D02*
X1335375Y-983919D01*
X1334570Y-983293D01*
X1333880Y-982353D01*
X1333420Y-981256D01*
X1333190Y-980003D01*
Y-978749D01*
X1333420Y-977496D01*
X1333880Y-976399D01*
X1334570Y-975459D01*
X1335375Y-974833D01*
X1336295Y-974676D01*
X1337215Y-974833D01*
X1338020Y-975459D01*
X1338710Y-976399D01*
X1339170Y-977496D01*
X1339400Y-978749D01*
Y-980003D01*
X1339170Y-981256D01*
X1338710Y-982353D01*
X1338020Y-983293D01*
X1337215Y-983919D01*
X1336295Y-984076D01*
G01X1342850D02*
Y-974676D01*
X1348140Y-984076D01*
Y-974676D01*
G01X1352280Y-982823D02*
X1353200Y-983606D01*
X1354235Y-984076D01*
X1355155D01*
X1356075Y-983606D01*
X1356765Y-982823D01*
X1357110Y-981726D01*
X1356880Y-980629D01*
X1356305Y-979689D01*
X1355270Y-979063D01*
X1353890Y-978749D01*
X1353085Y-978123D01*
X1352740Y-977026D01*
X1352970Y-975929D01*
X1353545Y-975146D01*
X1354350Y-974676D01*
X1355155D01*
X1355960Y-974989D01*
X1356650Y-975773D01*
G01X1370220Y-984076D02*
X1373095Y-974676D01*
X1375970Y-984076D01*
G01X1374935Y-980786D02*
X1371255D01*
G01X1379995Y-984076D02*
Y-974676D01*
X1382870D01*
X1383790Y-975146D01*
X1384365Y-975773D01*
X1384595Y-977026D01*
X1384365Y-978279D01*
X1383675Y-979063D01*
X1382870Y-979533D01*
X1379995D01*
G01X1382870D02*
X1384595Y-984076D01*
G01X1393795D02*
X1389195D01*
Y-974676D01*
X1393795D01*
G01X1391955Y-979219D02*
X1389195D01*
G01X1408515Y-974676D02*
X1411275D01*
G01X1409895D02*
Y-984076D01*
G01X1408515D02*
X1411275D01*
G01X1416450D02*
Y-974676D01*
X1421740Y-984076D01*
Y-974676D01*
G01X1436115D02*
X1438875D01*
G01X1437495D02*
Y-984076D01*
G01X1436115D02*
X1438875D01*
G01X1444050D02*
Y-974676D01*
X1449340Y-984076D01*
Y-974676D01*
G01X1458425Y-975459D02*
X1457735Y-974989D01*
X1456930Y-974676D01*
X1456010D01*
X1454975Y-975146D01*
X1454170Y-975929D01*
X1453595Y-976869D01*
X1453135Y-978436D01*
X1453020Y-979846D01*
X1453250Y-981256D01*
X1453595Y-982196D01*
X1454285Y-983136D01*
X1455090Y-983763D01*
X1455895Y-984076D01*
X1456700D01*
X1457505Y-983763D01*
X1458195Y-983293D01*
X1458770Y-982666D01*
G01X1462680Y-984076D02*
Y-974676D01*
G01X1467510D02*
Y-984076D01*
G01Y-979376D02*
X1462680D01*
G01X1476595Y-984076D02*
X1471995D01*
Y-974676D01*
X1476595D01*
G01X1474755Y-979219D02*
X1471995D01*
G01X1481080Y-982823D02*
X1482000Y-983606D01*
X1483035Y-984076D01*
X1483955D01*
X1484875Y-983606D01*
X1485565Y-982823D01*
X1485910Y-981726D01*
X1485680Y-980629D01*
X1485105Y-979689D01*
X1484070Y-979063D01*
X1482690Y-978749D01*
X1481885Y-978123D01*
X1481540Y-977026D01*
X1481770Y-975929D01*
X1482345Y-975146D01*
X1483150Y-974676D01*
X1483955D01*
X1484760Y-974989D01*
X1485450Y-975773D01*
G01X1241765Y-944676D02*
Y-951413D01*
X1242225Y-952823D01*
X1243145Y-953763D01*
X1244295Y-954076D01*
X1245445Y-953763D01*
X1246365Y-952823D01*
X1246825Y-951413D01*
Y-944676D01*
G01X1250850Y-954076D02*
Y-944676D01*
X1256140Y-954076D01*
Y-944676D01*
G01X1260395D02*
Y-954076D01*
X1264995D01*
G01X1274195D02*
X1269595D01*
Y-944676D01*
X1274195D01*
G01X1272355Y-949219D02*
X1269595D01*
G01X1278680Y-952823D02*
X1279600Y-953606D01*
X1280635Y-954076D01*
X1281555D01*
X1282475Y-953606D01*
X1283165Y-952823D01*
X1283510Y-951726D01*
X1283280Y-950629D01*
X1282705Y-949689D01*
X1281670Y-949063D01*
X1280290Y-948749D01*
X1279485Y-948123D01*
X1279140Y-947026D01*
X1279370Y-945929D01*
X1279945Y-945146D01*
X1280750Y-944676D01*
X1281555D01*
X1282360Y-944989D01*
X1283050Y-945773D01*
G01X1287880Y-952823D02*
X1288800Y-953606D01*
X1289835Y-954076D01*
X1290755D01*
X1291675Y-953606D01*
X1292365Y-952823D01*
X1292710Y-951726D01*
X1292480Y-950629D01*
X1291905Y-949689D01*
X1290870Y-949063D01*
X1289490Y-948749D01*
X1288685Y-948123D01*
X1288340Y-947026D01*
X1288570Y-945929D01*
X1289145Y-945146D01*
X1289950Y-944676D01*
X1290755D01*
X1291560Y-944989D01*
X1292250Y-945773D01*
G01X1308695Y-954076D02*
X1307775Y-953919D01*
X1306970Y-953293D01*
X1306280Y-952353D01*
X1305820Y-951256D01*
X1305590Y-950003D01*
Y-948749D01*
X1305820Y-947496D01*
X1306280Y-946399D01*
X1306970Y-945459D01*
X1307775Y-944833D01*
X1308695Y-944676D01*
X1309615Y-944833D01*
X1310420Y-945459D01*
X1311110Y-946399D01*
X1311570Y-947496D01*
X1311800Y-948749D01*
Y-950003D01*
X1311570Y-951256D01*
X1311110Y-952353D01*
X1310420Y-953293D01*
X1309615Y-953919D01*
X1308695Y-954076D01*
G01X1317895Y-944676D02*
Y-954076D01*
G01X1315250Y-944676D02*
X1320540D01*
G01X1324680Y-954076D02*
Y-944676D01*
G01X1329510D02*
Y-954076D01*
G01Y-949376D02*
X1324680D01*
G01X1338595Y-954076D02*
X1333995D01*
Y-944676D01*
X1338595D01*
G01X1336755Y-949219D02*
X1333995D01*
G01X1343195Y-954076D02*
Y-944676D01*
X1346070D01*
X1346990Y-945146D01*
X1347565Y-945773D01*
X1347795Y-947026D01*
X1347565Y-948279D01*
X1346875Y-949063D01*
X1346070Y-949533D01*
X1343195D01*
G01X1346070D02*
X1347795Y-954076D01*
G01X1351245Y-944676D02*
X1352855Y-954076D01*
X1354695Y-944676D01*
X1356535Y-954076D01*
X1358145Y-944676D01*
G01X1362515D02*
X1365275D01*
G01X1363895D02*
Y-954076D01*
G01X1362515D02*
X1365275D01*
G01X1370680Y-952823D02*
X1371600Y-953606D01*
X1372635Y-954076D01*
X1373555D01*
X1374475Y-953606D01*
X1375165Y-952823D01*
X1375510Y-951726D01*
X1375280Y-950629D01*
X1374705Y-949689D01*
X1373670Y-949063D01*
X1372290Y-948749D01*
X1371485Y-948123D01*
X1371140Y-947026D01*
X1371370Y-945929D01*
X1371945Y-945146D01*
X1372750Y-944676D01*
X1373555D01*
X1374360Y-944989D01*
X1375050Y-945773D01*
G01X1384595Y-954076D02*
X1379995D01*
Y-944676D01*
X1384595D01*
G01X1382755Y-949219D02*
X1379995D01*
G01X1398280Y-952823D02*
X1399200Y-953606D01*
X1400235Y-954076D01*
X1401155D01*
X1402075Y-953606D01*
X1402765Y-952823D01*
X1403110Y-951726D01*
X1402880Y-950629D01*
X1402305Y-949689D01*
X1401270Y-949063D01*
X1399890Y-948749D01*
X1399085Y-948123D01*
X1398740Y-947026D01*
X1398970Y-945929D01*
X1399545Y-945146D01*
X1400350Y-944676D01*
X1401155D01*
X1401960Y-944989D01*
X1402650Y-945773D01*
G01X1407595Y-954076D02*
Y-944676D01*
X1410355D01*
X1411275Y-945146D01*
X1411965Y-946243D01*
X1412195Y-947496D01*
X1411965Y-948749D01*
X1411390Y-949689D01*
X1410355Y-950160D01*
X1407595D01*
G01X1421395Y-954076D02*
X1416795D01*
Y-944676D01*
X1421395D01*
G01X1419555Y-949219D02*
X1416795D01*
G01X1430825Y-945459D02*
X1430135Y-944989D01*
X1429330Y-944676D01*
X1428410D01*
X1427375Y-945146D01*
X1426570Y-945929D01*
X1425995Y-946869D01*
X1425535Y-948436D01*
X1425420Y-949846D01*
X1425650Y-951256D01*
X1425995Y-952196D01*
X1426685Y-953136D01*
X1427490Y-953763D01*
X1428295Y-954076D01*
X1429100D01*
X1429905Y-953763D01*
X1430595Y-953293D01*
X1431170Y-952666D01*
G01X1436115Y-944676D02*
X1438875D01*
G01X1437495D02*
Y-954076D01*
G01X1436115D02*
X1438875D01*
G01X1444510D02*
Y-944676D01*
X1448880D01*
G01X1447270Y-949219D02*
X1444510D01*
G01X1454515Y-944676D02*
X1457275D01*
G01X1455895D02*
Y-954076D01*
G01X1454515D02*
X1457275D01*
G01X1467395D02*
X1462795D01*
Y-944676D01*
X1467395D01*
G01X1465555Y-949219D02*
X1462795D01*
G01X1471765Y-954076D02*
Y-944676D01*
X1474065D01*
X1474985Y-945146D01*
X1475675Y-945773D01*
X1476250Y-946713D01*
X1476710Y-947810D01*
X1476825Y-949376D01*
X1476710Y-950943D01*
X1476250Y-952039D01*
X1475675Y-952980D01*
X1474985Y-953606D01*
X1474065Y-954076D01*
X1471765D01*
G01X1483495Y-954389D02*
X1483265Y-954233D01*
Y-953919D01*
X1483495Y-953763D01*
X1483725Y-953919D01*
Y-954233D01*
X1483495Y-954389D01*
G01Y-950160D02*
X1483265Y-950003D01*
Y-949689D01*
X1483495Y-949533D01*
X1483725Y-949689D01*
Y-950003D01*
X1483495Y-950160D01*
G01X1504595Y-1038076D02*
X1499995D01*
Y-1028676D01*
X1504595D01*
G01X1502755Y-1033219D02*
X1499995D01*
G01X1508850Y-1038076D02*
Y-1028676D01*
X1514140Y-1038076D01*
Y-1028676D01*
G01X1521385Y-1033376D02*
X1523685D01*
Y-1036196D01*
X1522995Y-1037136D01*
X1522190Y-1037763D01*
X1521040Y-1038076D01*
X1519890Y-1037763D01*
X1519085Y-1037136D01*
X1518395Y-1036196D01*
X1517935Y-1035099D01*
X1517705Y-1033846D01*
Y-1032749D01*
X1517935Y-1031810D01*
X1518395Y-1030713D01*
X1519085Y-1029773D01*
X1519775Y-1029146D01*
X1520695Y-1028676D01*
X1521500D01*
X1522420Y-1028989D01*
X1523110Y-1029616D01*
G01X1527595Y-1038076D02*
Y-1028676D01*
X1530470D01*
X1531390Y-1029146D01*
X1531965Y-1029773D01*
X1532195Y-1031026D01*
X1531965Y-1032279D01*
X1531275Y-1033063D01*
X1530470Y-1033533D01*
X1527595D01*
G01X1530470D02*
X1532195Y-1038076D01*
G01X1504825Y-1004459D02*
X1504135Y-1003989D01*
X1503330Y-1003676D01*
X1502410D01*
X1501375Y-1004146D01*
X1500570Y-1004929D01*
X1499995Y-1005869D01*
X1499535Y-1007436D01*
X1499420Y-1008846D01*
X1499650Y-1010256D01*
X1499995Y-1011196D01*
X1500685Y-1012136D01*
X1501490Y-1012763D01*
X1502295Y-1013076D01*
X1503100D01*
X1503905Y-1012763D01*
X1504595Y-1012293D01*
X1505170Y-1011666D01*
G01X1509080Y-1013076D02*
Y-1003676D01*
G01X1513910D02*
Y-1013076D01*
G01Y-1008376D02*
X1509080D01*
G01X1518165Y-1013076D02*
Y-1003676D01*
G01X1522535D02*
X1518165Y-1009473D01*
G01X1523225Y-1013076D02*
X1520120Y-1006810D01*
G01X1540015Y-1008063D02*
X1540475Y-1007593D01*
X1540820Y-1006810D01*
X1541050Y-1005713D01*
X1540820Y-1004773D01*
X1540360Y-1004146D01*
X1539555Y-1003676D01*
X1536450D01*
Y-1013076D01*
X1540245D01*
X1541050Y-1012449D01*
X1541510Y-1011509D01*
X1541740Y-1010413D01*
X1541510Y-1009316D01*
X1540820Y-1008376D01*
X1540015Y-1008063D01*
X1536450D01*
G01X1548295Y-1013076D02*
Y-1008846D01*
X1545995Y-1003676D01*
G01X1550595D02*
X1548295Y-1008846D01*
G01X1499765Y-983076D02*
Y-973676D01*
X1502065D01*
X1502985Y-974146D01*
X1503675Y-974773D01*
X1504250Y-975713D01*
X1504710Y-976810D01*
X1504825Y-978376D01*
X1504710Y-979943D01*
X1504250Y-981039D01*
X1503675Y-981980D01*
X1502985Y-982606D01*
X1502065Y-983076D01*
X1499765D01*
G01X1509195D02*
Y-973676D01*
X1512070D01*
X1512990Y-974146D01*
X1513565Y-974773D01*
X1513795Y-976026D01*
X1513565Y-977279D01*
X1512875Y-978063D01*
X1512070Y-978533D01*
X1509195D01*
G01X1512070D02*
X1513795Y-983076D01*
G01X1518050D02*
Y-973676D01*
X1523340Y-983076D01*
Y-973676D01*
G01X1540015Y-978063D02*
X1540475Y-977593D01*
X1540820Y-976810D01*
X1541050Y-975713D01*
X1540820Y-974773D01*
X1540360Y-974146D01*
X1539555Y-973676D01*
X1536450D01*
Y-983076D01*
X1540245D01*
X1541050Y-982449D01*
X1541510Y-981509D01*
X1541740Y-980413D01*
X1541510Y-979316D01*
X1540820Y-978376D01*
X1540015Y-978063D01*
X1536450D01*
G01X1548295Y-983076D02*
Y-978846D01*
X1545995Y-973676D01*
G01X1550595D02*
X1548295Y-978846D01*
G01X1554880Y-951823D02*
X1555800Y-952606D01*
X1556835Y-953076D01*
X1557755D01*
X1558675Y-952606D01*
X1559365Y-951823D01*
X1559710Y-950726D01*
X1559480Y-949629D01*
X1558905Y-948689D01*
X1557870Y-948063D01*
X1556490Y-947749D01*
X1555685Y-947123D01*
X1555340Y-946026D01*
X1555570Y-944929D01*
X1556145Y-944146D01*
X1556950Y-943676D01*
X1557755D01*
X1558560Y-943989D01*
X1559250Y-944773D01*
G01X1565115Y-943676D02*
X1567875D01*
G01X1566495D02*
Y-953076D01*
G01X1565115D02*
X1567875D01*
G01X1576385Y-948376D02*
X1578685D01*
Y-951196D01*
X1577995Y-952136D01*
X1577190Y-952763D01*
X1576040Y-953076D01*
X1574890Y-952763D01*
X1574085Y-952136D01*
X1573395Y-951196D01*
X1572935Y-950099D01*
X1572705Y-948846D01*
Y-947749D01*
X1572935Y-946810D01*
X1573395Y-945713D01*
X1574085Y-944773D01*
X1574775Y-944146D01*
X1575695Y-943676D01*
X1576500D01*
X1577420Y-943989D01*
X1578110Y-944616D01*
G01X1582250Y-953076D02*
Y-943676D01*
X1587540Y-953076D01*
Y-943676D01*
G01X1591220Y-953076D02*
X1594095Y-943676D01*
X1596970Y-953076D01*
G01X1595935Y-949786D02*
X1592255D01*
G01X1603295Y-943676D02*
Y-953076D01*
G01X1600650Y-943676D02*
X1605940D01*
G01X1609965D02*
Y-950413D01*
X1610425Y-951823D01*
X1611345Y-952763D01*
X1612495Y-953076D01*
X1613645Y-952763D01*
X1614565Y-951823D01*
X1615025Y-950413D01*
Y-943676D01*
G01X1619395Y-953076D02*
Y-943676D01*
X1622270D01*
X1623190Y-944146D01*
X1623765Y-944773D01*
X1623995Y-946026D01*
X1623765Y-947279D01*
X1623075Y-948063D01*
X1622270Y-948533D01*
X1619395D01*
G01X1622270D02*
X1623995Y-953076D01*
G01X1633195D02*
X1628595D01*
Y-943676D01*
X1633195D01*
G01X1631355Y-948219D02*
X1628595D01*
G01X1683265Y-952476D02*
Y-943076D01*
X1685565D01*
X1686485Y-943546D01*
X1687175Y-944173D01*
X1687750Y-945113D01*
X1688210Y-946210D01*
X1688325Y-947776D01*
X1688210Y-949343D01*
X1687750Y-950439D01*
X1687175Y-951380D01*
X1686485Y-952006D01*
X1685565Y-952476D01*
X1683265D01*
G01X1692120D02*
X1694995Y-943076D01*
X1697870Y-952476D01*
G01X1696835Y-949186D02*
X1693155D01*
G01X1704195Y-943076D02*
Y-952476D01*
G01X1701550Y-943076D02*
X1706840D01*
G01X1715695Y-952476D02*
X1711095D01*
Y-943076D01*
X1715695D01*
G01X1713855Y-947619D02*
X1711095D01*
G01X1757295Y-1013676D02*
Y-1023076D01*
G01X1754650Y-1013676D02*
X1759940D01*
G01X1765115D02*
X1767875D01*
G01X1766495D02*
Y-1023076D01*
G01X1765115D02*
X1767875D01*
G01X1775695Y-1013676D02*
Y-1023076D01*
G01X1773050Y-1013676D02*
X1778340D01*
G01X1782595D02*
Y-1023076D01*
X1787195D01*
G01X1796395D02*
X1791795D01*
Y-1013676D01*
X1796395D01*
G01X1794555Y-1018219D02*
X1791795D01*
M02*
