G04 ================== begin FILE IDENTIFICATION RECORD ==================*
G04 Layout Name:  F:/hash_board-20131009/board/hash_BRD-20131009.BRD*
G04 Film Name:    SOLDERMASK_TOP*
G04 File Format:  Gerber RS274X*
G04 File Origin:  Cadence Allegro 16.6-S014*
G04 Origin Date:  Thu Oct 10 07:58:57 2013*
G04 *
G04 Layer:  VIA CLASS/SOLDERMASK_TOP*
G04 Layer:  PIN/SOLDERMASK_TOP*
G04 Layer:  PACKAGE GEOMETRY/SOLDERMASK_TOP*
G04 Layer:  MANUFACTURING/PHOTOPLOT_OUTLINE*
G04 Layer:  DRAWING FORMAT/OUTLINE*
G04 Layer:  DRAWING FORMAT/TITLE_BLOCK*
G04 Layer:  DRAWING FORMAT/TITLE_DATA*
G04 Layer:  BOARD GEOMETRY/OUTLINE*
G04 Layer:  BOARD GEOMETRY/SOLDERMASK_TOP*
G04 *
G04 Offset:    (0.00 0.00)*
G04 Mirror:    No*
G04 Mode:      Positive*
G04 Rotation:  0*
G04 FullContactRelief:  No*
G04 UndefLineWidth:     0.00*
G04 ================== end FILE IDENTIFICATION RECORD ====================*
%FSLAX55Y55*MOIN*%
%IR0*IPPOS*OFA0.00000B0.00000*MIA0B0*SFA1.00000B1.00000*%
%ADD25R,.04799X.03598*%
%ADD30R,.06X.125*%
%ADD12C,.02*%
%ADD26C,.06*%
%ADD16C,.07*%
%ADD28C,.046*%
%ADD27R,.03X.03*%
%ADD18C,.066*%
%ADD48R,.1044X.0847*%
%ADD17R,.07X.07*%
%ADD29R,.066X.066*%
%ADD24C,.09843*%
%ADD37R,.06693X.15157*%
%ADD42R,.14X.18*%
%ADD44R,.04X.01402*%
%ADD13C,.12*%
%ADD11R,.052X.042*%
%ADD43R,.035X.05*%
%ADD36R,.07X.02402*%
%ADD20R,.038X.041*%
%ADD40R,.015X.065*%
%ADD23R,.041X.038*%
%ADD39R,.066X.015*%
%ADD34R,.065X.015*%
%ADD22R,.01402X.055*%
%ADD33R,.015X.066*%
%ADD15C,.10236*%
%ADD19R,.056X.056*%
%ADD35R,.056X.056*%
%ADD10C,.14192*%
%ADD21C,.1378*%
%ADD14R,.10236X.10236*%
%ADD45O,.0185X.07284*%
%ADD41R,.15748X.11811*%
%ADD46O,.07284X.0185*%
%ADD47R,.24409X.24409*%
%ADD38R,.0591X.0749*%
%ADD32R,.0749X.0591*%
%ADD31R,.12795X.1378*%
%ADD49C,.015*%
%ADD50C,.025*%
%ADD51C,.001*%
%ADD52C,.006*%
G75*
%LPD*%
G75*
G36*
G01X-361800Y-422436D02*
Y-419436D01*
X-381800D01*
Y-438936D01*
X-361800D01*
Y-435936D01*
X-364800D01*
Y-433436D01*
X-361800D01*
Y-430436D01*
X-364800D01*
Y-427936D01*
X-361800D01*
Y-424936D01*
X-364800D01*
Y-422436D01*
X-361800D01*
G37*
G36*
G01Y-381436D02*
Y-378436D01*
X-381800D01*
Y-397936D01*
X-361800D01*
Y-394936D01*
X-364800D01*
Y-392436D01*
X-361800D01*
Y-389436D01*
X-364800D01*
Y-386936D01*
X-361800D01*
Y-383936D01*
X-364800D01*
Y-381436D01*
X-361800D01*
G37*
G36*
G01X-361900Y-336936D02*
Y-333936D01*
X-381900D01*
Y-353436D01*
X-361900D01*
Y-350436D01*
X-364900D01*
Y-347936D01*
X-361900D01*
Y-344936D01*
X-364900D01*
Y-342436D01*
X-361900D01*
Y-339436D01*
X-364900D01*
Y-336936D01*
X-361900D01*
G37*
G36*
G01Y-295936D02*
Y-292936D01*
X-381900D01*
Y-312436D01*
X-361900D01*
Y-309436D01*
X-364900D01*
Y-306936D01*
X-361900D01*
Y-303936D01*
X-364900D01*
Y-301436D01*
X-361900D01*
Y-298436D01*
X-364900D01*
Y-295936D01*
X-361900D01*
G37*
G36*
G01X-361800Y-256436D02*
Y-253436D01*
X-381800D01*
Y-272936D01*
X-361800D01*
Y-269936D01*
X-364800D01*
Y-267436D01*
X-361800D01*
Y-264436D01*
X-364800D01*
Y-261936D01*
X-361800D01*
Y-258936D01*
X-364800D01*
Y-256436D01*
X-361800D01*
G37*
G36*
G01Y-215436D02*
Y-212436D01*
X-381800D01*
Y-231936D01*
X-361800D01*
Y-228936D01*
X-364800D01*
Y-226436D01*
X-361800D01*
Y-223436D01*
X-364800D01*
Y-220936D01*
X-361800D01*
Y-217936D01*
X-364800D01*
Y-215436D01*
X-361800D01*
G37*
G36*
G01Y-168236D02*
Y-165236D01*
X-381800D01*
Y-184736D01*
X-361800D01*
Y-181736D01*
X-364800D01*
Y-179236D01*
X-361800D01*
Y-176236D01*
X-364800D01*
Y-173736D01*
X-361800D01*
Y-170736D01*
X-364800D01*
Y-168236D01*
X-361800D01*
G37*
G36*
G01Y-127236D02*
Y-124236D01*
X-381800D01*
Y-143736D01*
X-361800D01*
Y-140736D01*
X-364800D01*
Y-138236D01*
X-361800D01*
Y-135236D01*
X-364800D01*
Y-132736D01*
X-361800D01*
Y-129736D01*
X-364800D01*
Y-127236D01*
X-361800D01*
G37*
G36*
G01X-14500Y-340631D02*
Y-368131D01*
X14300D01*
Y-340631D01*
X-14500D01*
G37*
G36*
G01Y-222520D02*
Y-250020D01*
X14300D01*
Y-222520D01*
X-14500D01*
G37*
G36*
G01Y-104410D02*
Y-131910D01*
X14300D01*
Y-104410D01*
X-14500D01*
G37*
G36*
G01Y13700D02*
Y-13800D01*
X14300D01*
Y13700D01*
X-14500D01*
G37*
G36*
G01X103610Y-340631D02*
Y-368131D01*
X132410D01*
Y-340631D01*
X103610D01*
G37*
G36*
G01Y-222520D02*
Y-250020D01*
X132410D01*
Y-222520D01*
X103610D01*
G37*
G36*
G01Y-104410D02*
Y-131910D01*
X132410D01*
Y-104410D01*
X103610D01*
G37*
G36*
G01Y13700D02*
Y-13800D01*
X132410D01*
Y13700D01*
X103610D01*
G37*
G36*
G01X221720Y-340631D02*
Y-368131D01*
X250520D01*
Y-340631D01*
X221720D01*
G37*
G36*
G01Y-222520D02*
Y-250020D01*
X250520D01*
Y-222520D01*
X221720D01*
G37*
G36*
G01Y-104410D02*
Y-131910D01*
X250520D01*
Y-104410D01*
X221720D01*
G37*
G36*
G01Y13700D02*
Y-13800D01*
X250520D01*
Y13700D01*
X221720D01*
G37*
G36*
G01X339831Y-340631D02*
Y-368131D01*
X368631D01*
Y-340631D01*
X339831D01*
G37*
G36*
G01Y-222520D02*
Y-250020D01*
X368631D01*
Y-222520D01*
X339831D01*
G37*
G36*
G01Y-104410D02*
Y-131910D01*
X368631D01*
Y-104410D01*
X339831D01*
G37*
G36*
G01Y13700D02*
Y-13800D01*
X368631D01*
Y13700D01*
X339831D01*
G37*
G36*
G01X457941Y-340631D02*
Y-368131D01*
X486741D01*
Y-340631D01*
X457941D01*
G37*
G36*
G01Y-222520D02*
Y-250020D01*
X486741D01*
Y-222520D01*
X457941D01*
G37*
G36*
G01Y-104410D02*
Y-131910D01*
X486741D01*
Y-104410D01*
X457941D01*
G37*
G36*
G01Y13700D02*
Y-13800D01*
X486741D01*
Y13700D01*
X457941D01*
G37*
G36*
G01X576051Y-340631D02*
Y-368131D01*
X604851D01*
Y-340631D01*
X576051D01*
G37*
G36*
G01Y-222520D02*
Y-250020D01*
X604851D01*
Y-222520D01*
X576051D01*
G37*
G36*
G01Y-104410D02*
Y-131910D01*
X604851D01*
Y-104410D01*
X576051D01*
G37*
G36*
G01Y13700D02*
Y-13800D01*
X604851D01*
Y13700D01*
X576051D01*
G37*
G36*
G01X694161Y-340631D02*
Y-368131D01*
X722961D01*
Y-340631D01*
X694161D01*
G37*
G36*
G01Y-222520D02*
Y-250020D01*
X722961D01*
Y-222520D01*
X694161D01*
G37*
G36*
G01Y-104410D02*
Y-131910D01*
X722961D01*
Y-104410D01*
X694161D01*
G37*
G36*
G01Y13700D02*
Y-13800D01*
X722961D01*
Y13700D01*
X694161D01*
G37*
G36*
G01X812272Y-340631D02*
Y-368131D01*
X841072D01*
Y-340631D01*
X812272D01*
G37*
G36*
G01Y-222520D02*
Y-250020D01*
X841072D01*
Y-222520D01*
X812272D01*
G37*
G36*
G01Y-104410D02*
Y-131910D01*
X841072D01*
Y-104410D01*
X812272D01*
G37*
G36*
G01Y13700D02*
Y-13800D01*
X841072D01*
Y13700D01*
X812272D01*
G37*
G54D10*
X-455094Y-456700D03*
Y-201700D03*
Y69526D03*
X-118571Y-456700D03*
Y69526D03*
X177800Y-317206D03*
Y-65237D03*
X217952Y-456700D03*
Y69526D03*
X554475Y-456700D03*
Y69526D03*
X773300Y-317206D03*
Y-65237D03*
X890998Y-456700D03*
Y-201700D03*
Y69526D03*
G54D20*
X-428600Y-311700D03*
Y-317700D03*
X-426900Y-296400D03*
Y-302400D03*
X-428600Y-230900D03*
Y-236900D03*
X-427000Y-216800D03*
Y-222800D03*
X-428600Y-144100D03*
Y-150100D03*
X-426700Y-128700D03*
Y-134700D03*
X-420700Y-433500D03*
Y-439500D03*
X-414700Y-433800D03*
Y-439800D03*
X-415000Y-387500D03*
Y-381500D03*
X-420400Y-387700D03*
Y-381700D03*
X-420300Y-369500D03*
Y-375500D03*
X-414700Y-369500D03*
Y-375500D03*
X-418700Y-353300D03*
X-413200Y-353500D03*
X-418700Y-347300D03*
X-413200Y-347500D03*
X-415000Y-302500D03*
Y-296500D03*
X-421200Y-302500D03*
Y-296500D03*
X-420600Y-266300D03*
Y-272300D03*
X-414200Y-266500D03*
Y-272500D03*
X-415300Y-222500D03*
Y-216500D03*
X-421500Y-222900D03*
Y-216900D03*
X-419300Y-184700D03*
X-413800D03*
X-419300Y-178700D03*
X-413800D03*
X-415400Y-134800D03*
Y-128800D03*
X-421200Y-134800D03*
Y-128800D03*
X-408900Y-440000D03*
Y-434000D03*
X-409300Y-387500D03*
Y-381500D03*
X-407700Y-353600D03*
Y-347600D03*
X-409300Y-302300D03*
Y-296300D03*
X-408400Y-272600D03*
Y-266600D03*
X-409400Y-222000D03*
Y-216000D03*
X-408100Y-184800D03*
Y-178800D03*
X-409800Y-134800D03*
Y-128800D03*
X-386724Y-58814D03*
Y-52814D03*
X-386600Y-39700D03*
Y-33700D03*
X-377900Y-87100D03*
Y-93100D03*
X-342700Y-4900D03*
Y1100D03*
X-335126Y-4838D03*
Y1162D03*
X-319628Y-4957D03*
X-327766Y-4872D03*
X-319628Y1043D03*
X-327766Y1128D03*
X-313316Y-4656D03*
Y1344D03*
X-274420Y-9170D03*
Y-3170D03*
X-262776Y-38814D03*
Y-32814D03*
X-252636Y-38814D03*
Y-32814D03*
X-244100Y-424500D03*
Y-430500D03*
X-238600Y-430600D03*
Y-424600D03*
X-243000Y-339900D03*
Y-345900D03*
X-237700Y-346000D03*
Y-340000D03*
X-242000Y-171800D03*
Y-177800D03*
X-236600Y-177900D03*
Y-171900D03*
X-233294Y-38814D03*
Y-32814D03*
X-240914Y-38814D03*
Y-32814D03*
X-194100Y3800D03*
Y-2200D03*
X-193310Y17490D03*
Y11490D03*
X-186950Y10890D03*
Y4890D03*
X-186750Y17800D03*
Y23800D03*
X-13284Y-392115D03*
X-18900D03*
X-13284Y-386115D03*
X-18900D03*
X-11720Y-323295D03*
Y-317295D03*
X-12484Y-274504D03*
Y-268504D03*
X-18100Y-274504D03*
Y-268504D03*
X-11720Y-205184D03*
Y-199184D03*
X-13184Y-156194D03*
X-18700D03*
X-13184Y-150194D03*
X-18700D03*
X-11720Y-87074D03*
Y-81074D03*
X-12984Y-37884D03*
Y-31884D03*
X-18800Y-37884D03*
Y-31884D03*
X-11720Y31036D03*
Y37036D03*
X-5168Y-392015D03*
X432Y-392415D03*
X-5168Y-386015D03*
X432Y-386415D03*
X-5168Y-267904D03*
Y-273904D03*
X432D03*
Y-267904D03*
X-5168Y-155794D03*
X332Y-156194D03*
X-5168Y-149794D03*
X332Y-150194D03*
X-5168Y-31684D03*
Y-37684D03*
X532D03*
Y-31684D03*
X30469Y-325800D03*
Y-319800D03*
X30280Y-200800D03*
Y-206800D03*
X25490Y-88500D03*
Y-82500D03*
X112942Y-392015D03*
Y-386015D03*
X106390Y-323295D03*
Y-317295D03*
X112942Y-267904D03*
Y-273904D03*
X106390Y-205184D03*
Y-199184D03*
X112942Y-155794D03*
Y-149794D03*
X106390Y-87074D03*
Y-81074D03*
X112942Y-31684D03*
Y-37684D03*
X106390Y31036D03*
Y37036D03*
X129300Y-392031D03*
Y-386031D03*
Y-273920D03*
Y-267920D03*
Y-155810D03*
Y-149810D03*
Y-37700D03*
Y-31700D03*
X231052Y-392015D03*
Y-386015D03*
X224500Y-323295D03*
Y-317295D03*
X231052Y-267904D03*
Y-273904D03*
X224500Y-205184D03*
Y-199184D03*
X231052Y-155794D03*
Y-149794D03*
X224500Y-87074D03*
Y-81074D03*
X231052Y-31684D03*
Y-37684D03*
X224500Y31036D03*
Y37036D03*
X342611Y-323295D03*
Y-317295D03*
Y-205184D03*
Y-199184D03*
Y-87074D03*
Y-81074D03*
Y31036D03*
Y37036D03*
X349163Y-392015D03*
X361000Y-392500D03*
X349163Y-386015D03*
X361000Y-386500D03*
X349163Y-267904D03*
Y-273904D03*
Y-155794D03*
Y-149794D03*
Y-31684D03*
Y-37684D03*
X467273Y-392015D03*
Y-386015D03*
X460721Y-323295D03*
Y-317295D03*
X467273Y-267904D03*
Y-273904D03*
X460721Y-205184D03*
Y-199184D03*
X467273Y-155794D03*
Y-149794D03*
X460721Y-87074D03*
Y-81074D03*
X467273Y-31684D03*
Y-37684D03*
X460721Y31036D03*
Y37036D03*
X578831Y-323295D03*
Y-317295D03*
Y-205184D03*
Y-199184D03*
Y-87074D03*
Y-81074D03*
Y31036D03*
Y37036D03*
X585383Y-392015D03*
Y-386015D03*
Y-267904D03*
Y-273904D03*
Y-155794D03*
Y-149794D03*
Y-31684D03*
Y-37684D03*
X597720Y-392404D03*
Y-386404D03*
X597400Y-274320D03*
Y-268320D03*
Y-156210D03*
Y-150210D03*
Y-38100D03*
Y-32100D03*
X703493Y-392015D03*
Y-386015D03*
X696941Y-323295D03*
Y-317295D03*
X703493Y-267904D03*
Y-273904D03*
X696941Y-205184D03*
Y-199184D03*
X703493Y-155794D03*
Y-149794D03*
X696941Y-87074D03*
Y-81074D03*
X703493Y-31684D03*
Y-37684D03*
X696941Y31036D03*
Y37036D03*
X715500Y-392231D03*
Y-386231D03*
Y-274120D03*
Y-268120D03*
Y-156010D03*
Y-150010D03*
Y-37900D03*
Y-31900D03*
X815052Y-323295D03*
Y-317295D03*
Y-205184D03*
Y-199184D03*
Y-87074D03*
Y-81074D03*
Y31036D03*
Y37036D03*
X821604Y-392015D03*
Y-386015D03*
Y-267904D03*
Y-273904D03*
Y-155794D03*
Y-149794D03*
Y-31684D03*
Y-37684D03*
X833700Y-392631D03*
Y-386631D03*
Y-274520D03*
Y-268520D03*
Y-156410D03*
Y-150410D03*
Y-38300D03*
Y-32300D03*
G54D11*
X-464500Y-71843D03*
Y-64757D03*
X-464400Y-48557D03*
Y-55643D03*
X-464600Y-31157D03*
Y-38243D03*
G54D21*
X-427140Y-10550D03*
Y34450D03*
G54D12*
X-456700Y-49300D03*
X-441557Y-64757D03*
X-432200Y-236900D03*
X-432500Y-150100D03*
X-433600Y-114100D03*
X-432800Y-108700D03*
X-432300Y-103700D03*
X-427100Y-112100D03*
X-426300Y-104100D03*
X-436700Y-90200D03*
X-436100Y-80200D03*
X-435400Y-60300D03*
X-436500Y-50600D03*
X-435900Y-35300D03*
X-426100Y-39400D03*
X-435100Y-27100D03*
X-425900Y62800D03*
X-420700Y-443000D03*
X-414500Y-427700D03*
X-420500D03*
X-414486Y-392714D03*
X-417100Y-378800D03*
X-423400Y-381700D03*
X-412100Y-375500D03*
X-418700Y-356600D03*
X-414000Y-343200D03*
X-420600Y-342200D03*
X-425400Y-317700D03*
X-415000Y-292500D03*
X-421200Y-293200D03*
X-420600Y-275100D03*
X-421800Y-260400D03*
X-414500Y-261700D03*
X-414486Y-226714D03*
X-415300Y-213800D03*
X-421000Y-213500D03*
X-419300Y-187900D03*
X-420500Y-173500D03*
X-414500D03*
X-414486Y-138514D03*
X-415400Y-126000D03*
X-420600Y-125800D03*
X-417100Y-108300D03*
X-423400Y-108000D03*
X-420300Y-112000D03*
X-419600Y-104500D03*
X-414600Y-112200D03*
X-414300Y-105200D03*
X-416600Y-75400D03*
X-416200Y-61900D03*
X-422000Y-49900D03*
X-421500Y-34000D03*
X-408900Y-443500D03*
X-406805Y-417005D03*
X-410000Y-415000D03*
X-411000Y-392700D03*
X-407700Y-393000D03*
X-402812Y-380012D03*
X-406585Y-377115D03*
X-411600Y-369500D03*
X-407700Y-356600D03*
X-406905Y-331505D03*
X-409600Y-326600D03*
X-411100Y-307200D03*
X-407600D03*
X-402812Y-294188D03*
X-406100Y-291700D03*
X-402812Y-288412D03*
X-408400Y-275700D03*
X-406805Y-251005D03*
X-409500Y-249000D03*
X-411000Y-226700D03*
X-407400Y-226600D03*
X-402812Y-214012D03*
X-406585Y-211115D03*
X-408100Y-188100D03*
X-406805Y-162805D03*
X-410100Y-158400D03*
X-411000Y-138500D03*
X-407500Y-138300D03*
X-402812Y-125812D03*
X-406585Y-122915D03*
X-404600Y-108900D03*
X-409700Y-108600D03*
X-408500Y-112200D03*
X-408400Y-105200D03*
X-402700Y-105400D03*
X-403000Y-112100D03*
X-407300Y-50200D03*
X-410300Y-39400D03*
X-404600Y47500D03*
X-409900Y62800D03*
X-392400Y-408400D03*
X-397000Y-390200D03*
X-390000D03*
X-393500D03*
X-397000Y-376700D03*
X-390000Y-378700D03*
X-393500Y-376700D03*
X-397000Y-380200D03*
Y-383700D03*
Y-386700D03*
X-390000Y-382700D03*
Y-386700D03*
X-393500Y-380200D03*
Y-383700D03*
Y-386700D03*
X-390000Y-375700D03*
X-387000Y-321100D03*
X-397100Y-294700D03*
Y-298200D03*
Y-301200D03*
Y-304700D03*
X-390100Y-297200D03*
Y-301200D03*
Y-304700D03*
X-393600Y-294700D03*
Y-298200D03*
Y-301200D03*
Y-304700D03*
X-397100Y-291200D03*
X-390100Y-293200D03*
X-393600Y-291200D03*
X-390100Y-290200D03*
X-391200Y-241800D03*
X-397000Y-210700D03*
X-390000Y-212700D03*
X-393500Y-210700D03*
X-397000Y-214200D03*
Y-217700D03*
Y-220700D03*
Y-224200D03*
X-390000Y-216700D03*
Y-220700D03*
Y-224200D03*
X-393500Y-214200D03*
Y-217700D03*
Y-220700D03*
Y-224200D03*
X-390000Y-209700D03*
X-391300Y-152600D03*
X-397000Y-129500D03*
Y-132500D03*
Y-136000D03*
X-393500Y-129500D03*
Y-132500D03*
Y-136000D03*
X-390000Y-128500D03*
Y-132500D03*
Y-136000D03*
X-397000Y-122500D03*
Y-126000D03*
X-393500Y-122500D03*
Y-126000D03*
X-390000Y-121500D03*
Y-124500D03*
X-393500Y-21300D03*
X-386600Y-29700D03*
X-395500Y47400D03*
X-385700Y47800D03*
X-379500Y-446700D03*
X-374500D03*
Y-449700D03*
X-379500D03*
Y-443200D03*
X-374500D03*
X-381000Y-435100D03*
X-378000Y-437600D03*
X-372000Y-437200D03*
X-381100Y-429000D03*
X-381300Y-422500D03*
X-378000Y-430700D03*
Y-425800D03*
X-377900Y-420800D03*
X-371900Y-430900D03*
X-372000Y-425500D03*
X-372100Y-420900D03*
X-371400Y-408600D03*
X-382200D03*
X-376300Y-402200D03*
X-380900Y-393900D03*
X-377500Y-394400D03*
X-372400Y-394500D03*
X-380900Y-380600D03*
X-380800Y-387800D03*
X-377400Y-389600D03*
Y-384200D03*
X-377500Y-379400D03*
X-372200Y-388800D03*
Y-383900D03*
X-372400Y-379500D03*
X-374600Y-364200D03*
X-379600D03*
Y-357700D03*
Y-361200D03*
X-374600Y-357700D03*
Y-361200D03*
X-375800Y-349600D03*
X-380900Y-353100D03*
X-372100Y-352700D03*
X-380200Y-336100D03*
X-380800Y-346800D03*
X-380500Y-341500D03*
X-375900Y-335600D03*
X-371600Y-345500D03*
Y-339700D03*
X-376100Y-342400D03*
X-371600Y-335600D03*
X-375200Y-322200D03*
X-370700Y-316600D03*
X-373100Y-309200D03*
X-379000Y-314100D03*
X-378800Y-308900D03*
X-373100Y-295800D03*
Y-300500D03*
X-373300Y-304800D03*
X-378700Y-304600D03*
Y-300300D03*
X-378800Y-295200D03*
X-379500Y-280700D03*
X-374500D03*
Y-283700D03*
X-379500D03*
Y-277200D03*
X-374500D03*
X-378700Y-271900D03*
X-378900Y-266600D03*
X-372500Y-271700D03*
Y-266400D03*
X-378700Y-260700D03*
X-378800Y-255000D03*
X-372500Y-260500D03*
X-372600Y-255200D03*
X-382200Y-242400D03*
X-373800Y-230100D03*
X-379300Y-229800D03*
X-379400Y-224600D03*
X-381000Y-236200D03*
X-374000Y-235900D03*
X-373900Y-223700D03*
X-373700Y-219300D03*
X-373900Y-214800D03*
X-379400Y-219900D03*
X-379300Y-215000D03*
X-379500Y-189000D03*
Y-192500D03*
X-374500Y-189000D03*
Y-192500D03*
Y-195500D03*
X-379500D03*
X-379100Y-184100D03*
X-373500Y-183900D03*
X-379300Y-180100D03*
X-379500Y-175600D03*
X-379100Y-170800D03*
X-373500Y-180000D03*
Y-175400D03*
Y-170700D03*
X-379000Y-165900D03*
X-373600Y-166200D03*
X-377300Y-148000D03*
X-379800Y-153000D03*
X-378200Y-142200D03*
X-373100Y-141700D03*
X-378300Y-137200D03*
X-378100Y-132400D03*
X-373100Y-136400D03*
Y-131700D03*
X-378100Y-127500D03*
X-373200Y-127100D03*
X-375200Y-93100D03*
X-380700D03*
X-381300Y-88400D03*
X-381200Y-84800D03*
X-373100Y-32700D03*
X-372400Y-20100D03*
X-381600Y-21600D03*
X-382000Y-15900D03*
X-380400Y-4300D03*
X-370800Y-12500D03*
X-381100Y5800D03*
X-372014Y3886D03*
X-375800Y15900D03*
X-380800Y15600D03*
X-370648Y19752D03*
X-380500Y34400D03*
X-370754Y32846D03*
X-371500Y47200D03*
X-365500Y-446700D03*
X-361000D03*
Y-449700D03*
X-365500D03*
X-370000Y-446700D03*
Y-449700D03*
X-365500Y-443200D03*
X-361000D03*
X-370000D03*
X-367100Y-437000D03*
X-357500Y-435700D03*
X-367000Y-431000D03*
Y-425200D03*
Y-420900D03*
X-357500Y-430200D03*
Y-424700D03*
Y-420700D03*
X-361900Y-409300D03*
X-357500Y-406900D03*
X-363800Y-402300D03*
X-367000Y-394300D03*
X-367100Y-388900D03*
X-367000Y-383900D03*
X-367100Y-379600D03*
X-361100Y-364200D03*
X-365600D03*
X-370100D03*
X-365600Y-357700D03*
Y-361200D03*
X-361100Y-357700D03*
Y-361200D03*
X-370100Y-357700D03*
Y-361200D03*
X-367200Y-351700D03*
X-357600Y-350200D03*
X-367100Y-347500D03*
X-367300Y-343000D03*
X-367000Y-339500D03*
X-366900Y-335200D03*
X-357600Y-344700D03*
Y-339200D03*
Y-335200D03*
X-365700Y-322600D03*
X-365200Y-317100D03*
X-357900D03*
Y-310600D03*
X-368200Y-310400D03*
X-357900Y-306200D03*
Y-300100D03*
Y-294500D03*
X-368300Y-304600D03*
Y-300100D03*
X-367500Y-295500D03*
X-365500Y-280700D03*
X-361000D03*
Y-283700D03*
X-365500D03*
X-370000Y-280700D03*
Y-283700D03*
X-365500Y-277200D03*
X-361000D03*
X-370000D03*
X-366700Y-271600D03*
Y-266200D03*
X-357500Y-269700D03*
X-366700Y-260700D03*
Y-255200D03*
X-357500Y-264200D03*
Y-258700D03*
Y-254700D03*
X-361400Y-242500D03*
X-369400D03*
X-367900Y-229800D03*
Y-224500D03*
X-365300Y-236200D03*
X-368000Y-219700D03*
X-368100Y-214800D03*
X-370000Y-189000D03*
Y-192500D03*
X-365500Y-189000D03*
Y-192500D03*
X-361000Y-189000D03*
Y-192500D03*
Y-195500D03*
X-365500D03*
X-370000D03*
X-367500Y-184100D03*
X-367600Y-179800D03*
X-367700Y-175200D03*
Y-170700D03*
X-357500Y-181500D03*
Y-176000D03*
Y-170500D03*
X-367700Y-166400D03*
X-357500Y-166500D03*
X-364700Y-154900D03*
X-370400Y-147900D03*
X-362600Y-148300D03*
X-369600Y-152400D03*
X-367500Y-141400D03*
X-367300Y-135400D03*
X-367100Y-130800D03*
X-367400Y-126100D03*
X-367600Y-32300D03*
X-361600Y-29700D03*
X-360000Y-14900D03*
X-364100Y-12200D03*
X-365590Y12490D03*
X-361974Y16126D03*
X-364648Y20048D03*
X-364754Y32946D03*
X-361800Y46500D03*
X-356500Y-446700D03*
X-352000D03*
X-347000D03*
X-352000Y-449700D03*
X-356500D03*
X-347000D03*
X-350000Y-439700D03*
X-356500Y-443200D03*
X-352000D03*
X-352500Y-434700D03*
X-347500Y-429200D03*
X-353000Y-429700D03*
Y-424700D03*
X-347500D03*
Y-420700D03*
X-353000D03*
X-345500Y-406900D03*
X-352000Y-406200D03*
X-355800Y-398200D03*
X-355300Y-392600D03*
X-355100Y-387800D03*
X-350800Y-385200D03*
X-344100Y-385600D03*
X-348000Y-380900D03*
X-355000Y-380700D03*
X-352100Y-364200D03*
X-356600D03*
X-347100D03*
X-350100Y-354200D03*
X-356600Y-357700D03*
Y-361200D03*
X-352100Y-357700D03*
Y-361200D03*
X-347100D03*
X-352600Y-349200D03*
X-347600Y-343700D03*
X-353100Y-344200D03*
Y-339200D03*
X-347600D03*
Y-335200D03*
X-353100D03*
X-354900Y-324200D03*
X-352400Y-309900D03*
Y-319300D03*
X-352200Y-302400D03*
X-356500Y-280700D03*
X-352000D03*
X-347000D03*
X-352000Y-283700D03*
X-356500D03*
X-347000D03*
X-350600Y-292400D03*
X-350000Y-273700D03*
X-356500Y-277200D03*
X-352000D03*
X-352500Y-268700D03*
X-347500Y-263200D03*
X-353000Y-263700D03*
Y-258700D03*
X-347500D03*
Y-254700D03*
X-353000D03*
X-345900Y-244300D03*
X-345700Y-238700D03*
X-354700Y-243000D03*
X-354900Y-235400D03*
Y-230700D03*
Y-225500D03*
X-345100Y-220400D03*
X-345300Y-213600D03*
X-354800Y-220200D03*
X-355000Y-214700D03*
X-356500Y-189000D03*
Y-192500D03*
X-352000Y-189000D03*
Y-192500D03*
X-347000D03*
X-350000Y-185500D03*
X-352000Y-195500D03*
X-356500D03*
X-347000D03*
X-352500Y-180500D03*
X-347500Y-175000D03*
X-353000Y-175500D03*
Y-170500D03*
X-347500D03*
Y-166500D03*
X-353000D03*
X-356400Y-153300D03*
X-355100Y-149600D03*
X-343200Y-149200D03*
X-349200Y-149400D03*
X-355100Y-142800D03*
X-343800Y-131400D03*
X-348700Y-131300D03*
X-355100Y-136000D03*
Y-131100D03*
X-355000Y-126500D03*
X-356000Y-63100D03*
X-348200Y-54700D03*
X-352115Y-19915D03*
X-348900Y9300D03*
X-348700Y5000D03*
X-346900Y7700D03*
X-348700Y1200D03*
X-348900Y-2400D03*
X-344000Y23200D03*
X-344700Y19700D03*
X-346900Y11100D03*
X-343800Y32500D03*
X-342500Y-446700D03*
Y-449700D03*
X-341500Y-440200D03*
X-337500D03*
X-333000D03*
X-332500Y-428700D03*
X-342000Y-429200D03*
Y-424700D03*
X-336500D03*
X-332500D03*
Y-420700D03*
X-337000D03*
X-342000D03*
X-339900Y-405400D03*
X-340700Y-381000D03*
X-342600Y-364200D03*
X-341600Y-354700D03*
X-337600D03*
X-333100D03*
X-342600Y-361200D03*
X-332600Y-343200D03*
X-342100Y-343700D03*
Y-339200D03*
X-336600D03*
X-332600D03*
Y-335200D03*
X-337100D03*
X-342100D03*
X-342500Y-297000D03*
Y-280700D03*
Y-283700D03*
X-340600Y-291700D03*
X-341500Y-274200D03*
X-337500D03*
X-333000D03*
X-332500Y-262700D03*
X-342000Y-263200D03*
Y-258700D03*
X-336500D03*
X-332500D03*
Y-254700D03*
X-337000D03*
X-342000D03*
X-338700Y-244300D03*
X-338800Y-238600D03*
X-338900Y-219100D03*
Y-214000D03*
X-342500Y-192500D03*
X-341500Y-186000D03*
X-337500D03*
X-333000D03*
X-342500Y-195500D03*
X-332500Y-174500D03*
X-342000Y-175000D03*
Y-170500D03*
X-336500D03*
X-332500D03*
Y-166500D03*
X-337000D03*
X-342000D03*
X-338200Y-149400D03*
X-337800Y-131700D03*
X-336500Y-61700D03*
X-339000Y-47900D03*
X-342700Y-8300D03*
X-335126Y-8126D03*
X-339200Y-11100D03*
X-331400Y-8800D03*
X-340684Y10924D03*
X-333520Y22850D03*
X-333670Y18720D03*
X-333100Y15100D03*
X-333530Y26770D03*
X-342700Y45400D03*
X-328200Y-63800D03*
X-326600Y-52200D03*
X-317000Y-52500D03*
X-328900Y-39500D03*
X-317297Y-4957D03*
X-327766Y-8266D03*
X-317183Y1043D03*
X-323500Y2800D03*
X-317500Y24500D03*
X-323530Y31830D03*
X-317100Y47800D03*
X-306000Y-418700D03*
X-312000D03*
X-306500Y-414200D03*
X-312500Y-413700D03*
X-306500Y-408200D03*
X-312500D03*
X-306500Y-403200D03*
X-312500D03*
X-309500Y-384700D03*
Y-380700D03*
X-304500Y-384700D03*
Y-380700D03*
X-306100Y-333200D03*
X-312100D03*
X-306600Y-328700D03*
X-312600Y-328200D03*
X-306600Y-322700D03*
X-312600D03*
X-306600Y-317700D03*
X-312600D03*
X-309600Y-299200D03*
Y-295200D03*
X-304600Y-299200D03*
Y-295200D03*
X-306000Y-252700D03*
X-312000D03*
X-306500Y-248200D03*
X-312500Y-247700D03*
X-306500Y-242200D03*
X-312500D03*
X-306500Y-237200D03*
X-312500D03*
X-309500Y-218700D03*
Y-214700D03*
X-304500Y-218700D03*
Y-214700D03*
X-306000Y-164500D03*
X-312000D03*
X-306500Y-160000D03*
X-312500Y-159500D03*
X-306500Y-154000D03*
X-312500D03*
X-306500Y-149000D03*
X-312500D03*
X-304500Y-130500D03*
X-309500D03*
X-304500Y-126500D03*
X-309500D03*
X-308800Y-67100D03*
X-306300Y-60500D03*
X-301900Y-24600D03*
X-306800Y6000D03*
X-313690Y13250D03*
X-311260Y14200D03*
X-302144Y10956D03*
X-315000Y35600D03*
X-313600Y49300D03*
X-291000Y-442700D03*
X-296500Y-444200D03*
X-291500Y-433200D03*
X-289500Y-424700D03*
X-296000Y-424200D03*
X-288000Y-419700D03*
X-295000Y-419200D03*
X-300000Y-418700D03*
X-295500Y-407200D03*
X-292000Y-411700D03*
X-300000Y-414200D03*
Y-408200D03*
X-295500Y-401200D03*
X-299500Y-400200D03*
Y-395200D03*
Y-390200D03*
X-290500Y-383200D03*
X-290000Y-388200D03*
X-290500Y-377700D03*
X-299500Y-384700D03*
Y-380700D03*
X-291100Y-357200D03*
X-296600Y-358700D03*
X-291600Y-347700D03*
X-289600Y-339200D03*
X-296100Y-338700D03*
X-288100Y-334200D03*
X-295100Y-333700D03*
X-295600Y-321700D03*
X-292100Y-326200D03*
X-300100Y-333200D03*
Y-328700D03*
Y-322700D03*
X-295600Y-315700D03*
X-299600Y-314700D03*
Y-309700D03*
X-290100Y-302700D03*
X-290600Y-297700D03*
X-299600Y-304700D03*
Y-299200D03*
Y-295200D03*
X-290600Y-292200D03*
X-291000Y-276700D03*
X-296500Y-278200D03*
X-291500Y-267200D03*
X-289500Y-258700D03*
X-296000Y-258200D03*
X-288000Y-253700D03*
X-295000Y-253200D03*
X-300000Y-252700D03*
X-295500Y-241200D03*
X-292000Y-245700D03*
X-300000Y-248200D03*
Y-242200D03*
X-295500Y-235200D03*
X-299500Y-234200D03*
Y-229200D03*
X-290500Y-211700D03*
X-290000Y-222200D03*
X-290500Y-217200D03*
X-299500Y-224200D03*
Y-218700D03*
Y-214700D03*
X-291000Y-188500D03*
X-296500Y-190000D03*
X-291500Y-179000D03*
X-289500Y-170500D03*
X-296000Y-170000D03*
X-288000Y-165500D03*
X-295000Y-165000D03*
X-292000Y-157500D03*
X-300000Y-164500D03*
Y-160000D03*
X-295500Y-153000D03*
Y-147000D03*
X-300000Y-154000D03*
X-299500Y-146000D03*
X-290000Y-134000D03*
X-290500Y-129000D03*
X-299500Y-141000D03*
Y-136000D03*
Y-130500D03*
X-290500Y-123500D03*
X-299500Y-126500D03*
X-290200Y-30000D03*
X-300800Y-19000D03*
X-289800Y-10000D03*
X-295100Y4900D03*
X-299900Y6000D03*
X-288000Y11100D03*
X-287686Y23876D03*
X-301230Y34000D03*
X-289200Y31800D03*
X-291574Y39454D03*
X-297574Y39736D03*
X-275300Y-449700D03*
X-280200Y-448800D03*
X-276300Y-444200D03*
X-279900Y-434200D03*
X-280000Y-440700D03*
X-278900Y-444800D03*
X-286000Y-441700D03*
X-286500Y-437200D03*
X-286000Y-432200D03*
X-276300Y-422200D03*
X-279800Y-428400D03*
X-279200Y-423000D03*
X-285000Y-426700D03*
X-283000Y-417700D03*
X-282500Y-412200D03*
X-287500Y-401700D03*
X-281500Y-401200D03*
X-287000Y-383200D03*
X-286500Y-388200D03*
X-283000Y-383200D03*
X-279000D03*
X-278500Y-388200D03*
X-282500D03*
X-287000Y-377700D03*
X-283000D03*
X-279000D03*
X-278100Y-364700D03*
X-278551Y-355704D03*
X-278591Y-351204D03*
X-274600Y-359200D03*
X-278400Y-360500D03*
X-286100Y-356200D03*
X-286600Y-351700D03*
X-278551Y-344704D03*
X-278591Y-340204D03*
X-274600Y-337200D03*
X-286100Y-346700D03*
X-285100Y-341200D03*
X-283100Y-332200D03*
X-282600Y-326700D03*
X-287600Y-316200D03*
X-281600Y-315700D03*
X-282600Y-302700D03*
X-283100Y-297700D03*
Y-292200D03*
X-286000Y-275700D03*
X-286500Y-271200D03*
X-286000Y-266200D03*
X-285000Y-260700D03*
X-283000Y-251700D03*
X-282500Y-246200D03*
X-287500Y-235700D03*
X-281500Y-235200D03*
X-274500Y-211700D03*
X-279000D03*
X-287000D03*
X-278500Y-222200D03*
X-279000Y-217200D03*
X-286500Y-222200D03*
X-287000Y-217200D03*
X-274500Y-190500D03*
X-278000Y-196000D03*
X-278451Y-187004D03*
X-286500Y-183000D03*
X-286000Y-187500D03*
X-278491Y-171504D03*
X-278451Y-176004D03*
X-278491Y-182504D03*
X-286000Y-178000D03*
X-285000Y-172500D03*
X-274500Y-168500D03*
X-283000Y-163500D03*
X-282500Y-158000D03*
X-287500Y-147500D03*
X-281500Y-147000D03*
X-282500Y-134000D03*
X-283000Y-129000D03*
Y-123500D03*
X-280800Y-20100D03*
X-277320Y-3400D03*
X-281800Y-9500D03*
X-280300Y-6100D03*
X-277710Y-9170D03*
X-274000Y7200D03*
X-277200Y6000D03*
X-276200Y27600D03*
X-280500Y29400D03*
X-284800Y47700D03*
X-276000Y38900D03*
X-279600Y46300D03*
X-266751Y-432204D03*
X-266791Y-437704D03*
X-266751Y-442204D03*
X-271800Y-444200D03*
X-266791Y-419204D03*
X-266751Y-423704D03*
X-266791Y-427704D03*
X-271800Y-422200D03*
X-264500Y-412700D03*
Y-401200D03*
X-260000D03*
X-270000Y-383200D03*
X-265500D03*
X-265000Y-388200D03*
X-269500D03*
X-260500Y-383200D03*
X-260000Y-388200D03*
X-270000Y-377700D03*
X-265500D03*
X-260500D03*
X-273600Y-364700D03*
X-265091Y-352704D03*
X-265051Y-357204D03*
X-270100Y-359200D03*
X-265051Y-338704D03*
Y-347204D03*
X-265091Y-342704D03*
X-270100Y-337200D03*
X-265091Y-334204D03*
X-264600Y-327200D03*
Y-315700D03*
X-260100D03*
Y-302700D03*
X-260600Y-297700D03*
X-265100Y-302700D03*
X-265600Y-297700D03*
X-260600Y-292200D03*
X-265600D03*
X-264500Y-246700D03*
Y-235200D03*
X-260000D03*
X-265500Y-211700D03*
X-265000Y-222200D03*
X-265500Y-217200D03*
X-270000Y-190500D03*
X-273500Y-196000D03*
X-264991Y-184004D03*
X-264951Y-188504D03*
X-264991Y-174004D03*
X-264951Y-178504D03*
Y-170004D03*
X-270000Y-168500D03*
X-264991Y-165504D03*
X-264500Y-158500D03*
Y-147000D03*
X-260000D03*
X-265000Y-134000D03*
X-260000D03*
X-265500Y-129000D03*
X-260500D03*
X-265500Y-123500D03*
X-260500D03*
X-264200Y-60300D03*
X-272600Y-65700D03*
X-270200Y-39800D03*
X-271900Y-31100D03*
X-260000Y-43800D03*
X-262500Y-24700D03*
X-262776Y-29076D03*
X-266100Y-20700D03*
X-263600Y-15400D03*
X-271400Y7700D03*
Y35600D03*
X-270700Y30900D03*
X-264900Y45300D03*
X-260800Y56430D03*
X-253300Y-448700D03*
X-248800D03*
Y-452700D03*
X-253300D03*
Y-444700D03*
X-248800D03*
X-258300D03*
Y-441200D03*
X-248500Y-411200D03*
X-258000Y-412200D03*
X-254500Y-401200D03*
X-248000D03*
X-255000Y-383200D03*
X-249500D03*
X-249000Y-388200D03*
X-254500D03*
X-255000Y-377700D03*
X-249500D03*
X-251600Y-363700D03*
X-247100D03*
Y-367700D03*
X-251600D03*
Y-359700D03*
X-247100D03*
X-256600D03*
Y-356200D03*
X-248600Y-325700D03*
X-258100Y-326700D03*
X-254600Y-315700D03*
X-248100D03*
X-254600Y-302700D03*
X-249100D03*
X-249600Y-297700D03*
X-255100D03*
X-249600Y-292200D03*
X-255100D03*
X-248500Y-245200D03*
X-258000Y-246200D03*
X-254500Y-235200D03*
X-248000D03*
X-249500Y-211700D03*
X-255000D03*
X-254500Y-222200D03*
X-249000D03*
X-249500Y-217200D03*
X-255000D03*
X-251500Y-199000D03*
X-247000D03*
X-256500Y-187500D03*
Y-191000D03*
X-247000Y-195000D03*
X-251500D03*
X-247000Y-191000D03*
X-251500D03*
X-248500Y-157000D03*
X-258000Y-158000D03*
X-254500Y-147000D03*
X-248000D03*
X-254500Y-134000D03*
X-249000D03*
X-249500Y-129000D03*
X-255000D03*
X-249500Y-123500D03*
X-255000D03*
X-246400Y-48100D03*
X-246700Y-40400D03*
X-251100Y-27300D03*
X-257100Y-8300D03*
X-259600Y-2800D03*
X-247400Y37900D03*
X-254500Y40000D03*
X-254800Y56600D03*
X-243800Y-448700D03*
Y-452700D03*
X-245300Y-441200D03*
X-243800Y-444700D03*
X-244300Y-421700D03*
X-232300Y-418100D03*
X-233800Y-429200D03*
X-238800Y-421200D03*
X-238500Y-406700D03*
X-234500Y-410700D03*
X-242500D03*
X-239000Y-403200D03*
X-233000D03*
X-245500Y-383200D03*
X-245000Y-388200D03*
X-240500Y-383200D03*
X-236000D03*
X-235500Y-388200D03*
X-240000D03*
X-245500Y-377700D03*
X-240500D03*
X-236000D03*
X-242100Y-363700D03*
Y-367700D03*
X-243600Y-356200D03*
X-242100Y-359700D03*
X-242600Y-336700D03*
X-237100Y-336200D03*
X-238600Y-321200D03*
X-234600Y-325200D03*
X-242600D03*
X-239100Y-317700D03*
X-233100D03*
X-240100Y-302700D03*
X-235600D03*
X-236100Y-297700D03*
X-240600D03*
X-236100Y-292200D03*
X-240600D03*
X-238500Y-240700D03*
X-234500Y-244700D03*
X-242500D03*
X-239000Y-237200D03*
X-233000D03*
X-236000Y-211700D03*
X-240500D03*
X-240000Y-222200D03*
X-235500D03*
X-236000Y-217200D03*
X-240500D03*
X-242000Y-199000D03*
X-243500Y-187500D03*
X-242000Y-195000D03*
Y-191000D03*
X-242500Y-168000D03*
X-234500Y-156500D03*
X-242500D03*
X-237000Y-167500D03*
X-238500Y-152500D03*
X-239000Y-149000D03*
X-233000D03*
X-240000Y-134000D03*
X-235500D03*
X-236000Y-129000D03*
X-240500D03*
X-236000Y-123500D03*
X-240500D03*
X-233294Y-45094D03*
X-245900Y-24900D03*
X-240914Y-28914D03*
X-234300Y-27700D03*
X-232900Y-8600D03*
X-238800Y8800D03*
X-244700Y4800D03*
X-241500Y800D03*
X-234400Y16000D03*
X-246100Y14000D03*
X-236300Y38100D03*
X-241400Y30100D03*
X-243600Y37700D03*
Y63400D03*
X-243700Y70200D03*
X-220300Y-429200D03*
X-232025Y-424220D03*
X-224800Y-429200D03*
X-229300D03*
X-227500Y-407200D03*
X-231500D03*
X-228500Y-411200D03*
X-227500Y-403200D03*
X-230500Y-383200D03*
X-224500D03*
X-218500D03*
X-230500Y-377700D03*
X-224500D03*
X-218500Y-378200D03*
X-218600Y-344200D03*
X-232000Y-340700D03*
X-223100Y-344200D03*
X-232100D03*
X-227600D03*
X-230200Y-334300D03*
X-227600Y-321700D03*
X-231600D03*
X-228600Y-325700D03*
X-227600Y-317700D03*
X-224600Y-297700D03*
X-230600D03*
X-218600Y-292700D03*
X-224600Y-292200D03*
X-230600D03*
X-227500Y-241200D03*
X-231500D03*
X-228500Y-245200D03*
X-227500Y-237200D03*
X-218500Y-212200D03*
X-224500Y-211700D03*
X-230500D03*
X-218500Y-217200D03*
X-224500D03*
X-230500D03*
X-227500Y-175500D03*
X-232000D03*
X-218500D03*
X-223000D03*
X-230800Y-171700D03*
X-230400Y-164300D03*
X-228500Y-157000D03*
X-227500Y-153000D03*
X-231500D03*
X-227500Y-149000D03*
X-224500Y-129000D03*
X-230500D03*
X-218500D03*
X-224500Y-123500D03*
X-230500D03*
X-218500Y-124000D03*
X-224300Y-33000D03*
X-226900Y-24400D03*
X-230000Y-29800D03*
X-230800Y-21300D03*
X-222800Y-7800D03*
X-226800Y-4900D03*
X-230200Y9100D03*
X-222700Y-2600D03*
X-225400Y16500D03*
X-230300Y19600D03*
X-225300Y38200D03*
X-226100Y30000D03*
X-213800Y-423700D03*
X-209300D03*
X-215300Y-429200D03*
X-210800D03*
X-213500Y-412200D03*
X-218000D03*
X-213500Y-407200D03*
X-218000D03*
X-208500Y-412200D03*
Y-407200D03*
X-213600Y-417300D03*
X-209700D03*
X-213500Y-402700D03*
X-218000D03*
X-208500D03*
Y-392700D03*
X-215000Y-392200D03*
X-208500Y-387700D03*
Y-383200D03*
X-214000D03*
X-215000Y-387700D03*
X-208500Y-378700D03*
X-214000Y-378200D03*
X-212000Y-340300D03*
X-207700D03*
X-213600Y-344200D03*
X-209100D03*
X-208600Y-326700D03*
X-218100D03*
X-213600D03*
X-212600Y-333700D03*
X-208100D03*
X-208600Y-317200D03*
X-218100D03*
X-213600D03*
X-215100Y-302200D03*
X-208600D03*
X-214100Y-292700D03*
X-208600Y-293200D03*
X-208500Y-241200D03*
Y-246200D03*
X-218000Y-241200D03*
X-213500D03*
X-218000Y-246200D03*
X-213500D03*
X-215000Y-226200D03*
X-208500Y-226700D03*
Y-236700D03*
X-218000D03*
X-213500D03*
X-214000Y-212200D03*
X-208500Y-212700D03*
X-215000Y-221700D03*
X-214000Y-217200D03*
X-208500D03*
Y-221700D03*
X-209000Y-175500D03*
X-213500D03*
X-207900Y-171400D03*
X-211900Y-171300D03*
X-208500Y-158000D03*
X-218000D03*
X-213500D03*
X-207500Y-163600D03*
X-212300Y-163800D03*
X-208500Y-148500D03*
Y-153000D03*
X-218000Y-148500D03*
X-213500D03*
X-218000Y-153000D03*
X-213500D03*
X-215000Y-133500D03*
Y-138000D03*
X-214000Y-129000D03*
X-208500D03*
Y-133500D03*
Y-138500D03*
X-214000Y-124000D03*
X-208500Y-124500D03*
X-209600Y-33400D03*
X-207700Y-32000D03*
X-212800Y-33400D03*
X-215000Y-38500D03*
X-210900Y-31000D03*
X-213410Y-25950D03*
X-204900Y-30400D03*
X-210400Y-28100D03*
X-214000Y-29800D03*
X-207800Y-29200D03*
X-207410Y-26210D03*
X-210000Y9010D03*
X-214700Y20800D03*
X-218001Y16900D03*
X-209260Y29250D03*
X-214800Y38600D03*
X-210310Y57590D03*
X-216310Y57660D03*
X-204000Y-412200D03*
Y-407200D03*
Y-402700D03*
Y-392700D03*
Y-387700D03*
Y-383200D03*
Y-378700D03*
X-204100Y-326700D03*
X-194400Y-333800D03*
X-193300Y-328600D03*
X-204100Y-317200D03*
X-192100Y-309200D03*
X-197100Y-309700D03*
X-204100Y-302200D03*
X-192100Y-305200D03*
Y-301200D03*
X-197100Y-305200D03*
Y-301200D03*
Y-297200D03*
X-204100Y-293200D03*
X-191600D03*
X-197100D03*
X-204000Y-241200D03*
Y-246200D03*
Y-226700D03*
Y-236700D03*
Y-212700D03*
Y-217200D03*
Y-221700D03*
Y-158000D03*
X-195100Y-167000D03*
X-193100Y-159100D03*
X-194600Y-162900D03*
X-204000Y-148500D03*
Y-153000D03*
X-196300Y-148600D03*
X-196000Y-153600D03*
X-191700Y-152800D03*
X-194200Y-150100D03*
X-204000Y-129000D03*
Y-133500D03*
Y-138500D03*
X-192500Y-128300D03*
X-195000Y-140600D03*
X-191100Y-137100D03*
X-196700D03*
X-192000Y-132500D03*
X-197000D03*
Y-128500D03*
X-204000Y-124500D03*
X-191500D03*
X-197000D03*
X-199500Y-63900D03*
Y-52100D03*
X-203400Y-24500D03*
X-204100Y-27300D03*
X-199500Y-15000D03*
X-198100Y-2200D03*
X-197600Y2800D03*
X-198790Y25830D03*
X-195420Y26460D03*
X-191927Y47427D03*
X-196230Y38450D03*
X-196300Y45500D03*
X-188100Y-418500D03*
Y-415000D03*
X-189700Y-338200D03*
X-187200Y-326300D03*
X-188500Y-329800D03*
X-190800Y-333800D03*
X-181100Y-327200D03*
X-187100Y-309200D03*
X-182100Y-305200D03*
X-187100D03*
X-185600Y-293200D03*
X-189900Y-170400D03*
X-190600Y-166700D03*
X-188900Y-158500D03*
X-190100Y-162900D03*
X-190000Y-149500D03*
X-184300Y-152800D03*
X-185400Y-136700D03*
X-189900Y-140800D03*
X-185500Y-124500D03*
X-188100Y-15300D03*
X-183650Y4890D03*
X-182700Y22500D03*
X-190230Y38290D03*
X-190260Y26690D03*
X-190300Y45800D03*
X-171100Y-335200D03*
X-166100D03*
X-169100Y-331200D03*
X-165600Y-327200D03*
X-170600Y-327700D03*
X-176100Y-327200D03*
X-169600Y-307700D03*
X-165100Y-296700D03*
X-175600Y-304700D03*
X-164600Y-307200D03*
X-169600Y-304200D03*
Y-300200D03*
Y-295700D03*
X-167100Y-292700D03*
X-176100Y-293200D03*
X-169000Y-162500D03*
X-171000Y-166500D03*
X-166000D03*
X-165500Y-158500D03*
X-170500Y-159000D03*
X-171600Y-153200D03*
X-176600Y-153700D03*
X-169500Y-131500D03*
Y-135500D03*
Y-139000D03*
X-164500Y-138500D03*
X-175500Y-136000D03*
X-165000Y-128000D03*
X-169500Y-127000D03*
X-176000Y-124500D03*
X-167000Y-124000D03*
X-167800Y-1600D03*
X-175200D03*
X-165500Y6300D03*
Y13600D03*
X-165600Y18700D03*
X-168500Y31300D03*
X-149800Y-358400D03*
Y-354100D03*
Y-350000D03*
X-149700Y-346200D03*
X-161600Y-335200D03*
X-159600Y-327200D03*
Y-296200D03*
X-160100Y-307200D03*
X-162600Y-292700D03*
X-161500Y-166500D03*
X-159500Y-158500D03*
X-162000Y-153700D03*
X-160000Y-138500D03*
X-162500Y-124000D03*
X-159500Y-127500D03*
X-154900Y-72100D03*
X-162600Y-15100D03*
X-159800Y-3600D03*
X-141100Y-436400D03*
X-135600Y-441600D03*
X-141500Y-441900D03*
X-147800Y-441800D03*
Y-437700D03*
X-147900Y-433600D03*
X-138600Y-427700D03*
X-147900Y-428600D03*
X-142600Y-355400D03*
X-136200Y-361200D03*
X-144400D03*
X-144125Y-200120D03*
X-140125Y-199620D03*
X-143872Y-204127D03*
X-143625Y-208620D03*
X-138372Y-203627D03*
X-138125Y-208120D03*
X-144372Y-186627D03*
X-140872D03*
X-137372D03*
X-144372Y-195627D03*
X-140372Y-195127D03*
X-135500Y-436700D03*
X-133600Y-431200D03*
X-135200Y-355500D03*
X-134300Y-348500D03*
X-115800Y-364900D03*
X-109300Y-374600D03*
X-109600Y-370500D03*
X-110800Y-365900D03*
X-101800Y-369200D03*
X-101900Y-364900D03*
X-104200Y-373900D03*
X-104600Y-370600D03*
X-104700Y-366100D03*
X-98600Y-350600D03*
X-96480Y-239520D03*
X-98900Y-233500D03*
X-95390Y-121410D03*
X-99500Y-114500D03*
X-102300Y-72400D03*
X-102400Y-55500D03*
X-105400Y-39300D03*
X-101000Y-30300D03*
X-106300Y-5500D03*
X-99000Y-9800D03*
X-101600Y700D03*
X-94300Y-900D03*
X-107800Y17700D03*
X-97900Y15000D03*
X-95400Y24400D03*
X-107100Y31500D03*
X-92131Y-357631D03*
X-93128Y-355072D03*
X-89610Y-360190D03*
X-86700Y-264800D03*
X-82500D03*
X-88921Y-242079D03*
X-92539Y-236961D03*
X-82600Y-142700D03*
X-85300Y-146900D03*
X-92449Y-118851D03*
X-89900Y-123969D03*
X-85100Y-65300D03*
X-80500Y-47700D03*
X-91400Y-3300D03*
X-80800Y-14100D03*
X-92449Y-14851D03*
X-90400Y-6200D03*
X-81500Y42700D03*
X-68500Y-360531D03*
X-72041Y-355072D03*
X-68500Y-242420D03*
X-72041Y-236961D03*
X-74900Y-185500D03*
X-74600Y-165200D03*
X-68500Y-124310D03*
X-72041Y-118851D03*
X-74400Y-89700D03*
X-76700Y-69900D03*
X-75300Y-55500D03*
X-77200Y-33700D03*
X-73700Y-27800D03*
X-68500Y-6200D03*
X-72041Y-741D03*
X-69400Y12400D03*
X-71200Y18400D03*
X-68200Y43900D03*
X-60300Y-439200D03*
X-53700Y-367300D03*
X-52750Y-249050D03*
X-54300Y-130300D03*
X-61600Y-114500D03*
X-61300Y-88100D03*
X-59500Y-53200D03*
X-53900Y-44900D03*
X-54200Y-39600D03*
X-60900Y-11300D03*
X-54600Y19800D03*
X-39600Y-380331D03*
X-49200Y-367500D03*
X-44700Y-366600D03*
X-43700Y-342231D03*
X-49900Y-276200D03*
X-42550Y-272750D03*
X-39600Y-262220D03*
X-48000Y-249100D03*
X-43500Y-248200D03*
X-43700Y-224120D03*
X-47600Y-157500D03*
X-39600Y-144110D03*
X-45150Y-153750D03*
X-41700Y-151700D03*
X-47000Y-130600D03*
X-43300Y-125100D03*
X-43700Y-106010D03*
X-49300Y-51000D03*
X-39600Y-26000D03*
X-50900Y-11700D03*
X-51500Y-1800D03*
X-43700Y12100D03*
X-45000Y27400D03*
X-30400Y-376531D03*
X-37956Y-364675D03*
X-33100Y-374231D03*
X-28036Y-369095D03*
X-28300Y-358531D03*
X-28279Y-349410D03*
X-37956Y-336687D03*
X-32000Y-343331D03*
X-37100Y-272700D03*
X-33100Y-256120D03*
X-30400Y-258420D03*
X-37956Y-246564D03*
X-28036Y-250984D03*
X-28300Y-240420D03*
X-28279Y-231299D03*
X-32000Y-225220D03*
X-37956Y-218576D03*
Y-128454D03*
X-33100Y-138010D03*
X-28036Y-132874D03*
X-30400Y-140310D03*
X-28300Y-122310D03*
X-37956Y-100466D03*
X-28279Y-113189D03*
X-32000Y-107110D03*
X-33100Y-19900D03*
X-30400Y-22200D03*
X-37956Y-10344D03*
X-28300Y-4200D03*
X-28036Y-14764D03*
X-28279Y4921D03*
X-37956Y17644D03*
X-32000Y11000D03*
X-22600Y-387831D03*
X-17705Y-367126D03*
X-17500Y-357931D03*
X-17616Y-355315D03*
X-15800Y-336231D03*
X-17605Y-341536D03*
X-17790Y-347441D03*
X-17758Y-345473D03*
X-15400Y-324331D03*
X-14936Y-317295D03*
X-22600Y-269720D03*
X-17500Y-239820D03*
X-17705Y-249015D03*
X-17616Y-237204D03*
X-17790Y-229330D03*
X-17758Y-227362D03*
X-15800Y-218120D03*
X-17605Y-223425D03*
X-14936Y-199184D03*
X-15400Y-206220D03*
X-22600Y-151610D03*
X-17705Y-130905D03*
X-17500Y-121710D03*
X-17616Y-119094D03*
X-15800Y-100010D03*
X-17605Y-105315D03*
X-17790Y-111220D03*
X-17758Y-109252D03*
X-15400Y-88110D03*
X-14936Y-81074D03*
X-14100Y-43800D03*
X-18800Y-41100D03*
X-22600Y-33500D03*
X-17500Y-3600D03*
X-17705Y-12795D03*
X-17758Y8858D03*
X-17790Y6890D03*
X-17616Y-984D03*
X-17605Y12795D03*
X-15800Y18100D03*
X-14936Y37036D03*
X-15400Y30000D03*
X-4200Y-439200D03*
X-8616Y-392015D03*
X-5168Y-382000D03*
X-8858Y-381900D03*
X-100Y-382331D03*
X-9600Y-387700D03*
X984Y-371847D03*
X-6890Y-371621D03*
X-10827Y-371558D03*
X-4700Y-363931D03*
X-4800Y-354231D03*
X-4900Y-349631D03*
X-4700Y-359031D03*
X-6890Y-337121D03*
X-2953Y-337184D03*
X-4700Y-345131D03*
X984Y-326147D03*
X-4900Y-321931D03*
X-8000Y-325831D03*
X-8616Y-273904D03*
X-9160Y-269660D03*
X984Y-253736D03*
X-6890Y-253510D03*
X-10827Y-253447D03*
X-5168Y-263700D03*
X-9268Y-263768D03*
X-100Y-264220D03*
X-4700Y-245820D03*
Y-240920D03*
Y-227020D03*
X-4800Y-236120D03*
X-4900Y-231520D03*
X-6890Y-219010D03*
X-2953Y-219073D03*
X984Y-208036D03*
X-4900Y-203820D03*
X-8000Y-207720D03*
X-8616Y-155794D03*
X-5000Y-145600D03*
X-8858Y-145500D03*
X-100Y-146110D03*
X-9700Y-151600D03*
X984Y-135626D03*
X-6890Y-135400D03*
X-10827Y-135337D03*
X-4700Y-127710D03*
X-4800Y-118010D03*
X-4700Y-122810D03*
X-6890Y-100900D03*
X-2953Y-100963D03*
X-4700Y-108910D03*
X-4900Y-113410D03*
X984Y-89926D03*
X-8000Y-89610D03*
X-4900Y-85710D03*
X-8616Y-37684D03*
X-9400Y-33200D03*
X-10827Y-17227D03*
X-6890Y-17290D03*
X984Y-17516D03*
X-5168Y-27600D03*
X-8858Y-27400D03*
X-100Y-28000D03*
X-4700Y-4700D03*
Y-9600D03*
X-4900Y4700D03*
X-4800Y100D03*
X-4700Y9200D03*
X-2953Y17147D03*
X-6890Y17210D03*
X984Y28184D03*
X-4900Y32400D03*
X-8000Y28500D03*
X7300Y-394231D03*
X12795Y-382126D03*
X2953Y-382178D03*
X16000Y-382131D03*
X5900Y-382431D03*
X11500Y-371631D03*
X8858Y-371589D03*
X5100Y-363931D03*
X5300Y-354331D03*
X5200Y-349931D03*
Y-358931D03*
X2953Y-337178D03*
X14764Y-337095D03*
X10827Y-337204D03*
X5200Y-345331D03*
X4921Y-325910D03*
X8858Y-326173D03*
X12800Y-320131D03*
X7300Y-276120D03*
X11500Y-253520D03*
X8858Y-253478D03*
X12795Y-264015D03*
X2953Y-264067D03*
X16000Y-264020D03*
X5900Y-264320D03*
X5200Y-240820D03*
X5100Y-245820D03*
X5200Y-227220D03*
X5300Y-236220D03*
X5200Y-231820D03*
X2953Y-219067D03*
X14764Y-218984D03*
X10827Y-219093D03*
X8858Y-208062D03*
X12800Y-202020D03*
X4921Y-207799D03*
X7300Y-158010D03*
X12795Y-145905D03*
X2953Y-145957D03*
X16000Y-145910D03*
X5900Y-146210D03*
X11500Y-135410D03*
X8858Y-135368D03*
X5100Y-127710D03*
X5300Y-118110D03*
X5200Y-122710D03*
X2953Y-100957D03*
X14764Y-100874D03*
X10827Y-100983D03*
X5200Y-109110D03*
Y-113710D03*
X8858Y-89952D03*
X4921Y-89689D03*
X12800Y-83910D03*
X7300Y-39900D03*
X8858Y-17258D03*
X11500Y-17300D03*
X2953Y-27847D03*
X12795Y-27795D03*
X16000Y-27800D03*
X5900Y-28100D03*
X5100Y-9600D03*
X5200Y-4600D03*
Y4400D03*
X5300Y0D03*
X5200Y9000D03*
X10827Y17127D03*
X14764Y17236D03*
X2953Y17153D03*
X8858Y28158D03*
X12800Y34200D03*
X4921Y28421D03*
X6890Y34590D03*
X17227Y-365158D03*
X28000Y-364631D03*
X17616Y-353347D03*
X17353Y-357284D03*
X27800Y-352031D03*
X27700Y-361231D03*
X17558Y-345473D03*
X28273Y-343504D03*
X21300Y-315100D03*
X18500Y-289500D03*
X17353Y-239173D03*
X17227Y-247047D03*
X28000Y-246520D03*
X27700Y-243120D03*
X17558Y-227362D03*
X17616Y-235236D03*
X28273Y-225393D03*
X27800Y-233920D03*
X22980Y-197480D03*
X26900Y-192800D03*
X17227Y-128937D03*
X28000Y-128410D03*
X17616Y-117126D03*
X17353Y-121063D03*
X27800Y-115810D03*
X27700Y-125010D03*
X17558Y-109252D03*
X28273Y-107283D03*
X17610Y-78790D03*
X25490Y-70510D03*
X17227Y-10827D03*
X28000Y-10300D03*
X27700Y-6900D03*
X17353Y-2953D03*
X17616Y984D03*
X17558Y8858D03*
X27800Y2300D03*
X28273Y10827D03*
X43400Y-382131D03*
X40400Y-369031D03*
X40448Y-355379D03*
X31416Y-352015D03*
X40750Y-331281D03*
X30469Y-315369D03*
X34400Y-315031D03*
X37800Y-319931D03*
X43400Y-264020D03*
X40400Y-250920D03*
X40448Y-237268D03*
X31416Y-233904D03*
X40750Y-213170D03*
X37800Y-201820D03*
X34400Y-196920D03*
X40000Y-169800D03*
X43400Y-145910D03*
X40400Y-132810D03*
X40448Y-119158D03*
X34700Y-114700D03*
X40750Y-95060D03*
X37800Y-83710D03*
X34400Y-78810D03*
X43400Y-27800D03*
X40400Y-14700D03*
X40448Y-1048D03*
X31416Y2316D03*
X40750Y23050D03*
X37800Y34400D03*
X34400Y39300D03*
X30300Y39400D03*
X44200Y-355131D03*
Y-237020D03*
Y-118910D03*
X44300Y6000D03*
X44200Y-800D03*
X62400Y-285300D03*
X61200Y-241700D03*
X63000Y-228100D03*
X70600Y-10100D03*
X64900Y6700D03*
X80900Y-381631D03*
X80154Y-364675D03*
X85300Y-374231D03*
X83800Y-353931D03*
X80154Y-336687D03*
X85300Y-256120D03*
X80900Y-263520D03*
X80154Y-246564D03*
X83800Y-235820D03*
X80154Y-218576D03*
X73900Y-165900D03*
X80900Y-145410D03*
X80154Y-128454D03*
X85300Y-138010D03*
X83800Y-117710D03*
X80154Y-100466D03*
X85300Y-19900D03*
X80900Y-27300D03*
X80154Y-10344D03*
X76400Y4900D03*
X83800Y400D03*
X80154Y17644D03*
X99200Y-389431D03*
X87800Y-376431D03*
X90074Y-369095D03*
X89810Y-358531D03*
X89831Y-349410D03*
X86000Y-343631D03*
X99200Y-271320D03*
X87800Y-258320D03*
X89810Y-240420D03*
X90074Y-250984D03*
X89831Y-231299D03*
X86000Y-225520D03*
X99200Y-153210D03*
X90074Y-132874D03*
X87800Y-140210D03*
X89810Y-122310D03*
X89831Y-113189D03*
X86000Y-107410D03*
X99200Y-35100D03*
X87800Y-22100D03*
X89810Y-4200D03*
X90074Y-14764D03*
X89831Y4921D03*
X90600Y17800D03*
X86000Y10700D03*
X109494Y-392015D03*
X113200Y-382131D03*
X109252Y-382289D03*
X105150Y-387081D03*
X111220Y-371621D03*
X107283Y-371558D03*
X100405Y-367126D03*
X100610Y-357931D03*
X100494Y-355315D03*
X102310Y-336231D03*
X111220Y-337121D03*
X100505Y-341536D03*
X100320Y-347441D03*
X100352Y-345473D03*
X101300Y-325531D03*
X110400Y-323431D03*
X103174Y-317295D03*
X110400Y-299700D03*
X106900Y-283700D03*
X109494Y-273904D03*
X105150Y-268970D03*
X111220Y-253510D03*
X107283Y-253447D03*
X113200Y-264020D03*
X109252Y-264178D03*
X100610Y-239820D03*
X100405Y-249015D03*
X100494Y-237204D03*
X100320Y-229330D03*
X100352Y-227362D03*
X102310Y-218120D03*
X111220Y-219010D03*
X100505Y-223425D03*
X103174Y-199184D03*
X101300Y-207420D03*
X110400Y-205320D03*
X109494Y-155794D03*
X113200Y-145910D03*
X109252Y-146068D03*
X105150Y-150860D03*
X111220Y-135400D03*
X107283Y-135337D03*
X100405Y-130905D03*
X100610Y-121710D03*
X100494Y-119094D03*
X102310Y-100010D03*
X111220Y-100900D03*
X100505Y-105315D03*
X100320Y-111220D03*
X100352Y-109252D03*
X101300Y-89310D03*
X110400Y-87210D03*
X103174Y-81074D03*
X109494Y-37684D03*
X105150Y-32750D03*
X107283Y-17227D03*
X111220Y-17290D03*
X113200Y-27800D03*
X109252Y-27958D03*
X100610Y-3600D03*
X100405Y-12795D03*
X100352Y8858D03*
X100320Y6890D03*
X100494Y-984D03*
X111220Y17210D03*
X100505Y12795D03*
X102310Y18100D03*
X103174Y37036D03*
X101300Y28800D03*
X110400Y30900D03*
X118100Y-394231D03*
X121063Y-382178D03*
X123400Y-382531D03*
X118010Y-382331D03*
X126968Y-371589D03*
X119094Y-371847D03*
X113410Y-363931D03*
X123210D03*
X113210Y-349631D03*
X113310Y-354231D03*
X123310Y-349931D03*
X123410Y-354331D03*
X113410Y-359031D03*
X123310Y-358931D03*
X115157Y-337184D03*
X121063Y-337178D03*
X113410Y-345131D03*
X123310Y-345331D03*
X123100Y-326331D03*
X126968Y-326173D03*
X119094Y-326147D03*
X114300Y-320931D03*
X125000Y-318331D03*
X118100Y-276120D03*
X126968Y-253478D03*
X119094Y-253736D03*
X121063Y-264067D03*
X123400Y-264420D03*
X118010Y-264220D03*
X113410Y-240920D03*
Y-245820D03*
X123310Y-240820D03*
X123210Y-245820D03*
X113210Y-231520D03*
X113310Y-236120D03*
X113410Y-227020D03*
X123310Y-231820D03*
X123410Y-236220D03*
X123310Y-227220D03*
X115157Y-219073D03*
X121063Y-219067D03*
X126968Y-208062D03*
X119094Y-208036D03*
X114300Y-202820D03*
X123100Y-208220D03*
X125000Y-200220D03*
X122900Y-165500D03*
X118100Y-158010D03*
X121063Y-145957D03*
X123400Y-146310D03*
X118010Y-146110D03*
X126968Y-135368D03*
X119094Y-135626D03*
X113410Y-127710D03*
X123210D03*
X113310Y-118010D03*
X123410Y-118110D03*
X113410Y-122810D03*
X123310Y-122710D03*
X115157Y-100963D03*
X121063Y-100957D03*
X113210Y-113410D03*
X113410Y-108910D03*
X123310Y-113710D03*
Y-109110D03*
X126968Y-89952D03*
X119094Y-89926D03*
X123100Y-90110D03*
X114300Y-84710D03*
X125000Y-82110D03*
X118100Y-39900D03*
X126968Y-17258D03*
X119094Y-17516D03*
X121063Y-27847D03*
X123400Y-28200D03*
X118010Y-28000D03*
X123210Y-9600D03*
X123310Y-4600D03*
X113410Y-9600D03*
Y-4700D03*
X123310Y9000D03*
X123410Y0D03*
X123310Y4400D03*
X113410Y9200D03*
X113310Y100D03*
X113210Y4700D03*
X121063Y17153D03*
X115157Y17147D03*
X125000Y36000D03*
X126968Y28158D03*
X119094Y28184D03*
X114300Y33400D03*
X123100Y28000D03*
X139600Y-403200D03*
X132700Y-392031D03*
X130905Y-382126D03*
X134110Y-382431D03*
X135337Y-365158D03*
X129610Y-371631D03*
X135726Y-353347D03*
X135463Y-357284D03*
X132874Y-337095D03*
X128937Y-337204D03*
X135668Y-345473D03*
X130900Y-319031D03*
X139600Y-283400D03*
X132700Y-273920D03*
X129610Y-253520D03*
X130905Y-264015D03*
X134110Y-264320D03*
X135463Y-239173D03*
X135337Y-247047D03*
X135668Y-227362D03*
X135726Y-235236D03*
X132874Y-218984D03*
X128937Y-219093D03*
X130900Y-200920D03*
X132700Y-155810D03*
X130905Y-145905D03*
X134110Y-146210D03*
X135337Y-128937D03*
X129610Y-135410D03*
X135726Y-117126D03*
X135463Y-121063D03*
X132874Y-100874D03*
X128937Y-100983D03*
X135668Y-109252D03*
X130900Y-82810D03*
X132700Y-37700D03*
X129610Y-17300D03*
X130905Y-27795D03*
X134110Y-28100D03*
X135337Y-10827D03*
X135463Y-2953D03*
X135726Y984D03*
X135668Y8858D03*
X128937Y17127D03*
X132874Y17236D03*
X130900Y35300D03*
X146110Y-364631D03*
X145910Y-352031D03*
X145810Y-361231D03*
X149526Y-352105D03*
X153300Y-344900D03*
X146383Y-343504D03*
X152700Y-324100D03*
X150300Y-315031D03*
X141200Y-298400D03*
X146110Y-246520D03*
X145810Y-243120D03*
X146383Y-225393D03*
X145910Y-233920D03*
X150800Y-233300D03*
X154000Y-213200D03*
X153500Y-201100D03*
X150500Y-197800D03*
X145800Y-197900D03*
X148300Y-165500D03*
X146110Y-128410D03*
X145810Y-125010D03*
X145910Y-115810D03*
X152000Y-114800D03*
X146383Y-107283D03*
X153000Y-86600D03*
X150300Y-78810D03*
X145810Y-6900D03*
X146110Y-10300D03*
X145910Y2300D03*
X149526Y2226D03*
X146383Y10827D03*
X150300Y39300D03*
X152900Y39000D03*
X155000Y-402300D03*
X155100Y-365000D03*
X158558Y-355379D03*
X161525Y-355427D03*
X155600Y-329400D03*
X158300Y-250620D03*
X161400Y-238500D03*
X158558Y-237268D03*
X165300Y-134200D03*
X158300Y-132510D03*
X158558Y-119158D03*
X161400Y-119800D03*
X155700Y-89300D03*
X157000Y-98000D03*
X158300Y-14400D03*
X158558Y-1048D03*
X161900Y500D03*
X158900Y23050D03*
X155900Y35100D03*
X181600Y-402800D03*
X178900Y-369500D03*
X178700Y-362900D03*
X179000Y-355400D03*
X171400Y-342900D03*
X180700Y-282900D03*
X178800Y-242100D03*
X176800Y-233200D03*
X177700Y-226100D03*
X180500Y-217500D03*
X171300Y-209300D03*
X178400Y-185100D03*
X179700Y-145700D03*
Y-133200D03*
X177100Y-125400D03*
X176400Y-113500D03*
X176700Y-107500D03*
X172000Y-89910D03*
X175900Y-99100D03*
X176800Y-27600D03*
X179000Y-6200D03*
X178700Y1400D03*
X178200Y11200D03*
X175600Y19200D03*
X172000Y28200D03*
X192800Y-402500D03*
X193400Y-368500D03*
X189400Y-351400D03*
X195200Y-355800D03*
X192700Y-344700D03*
X187300Y-340700D03*
X191800Y-251600D03*
X187100Y-234200D03*
X195100Y-224820D03*
X188600Y-218720D03*
X188500Y-211900D03*
X188100Y-205620D03*
X191100Y-185500D03*
X183600Y-116100D03*
X195100Y-106710D03*
X188600Y-100610D03*
X188200Y-94500D03*
X194700Y-91500D03*
X193600Y-27900D03*
X193000Y-16100D03*
X183500Y-16300D03*
X194200Y1300D03*
X195100Y11400D03*
X188600Y17500D03*
X188100Y25241D03*
Y30600D03*
X199800Y-381831D03*
X205800Y-376831D03*
X198264Y-364675D03*
X203100Y-374231D03*
X208184Y-369095D03*
X206500Y-353800D03*
X207920Y-358531D03*
X207941Y-349410D03*
X201400Y-353931D03*
X198264Y-336687D03*
X203800Y-345031D03*
X207100Y-283100D03*
X203100Y-256120D03*
X199800Y-263720D03*
X205800Y-258720D03*
X198264Y-246564D03*
X207920Y-240420D03*
X208184Y-250984D03*
X197500Y-230600D03*
X207941Y-231299D03*
X201400Y-235820D03*
X203800Y-226920D03*
X198264Y-218576D03*
X209600Y-183300D03*
X196300Y-145300D03*
X199800Y-145610D03*
X198264Y-128454D03*
X203100Y-138010D03*
X208184Y-132874D03*
X205800Y-140610D03*
X207920Y-122310D03*
X201400Y-117710D03*
X198264Y-100466D03*
X207941Y-113189D03*
X203800Y-108810D03*
X203100Y-19900D03*
X199800Y-27500D03*
X205800Y-22500D03*
X198264Y-10344D03*
X207920Y-4200D03*
X208184Y-14764D03*
X207941Y4921D03*
X203800Y9300D03*
X201400Y400D03*
X198264Y17644D03*
X217400Y-403500D03*
X223250Y-387081D03*
X216700Y-389431D03*
X218515Y-367126D03*
X218720Y-357931D03*
X218604Y-355315D03*
X220420Y-336231D03*
X218615Y-341536D03*
X218430Y-347441D03*
X218462Y-345473D03*
X221056Y-323295D03*
X221284Y-317295D03*
X216700Y-271320D03*
X223250Y-268970D03*
X218720Y-239820D03*
X218515Y-249015D03*
X218604Y-237204D03*
X218430Y-229330D03*
X218462Y-227362D03*
X220420Y-218120D03*
X218615Y-223425D03*
X221284Y-199184D03*
X221056Y-205184D03*
X216700Y-153210D03*
X223250Y-150860D03*
X218515Y-130905D03*
X218720Y-121710D03*
X218604Y-119094D03*
X220420Y-100010D03*
X218615Y-105315D03*
X218430Y-111220D03*
X218462Y-109252D03*
X221056Y-87074D03*
X223250Y-32750D03*
X216700Y-35100D03*
X218720Y-3600D03*
X218515Y-12795D03*
X218462Y8858D03*
X218430Y6890D03*
X218604Y-984D03*
X218615Y12795D03*
X220420Y18100D03*
X221284Y37036D03*
X221056Y31036D03*
X227604Y-392015D03*
X235800Y-394231D03*
X231299Y-382631D03*
X227362Y-382289D03*
X236120Y-382331D03*
X237204Y-371847D03*
X229330Y-371621D03*
X225393Y-371558D03*
X231520Y-363931D03*
X231320Y-349631D03*
X231420Y-354231D03*
X231520Y-359031D03*
X229330Y-337121D03*
X233267Y-337184D03*
X231520Y-345131D03*
X237204Y-326147D03*
X229100Y-321831D03*
X228200Y-325931D03*
X227604Y-273904D03*
X235800Y-276120D03*
X237204Y-253736D03*
X229330Y-253510D03*
X225393Y-253447D03*
X231299Y-264520D03*
X227362Y-264178D03*
X236120Y-264220D03*
X231520Y-240920D03*
Y-245820D03*
X231320Y-231520D03*
X231420Y-236120D03*
X231520Y-227020D03*
X229330Y-219010D03*
X233267Y-219073D03*
X237204Y-208036D03*
X229100Y-203720D03*
X228200Y-207820D03*
X227604Y-155794D03*
X235800Y-158010D03*
X231299Y-146410D03*
X227362Y-146068D03*
X236120Y-146110D03*
X237204Y-135626D03*
X229330Y-135400D03*
X225393Y-135337D03*
X231520Y-127710D03*
X231420Y-118010D03*
X231520Y-122810D03*
X229330Y-100900D03*
X233267Y-100963D03*
X231320Y-113410D03*
X231520Y-108910D03*
X237204Y-89926D03*
X228200Y-89710D03*
X224600Y-76900D03*
X229100Y-85610D03*
X227604Y-37684D03*
X235800Y-39900D03*
X225393Y-17227D03*
X229330Y-17290D03*
X237204Y-17516D03*
X231299Y-28300D03*
X227362Y-27958D03*
X236120Y-28000D03*
X231520Y-9600D03*
Y-4700D03*
Y9200D03*
X231420Y100D03*
X231320Y4700D03*
X233267Y17147D03*
X229330Y17210D03*
X237204Y28184D03*
X229100Y32500D03*
X228200Y28400D03*
X244300Y-402600D03*
X249015Y-382126D03*
X239173Y-382178D03*
X242120Y-382431D03*
X247720Y-371631D03*
X245078Y-371589D03*
X241320Y-363931D03*
X241420Y-349931D03*
X241520Y-354331D03*
X241420Y-358931D03*
X250900Y-337231D03*
X239173Y-337178D03*
X247047Y-337204D03*
X241420Y-345331D03*
X241200Y-325931D03*
X245400Y-326131D03*
X243300Y-319231D03*
X249100Y-319831D03*
X247720Y-253520D03*
X245078Y-253478D03*
X249015Y-264015D03*
X239173Y-264067D03*
X242120Y-264320D03*
X241420Y-240820D03*
X241320Y-245820D03*
X241420Y-231820D03*
X241520Y-236220D03*
X241420Y-227220D03*
X250900Y-219120D03*
X239173Y-219067D03*
X247047Y-219093D03*
X245400Y-208020D03*
X243300Y-201120D03*
X249100Y-201720D03*
X241200Y-207820D03*
X249015Y-145905D03*
X239173Y-145957D03*
X242120Y-146210D03*
X247720Y-135410D03*
X245078Y-135368D03*
X241320Y-127710D03*
X241520Y-118110D03*
X241420Y-122710D03*
X250900Y-101010D03*
X239173Y-100957D03*
X247047Y-100983D03*
X241420Y-113710D03*
Y-109110D03*
X245400Y-89910D03*
X241200Y-89710D03*
X243300Y-83010D03*
X249100Y-83610D03*
X245078Y-17258D03*
X247720Y-17300D03*
X239173Y-27847D03*
X249015Y-27795D03*
X242120Y-28100D03*
X241320Y-9600D03*
X241420Y-4600D03*
Y9000D03*
X241520Y0D03*
X241420Y4400D03*
X247047Y17127D03*
X250900Y17100D03*
X239173Y17153D03*
X243300Y35100D03*
X245400Y28200D03*
X249100Y34500D03*
X241200Y28400D03*
X252200Y-382031D03*
X257500D03*
X253447Y-365158D03*
X264220Y-364631D03*
X253836Y-353347D03*
X253573Y-357284D03*
X264020Y-352031D03*
X263920Y-361231D03*
X253778Y-345473D03*
X264493Y-343504D03*
X264500Y-315331D03*
X252200Y-263920D03*
X257500D03*
X253573Y-239173D03*
X253447Y-247047D03*
X263920Y-243120D03*
X264220Y-246520D03*
X253778Y-227362D03*
X253836Y-235236D03*
X264493Y-225393D03*
X264020Y-233920D03*
X264500Y-197220D03*
X257500Y-145810D03*
X252200D03*
X253447Y-128937D03*
X264220Y-128410D03*
X253836Y-117126D03*
X253573Y-121063D03*
X263920Y-125010D03*
X264020Y-115810D03*
X253778Y-109252D03*
X264493Y-107283D03*
X263200Y-83200D03*
X257500Y-27700D03*
X252200D03*
X253447Y-10827D03*
X264220Y-10300D03*
X263920Y-6900D03*
X253573Y-2953D03*
X253836Y984D03*
X253778Y8858D03*
X264020Y2300D03*
X264493Y10827D03*
X264500Y39000D03*
X277590Y-367721D03*
X277400Y-373231D03*
X276668Y-355379D03*
X267636Y-352095D03*
X274100Y-331931D03*
X271100Y-320831D03*
X267600Y-315531D03*
X277400Y-255120D03*
X277590Y-249610D03*
X276668Y-237268D03*
X267636Y-233984D03*
X274100Y-213820D03*
X267600Y-197420D03*
X271100Y-202720D03*
X277590Y-131500D03*
X277400Y-137010D03*
X276668Y-119158D03*
X269900Y-115100D03*
X274100Y-95710D03*
X271100Y-84610D03*
X267600Y-79310D03*
X277400Y-18900D03*
X277590Y-13390D03*
X276668Y-1048D03*
X267636Y2236D03*
X274100Y22400D03*
X271100Y33500D03*
X267600Y38800D03*
X285300Y-404100D03*
X281400Y-353931D03*
Y-235820D03*
Y-117710D03*
Y400D03*
X290000Y11800D03*
X299800Y-358700D03*
X298600Y-346900D03*
X297000Y-243600D03*
X301200Y-226900D03*
X294100Y-124400D03*
X296500Y-108700D03*
X296300Y-2400D03*
X316500Y-381731D03*
X316375Y-364675D03*
X319600Y-373931D03*
X320000Y-354431D03*
X316375Y-336687D03*
X319600Y-255820D03*
X316500Y-263620D03*
X316375Y-246564D03*
X320000Y-236320D03*
X316375Y-218576D03*
X316500Y-145510D03*
X316375Y-128454D03*
X319600Y-137710D03*
X320000Y-118210D03*
X316375Y-100466D03*
X319600Y-19600D03*
X316500Y-27400D03*
X316375Y-10344D03*
X320000Y-100D03*
X316375Y17644D03*
X327600Y-402300D03*
X326295Y-369095D03*
X323300Y-375931D03*
X326052Y-349410D03*
X326031Y-358531D03*
X321400Y-344331D03*
X323300Y-257820D03*
X326031Y-240420D03*
X326295Y-250984D03*
X326052Y-231299D03*
X321400Y-226220D03*
X326295Y-132874D03*
X323300Y-139710D03*
X326031Y-122310D03*
X326052Y-113189D03*
X321400Y-108110D03*
X326100Y-37500D03*
X323300Y-21600D03*
X326031Y-4200D03*
X326295Y-14764D03*
X326052Y4921D03*
X321400Y10000D03*
X327600Y18300D03*
X345715Y-392015D03*
X345473Y-382289D03*
X341350Y-387081D03*
X334900Y-389431D03*
X347441Y-371621D03*
X343504Y-371558D03*
X336626Y-367126D03*
X336831Y-357931D03*
X336715Y-355315D03*
X347441Y-337121D03*
X338531Y-336231D03*
X336726Y-341536D03*
X336541Y-347441D03*
X336573Y-345473D03*
X339167Y-323295D03*
X347100Y-321931D03*
X346400Y-326031D03*
X339395Y-317295D03*
X345715Y-273904D03*
X334900Y-271320D03*
X341350Y-268970D03*
X347441Y-253510D03*
X343504Y-253447D03*
X345473Y-264178D03*
X336831Y-239820D03*
X336626Y-249015D03*
X336715Y-237204D03*
X336541Y-229330D03*
X336573Y-227362D03*
X347441Y-219010D03*
X338531Y-218120D03*
X336726Y-223425D03*
X339395Y-199184D03*
X339167Y-205184D03*
X347100Y-203820D03*
X346400Y-207920D03*
X345715Y-155794D03*
X345473Y-146068D03*
X334900Y-153210D03*
X341350Y-150860D03*
X347441Y-135400D03*
X343504Y-135337D03*
X336626Y-130905D03*
X336831Y-121710D03*
X336715Y-119094D03*
X347441Y-100900D03*
X338531Y-100010D03*
X336726Y-105315D03*
X336541Y-111220D03*
X336573Y-109252D03*
X339167Y-87074D03*
X346400Y-89810D03*
X339395Y-81074D03*
X347100Y-85710D03*
X345715Y-37684D03*
X341350Y-32750D03*
X334900Y-35100D03*
X343504Y-17227D03*
X347441Y-17290D03*
X345473Y-27958D03*
X336831Y-3600D03*
X336626Y-12795D03*
X336573Y8858D03*
X336541Y6890D03*
X336715Y-984D03*
X347441Y17210D03*
X336726Y12795D03*
X338531Y18100D03*
X339395Y37036D03*
X339167Y31036D03*
X347100Y32400D03*
X346400Y28300D03*
X359700Y-401400D03*
X354900Y-394231D03*
X357284Y-382178D03*
X349400Y-382631D03*
X359800Y-382531D03*
X354231Y-382331D03*
X355315Y-371847D03*
X349631Y-363931D03*
X359431D03*
X349431Y-349631D03*
X349531Y-354231D03*
X359531Y-349931D03*
X359631Y-354331D03*
X349631Y-359031D03*
X359531Y-358931D03*
X351378Y-337184D03*
X357284Y-337178D03*
X349631Y-345131D03*
X359531Y-345331D03*
X359200Y-326031D03*
X355315Y-326147D03*
X361100Y-320831D03*
X354900Y-276120D03*
X355315Y-253736D03*
X357284Y-264067D03*
X349400Y-264520D03*
X359800Y-264420D03*
X354231Y-264220D03*
X349631Y-240920D03*
Y-245820D03*
X359531Y-240820D03*
X359431Y-245820D03*
X349431Y-231520D03*
X349531Y-236120D03*
X349631Y-227020D03*
X359531Y-231820D03*
X359631Y-236220D03*
X359531Y-227220D03*
X351378Y-219073D03*
X357284Y-219067D03*
X355315Y-208036D03*
X361100Y-202720D03*
X359200Y-207920D03*
X354900Y-158010D03*
X357284Y-145957D03*
X349400Y-146410D03*
X359800Y-146310D03*
X354231Y-146110D03*
X355315Y-135626D03*
X349631Y-127710D03*
X359431D03*
X349531Y-118010D03*
X359631Y-118110D03*
X349631Y-122810D03*
X359531Y-122710D03*
X351378Y-100963D03*
X357284Y-100957D03*
X349431Y-113410D03*
X349631Y-108910D03*
X359531Y-113710D03*
Y-109110D03*
X355315Y-89926D03*
X359200Y-89810D03*
X361100Y-84610D03*
X354900Y-39900D03*
X355315Y-17516D03*
X357284Y-27847D03*
X349400Y-28300D03*
X359800Y-28200D03*
X354231Y-28000D03*
X359431Y-9600D03*
X359531Y-4600D03*
X349631Y-9600D03*
Y-4700D03*
X359531Y9000D03*
X359631Y0D03*
X359531Y4400D03*
X349631Y9200D03*
X349531Y100D03*
X349431Y4700D03*
X357284Y17153D03*
X351378Y17147D03*
X361100Y33500D03*
X355315Y28184D03*
X359200Y28300D03*
X367126Y-382126D03*
X371000Y-381831D03*
X371558Y-365158D03*
X365831Y-371631D03*
X363189Y-371589D03*
X371947Y-353347D03*
X371684Y-357284D03*
X369095Y-337095D03*
X365158Y-337204D03*
X371889Y-345473D03*
X363189Y-326173D03*
X367100Y-320831D03*
X365831Y-253520D03*
X363189Y-253478D03*
X367126Y-264015D03*
X371000Y-263720D03*
X371684Y-239173D03*
X371558Y-247047D03*
X371889Y-227362D03*
X371947Y-235236D03*
X369095Y-218984D03*
X365158Y-219093D03*
X363189Y-208062D03*
X367100Y-202720D03*
X367126Y-145905D03*
X371000Y-145610D03*
X371558Y-128937D03*
X365831Y-135410D03*
X363189Y-135368D03*
X371947Y-117126D03*
X371684Y-121063D03*
X369095Y-100874D03*
X365158Y-100983D03*
X371889Y-109252D03*
X363189Y-89952D03*
X367100Y-84610D03*
X363189Y-17258D03*
X365831Y-17300D03*
X367126Y-27795D03*
X371000Y-27500D03*
X371558Y-10827D03*
X371684Y-2953D03*
X371947Y984D03*
X371889Y8858D03*
X365158Y17127D03*
X369095Y17236D03*
X363189Y28158D03*
X367100Y33500D03*
X387500Y-401100D03*
X384300Y-381831D03*
X382331Y-364631D03*
X382131Y-352031D03*
X382031Y-361231D03*
X385747Y-352084D03*
X382604Y-343504D03*
X388600Y-321331D03*
X385500Y-314731D03*
X382300Y-314531D03*
X384300Y-263720D03*
X382331Y-246520D03*
X382031Y-243120D03*
X382604Y-225393D03*
X382131Y-233920D03*
X385747Y-233973D03*
X388600Y-203220D03*
X382300Y-196420D03*
X385500Y-196620D03*
X384300Y-145610D03*
X382331Y-128410D03*
X382031Y-125010D03*
X382131Y-115810D03*
X388400Y-114600D03*
X382604Y-107283D03*
X388600Y-85110D03*
X382300Y-78310D03*
X385500Y-78510D03*
X384300Y-27500D03*
X382331Y-10300D03*
X382031Y-6900D03*
X382131Y2300D03*
X385747Y2247D03*
X382604Y10827D03*
X388600Y33000D03*
X385500Y39600D03*
X382300Y39800D03*
X395780Y-367611D03*
X395549Y-373280D03*
X394779Y-355379D03*
X398900Y-353431D03*
X391500Y-331931D03*
X395549Y-255169D03*
X395780Y-249500D03*
X394779Y-237268D03*
X398900Y-235320D03*
X391500Y-213820D03*
X395780Y-131390D03*
X395549Y-137059D03*
X394779Y-119158D03*
X398900Y-117210D03*
X391500Y-95710D03*
X395549Y-18949D03*
X395780Y-13280D03*
X392900Y5500D03*
X394779Y-1048D03*
X398900Y900D03*
X391500Y22400D03*
X413800Y-401400D03*
X415600Y-125000D03*
X415400Y8800D03*
X418000Y-359300D03*
X419900Y-348200D03*
X418300Y-242000D03*
X418900Y-228700D03*
X418000Y-108700D03*
X417300Y-4800D03*
X427800Y4900D03*
X441600Y-402900D03*
X435100Y-381931D03*
X441800Y-376731D03*
X434485Y-364675D03*
X438300Y-374631D03*
X444405Y-369095D03*
X444162Y-349410D03*
X444141Y-358531D03*
X438300Y-354531D03*
X434485Y-336687D03*
X439200Y-343631D03*
X438300Y-256520D03*
X435100Y-263820D03*
X441800Y-258620D03*
X434485Y-246564D03*
X444141Y-240420D03*
X444405Y-250984D03*
X444162Y-231299D03*
X438300Y-236420D03*
X439200Y-225520D03*
X434485Y-218576D03*
X435100Y-145710D03*
X434485Y-128454D03*
X438300Y-138410D03*
X444405Y-132874D03*
X441800Y-140510D03*
X444141Y-122310D03*
X438300Y-118310D03*
X434485Y-100466D03*
X444162Y-113189D03*
X439200Y-107410D03*
X438300Y-20300D03*
X435100Y-27600D03*
X441800Y-22400D03*
X434485Y-10344D03*
X444141Y-4200D03*
X444405Y-14764D03*
X444162Y4921D03*
X438300Y-200D03*
X434485Y17644D03*
X439200Y10700D03*
X453300Y-389431D03*
X454736Y-367126D03*
X454941Y-357931D03*
X454825Y-355315D03*
X456641Y-336231D03*
X454836Y-341536D03*
X454651Y-347441D03*
X454683Y-345473D03*
X457277Y-323295D03*
X457505Y-317295D03*
X453300Y-271320D03*
X454941Y-239820D03*
X454736Y-249015D03*
X454825Y-237204D03*
X454651Y-229330D03*
X454683Y-227362D03*
X456641Y-218120D03*
X454836Y-223425D03*
X457505Y-199184D03*
X457277Y-205184D03*
X453300Y-153210D03*
X454736Y-130905D03*
X454941Y-121710D03*
X454825Y-119094D03*
X456641Y-100010D03*
X454836Y-105315D03*
X454651Y-111220D03*
X454683Y-109252D03*
X457277Y-87074D03*
X457505Y-81074D03*
X453300Y-35100D03*
X454941Y-3600D03*
X454736Y-12795D03*
X454683Y8858D03*
X454651Y6890D03*
X454825Y-984D03*
X454836Y12795D03*
X456641Y18100D03*
X457505Y37036D03*
X457277Y31036D03*
X463825Y-392015D03*
X467500Y-382531D03*
X463583Y-382289D03*
X472341Y-382331D03*
X459150Y-387081D03*
X465551Y-371621D03*
X461614Y-371558D03*
X467741Y-363931D03*
X467541Y-349631D03*
X467641Y-354231D03*
X467741Y-359031D03*
X465551Y-337121D03*
X469488Y-337184D03*
X467741Y-345131D03*
X464900Y-321731D03*
X464400Y-326031D03*
X463825Y-273904D03*
X459150Y-268970D03*
X465551Y-253510D03*
X461614Y-253447D03*
X467500Y-264420D03*
X463583Y-264178D03*
X472341Y-264220D03*
X467741Y-240920D03*
Y-245820D03*
X467541Y-231520D03*
X467641Y-236120D03*
X467741Y-227020D03*
X465551Y-219010D03*
X469488Y-219073D03*
X464900Y-203620D03*
X464400Y-207920D03*
X463825Y-155794D03*
X467500Y-146310D03*
X463583Y-146068D03*
X472341Y-146110D03*
X459150Y-150860D03*
X465551Y-135400D03*
X461614Y-135337D03*
X467741Y-127710D03*
X467641Y-118010D03*
X467741Y-122810D03*
X465551Y-100900D03*
X469488Y-100963D03*
X467541Y-113410D03*
X467741Y-108910D03*
X464400Y-89810D03*
X464900Y-85510D03*
X463825Y-37684D03*
X459150Y-32750D03*
X461614Y-17227D03*
X465551Y-17290D03*
X467500Y-28200D03*
X463583Y-27958D03*
X472341Y-28000D03*
X467741Y-9600D03*
Y-4700D03*
Y9200D03*
X467641Y100D03*
X467541Y4700D03*
X469488Y17147D03*
X465551Y17210D03*
X464900Y32600D03*
X464400Y28300D03*
X473100Y-403200D03*
X473300Y-394231D03*
X485236Y-382126D03*
X475394Y-382178D03*
X478341Y-382431D03*
X473425Y-371847D03*
X483941Y-371631D03*
X481299Y-371589D03*
X477541Y-363931D03*
X477641Y-349931D03*
X477741Y-354331D03*
X477641Y-358931D03*
X475394Y-337178D03*
X483268Y-337204D03*
X477641Y-345331D03*
X477300Y-326031D03*
X473425Y-326147D03*
X481299Y-326173D03*
X479300Y-320031D03*
X485200Y-320331D03*
X473300Y-276120D03*
X473425Y-253736D03*
X483941Y-253520D03*
X481299Y-253478D03*
X485236Y-264015D03*
X475394Y-264067D03*
X478341Y-264320D03*
X477641Y-240820D03*
X477541Y-245820D03*
X477641Y-231820D03*
X477741Y-236220D03*
X477641Y-227220D03*
X475394Y-219067D03*
X483268Y-219093D03*
X479300Y-201920D03*
X473425Y-208036D03*
X481299Y-208062D03*
X485200Y-202220D03*
X477300Y-207920D03*
X473300Y-158010D03*
X485236Y-145905D03*
X475394Y-145957D03*
X478341Y-146210D03*
X473425Y-135626D03*
X483941Y-135410D03*
X481299Y-135368D03*
X477541Y-127710D03*
X477741Y-118110D03*
X477641Y-122710D03*
X475394Y-100957D03*
X483268Y-100983D03*
X477641Y-113710D03*
Y-109110D03*
X473425Y-89926D03*
X481299Y-89952D03*
X477300Y-89810D03*
X479300Y-83810D03*
X485200Y-84110D03*
X473300Y-39900D03*
X481299Y-17258D03*
X483941Y-17300D03*
X473425Y-17516D03*
X475394Y-27847D03*
X485236Y-27795D03*
X478341Y-28100D03*
X477541Y-9600D03*
X477641Y-4600D03*
Y9000D03*
X477741Y0D03*
X477641Y4400D03*
X483268Y17127D03*
X475394Y17153D03*
X482100Y33600D03*
X481299Y28158D03*
X473425Y28184D03*
X485200Y34000D03*
X479300Y34300D03*
X477300Y28300D03*
X496400Y-402600D03*
X488500Y-381831D03*
X500100D03*
X489668Y-365158D03*
X490057Y-353347D03*
X489794Y-357284D03*
X500141Y-361231D03*
X487205Y-337095D03*
X489999Y-345473D03*
X488500Y-263720D03*
X500100D03*
X489794Y-239173D03*
X489668Y-247047D03*
X500141Y-243120D03*
X489999Y-227362D03*
X490057Y-235236D03*
X487205Y-218984D03*
X500100Y-145610D03*
X488500D03*
X489668Y-128937D03*
X490057Y-117126D03*
X489794Y-121063D03*
X500141Y-125010D03*
X487205Y-100874D03*
X489999Y-109252D03*
X500100Y-27500D03*
X488500D03*
X489668Y-10827D03*
X500141Y-6900D03*
X489794Y-2953D03*
X490057Y984D03*
X489999Y8858D03*
X487205Y17236D03*
X489100Y28400D03*
X490600Y35500D03*
X500441Y-364631D03*
X514000Y-368231D03*
X512889Y-355379D03*
X500241Y-352031D03*
X504700Y-352000D03*
X500714Y-343504D03*
X510700Y-332131D03*
X504450Y-314981D03*
X500700Y-314731D03*
X507400Y-319831D03*
X500441Y-246520D03*
X514000Y-250120D03*
X512889Y-237268D03*
X500714Y-225393D03*
X500241Y-233920D03*
X503857Y-234363D03*
X510700Y-214020D03*
X507400Y-201720D03*
X504450Y-196870D03*
X500700Y-196620D03*
X500441Y-128410D03*
X514000Y-132010D03*
X512889Y-119158D03*
X500241Y-115810D03*
X507000Y-114500D03*
X500714Y-107283D03*
X510700Y-95910D03*
X504450Y-78760D03*
X500700Y-78510D03*
X507400Y-83610D03*
X500441Y-10300D03*
X514000Y-13900D03*
X512889Y-1048D03*
X500241Y2300D03*
X503857Y1857D03*
X510700Y22200D03*
X500714Y10827D03*
X507800Y37200D03*
X507400Y34500D03*
X504450Y39350D03*
X500700Y39600D03*
X520200Y-402300D03*
X514300Y-373931D03*
X516300Y-353431D03*
X514300Y-255820D03*
X516300Y-235320D03*
X514300Y-137710D03*
X516300Y-117210D03*
X514300Y-19600D03*
X516300Y900D03*
X535700Y-359600D03*
Y-346600D03*
X533100Y-245100D03*
X538000Y-227500D03*
X534800Y-127400D03*
X535400Y-110500D03*
X532000Y-3100D03*
X529600Y8800D03*
X537700Y11800D03*
X546500Y-402300D03*
X553200Y-381831D03*
X552595Y-364675D03*
X554800Y-352531D03*
X552595Y-336687D03*
X553200Y-263720D03*
X552595Y-246564D03*
X554800Y-234420D03*
X552595Y-218576D03*
X553200Y-145610D03*
X552595Y-128454D03*
X554800Y-116310D03*
X552595Y-100466D03*
X553200Y-27500D03*
X552595Y-10344D03*
X544400Y1400D03*
X554800Y1800D03*
X552595Y17644D03*
X559900Y-376931D03*
X556500Y-374631D03*
X562515Y-369095D03*
X563010Y-349410D03*
X562000Y-358900D03*
X555700Y-344131D03*
X558595Y-294105D03*
X556500Y-256520D03*
X559900Y-258820D03*
X562251Y-240420D03*
X562515Y-250984D03*
X562272Y-231299D03*
X555700Y-226020D03*
X556500Y-138410D03*
X562515Y-132874D03*
X559900Y-140710D03*
X562251Y-122310D03*
X562272Y-113189D03*
X555700Y-107910D03*
X556500Y-20300D03*
X559900Y-22600D03*
X562251Y-4200D03*
X562515Y-14764D03*
X558100Y6300D03*
X562272Y4921D03*
X555700Y10200D03*
X563700Y17700D03*
X576200Y-402600D03*
X581935Y-392015D03*
X581693Y-382289D03*
X577350Y-387081D03*
X571000Y-389431D03*
X579724Y-371558D03*
X572846Y-367126D03*
X573051Y-357931D03*
X572935Y-355315D03*
X574751Y-336231D03*
X572946Y-341536D03*
X572761Y-347441D03*
X572793Y-345473D03*
X575387Y-323295D03*
X582500Y-325931D03*
X575615Y-317295D03*
X581935Y-273904D03*
X571000Y-271320D03*
X577350Y-268970D03*
X579724Y-253447D03*
X581693Y-264178D03*
X573051Y-239820D03*
X572846Y-249015D03*
X572935Y-237204D03*
X572761Y-229330D03*
X572793Y-227362D03*
X574751Y-218120D03*
X572946Y-223425D03*
X575615Y-199184D03*
X575387Y-205184D03*
X582500Y-207820D03*
X581935Y-155794D03*
X581693Y-146068D03*
X571000Y-153210D03*
X577350Y-150860D03*
X579724Y-135337D03*
X572846Y-130905D03*
X573051Y-121710D03*
X572935Y-119094D03*
X574751Y-100010D03*
X572946Y-105315D03*
X572761Y-111220D03*
X572793Y-109252D03*
X575387Y-87074D03*
X582500Y-89710D03*
X575615Y-81074D03*
X581935Y-37684D03*
X577350Y-32750D03*
X571000Y-35100D03*
X579724Y-17227D03*
X581693Y-27958D03*
X573051Y-3600D03*
X572846Y-12795D03*
X572793Y8858D03*
X572761Y6890D03*
X572935Y-984D03*
X572946Y12795D03*
X574751Y18100D03*
X575615Y37036D03*
X575387Y31036D03*
X582500Y28400D03*
X591000Y-394231D03*
X593504Y-382178D03*
X585500Y-382431D03*
X596451D03*
X590451Y-382331D03*
X591535Y-371847D03*
X583661Y-371621D03*
X585851Y-363931D03*
X595651D03*
X585651Y-349631D03*
X585751Y-354231D03*
X595751Y-349931D03*
X595851Y-354331D03*
X585851Y-359031D03*
X595751Y-358931D03*
X583661Y-337121D03*
X587598Y-337184D03*
X593504Y-337178D03*
X585851Y-345131D03*
X595751Y-345331D03*
X595200Y-326131D03*
X591535Y-326147D03*
X583200Y-322331D03*
X591000Y-276120D03*
X591535Y-253736D03*
X583661Y-253510D03*
X593504Y-264067D03*
X585500Y-264320D03*
X596451D03*
X590451Y-264220D03*
X585851Y-240920D03*
Y-245820D03*
X595751Y-240820D03*
X595651Y-245820D03*
X585651Y-231520D03*
X585751Y-236120D03*
X585851Y-227020D03*
X595751Y-231820D03*
X595851Y-236220D03*
X595751Y-227220D03*
X583661Y-219010D03*
X587598Y-219073D03*
X593504Y-219067D03*
X591535Y-208036D03*
X583200Y-204220D03*
X595200Y-208020D03*
X591000Y-158010D03*
X593504Y-145957D03*
X585500Y-146210D03*
X596451D03*
X590451Y-146110D03*
X591535Y-135626D03*
X583661Y-135400D03*
X585851Y-127710D03*
X595651D03*
X585751Y-118010D03*
X595851Y-118110D03*
X585851Y-122810D03*
X595751Y-122710D03*
X583661Y-100900D03*
X587598Y-100963D03*
X593504Y-100957D03*
X585651Y-113410D03*
X585851Y-108910D03*
X595751Y-113710D03*
Y-109110D03*
X591535Y-89926D03*
X583200Y-86110D03*
X595200Y-89910D03*
X591000Y-39900D03*
X583661Y-17290D03*
X591535Y-17516D03*
X593504Y-27847D03*
X585500Y-28100D03*
X596451D03*
X590451Y-28000D03*
X595651Y-9600D03*
X595751Y-4600D03*
X585851Y-9600D03*
Y-4700D03*
X595751Y9000D03*
X595851Y0D03*
X595751Y4400D03*
X585851Y9200D03*
X585751Y100D03*
X585651Y4700D03*
X593504Y17153D03*
X587598Y17147D03*
X583661Y17210D03*
X591535Y28184D03*
X583200Y32000D03*
X595200Y28200D03*
X602400Y-450300D03*
X609100Y-402900D03*
X600700Y-392431D03*
X603346Y-382126D03*
X607100Y-381631D03*
X607778Y-365158D03*
X602051Y-371631D03*
X599409Y-371589D03*
X608167Y-353347D03*
X607904Y-357284D03*
X605315Y-337095D03*
X601378Y-337204D03*
X608109Y-345473D03*
X599409Y-326173D03*
X597400Y-319831D03*
X603400D03*
X600700Y-274320D03*
X602051Y-253520D03*
X599409Y-253478D03*
X603346Y-264015D03*
X607100Y-263520D03*
X607904Y-239173D03*
X607778Y-247047D03*
X608109Y-227362D03*
X608167Y-235236D03*
X605315Y-218984D03*
X601378Y-219093D03*
X597400Y-201720D03*
X599409Y-208062D03*
X603400Y-201720D03*
X600700Y-156210D03*
X603346Y-145905D03*
X607100Y-145410D03*
X607778Y-128937D03*
X602051Y-135410D03*
X599409Y-135368D03*
X608167Y-117126D03*
X607904Y-121063D03*
X605315Y-100874D03*
X601378Y-100983D03*
X608109Y-109252D03*
X599409Y-89952D03*
X603400Y-83610D03*
X597400D03*
X600700Y-38100D03*
X599409Y-17258D03*
X602051Y-17300D03*
X603346Y-27795D03*
X607100Y-27300D03*
X607778Y-10827D03*
X607904Y-2953D03*
X608167Y984D03*
X608109Y8858D03*
X601378Y17127D03*
X605315Y17236D03*
X599409Y28158D03*
X603400Y34500D03*
X597400D03*
X614400Y-381631D03*
X618551Y-364631D03*
X618351Y-352031D03*
X618251Y-361231D03*
X621967Y-352064D03*
X618824Y-343504D03*
X623600Y-315031D03*
X620450Y-314981D03*
X615200Y-306200D03*
X614400Y-263520D03*
X618251Y-243120D03*
X618551Y-246520D03*
X618824Y-225393D03*
X618351Y-233920D03*
X621967Y-233953D03*
X620450Y-196870D03*
X623600Y-196920D03*
X614400Y-145410D03*
X618551Y-128410D03*
X618251Y-125010D03*
X618351Y-115810D03*
X618824Y-107283D03*
X623600Y-78810D03*
X620450Y-78760D03*
X614400Y-27300D03*
X618551Y-10300D03*
X618251Y-6900D03*
X618351Y2300D03*
X621967Y2267D03*
X618824Y10827D03*
X620450Y39350D03*
X623600Y39300D03*
X633700Y-450300D03*
X630951Y-369031D03*
X630999Y-355379D03*
X634000Y-354931D03*
X629900Y-332131D03*
X631800Y-308900D03*
X626500Y-319331D03*
X627200Y-280300D03*
X630951Y-250920D03*
X630999Y-237268D03*
X633877D03*
X627900Y-213900D03*
X626500Y-201220D03*
X631400Y-156200D03*
X630951Y-132810D03*
X630999Y-119158D03*
X624600Y-114200D03*
X634000Y-120193D03*
X628200Y-96300D03*
X625700Y-82900D03*
X630951Y-14700D03*
X630999Y-1048D03*
X634000Y-600D03*
X629900Y22200D03*
X626500Y35000D03*
X651200Y-364900D03*
X650800Y-355500D03*
X643169Y-343431D03*
X650200Y-280600D03*
X650900Y-249300D03*
X642400Y-232500D03*
X651500Y-231400D03*
X651200Y-222200D03*
X647100Y-216500D03*
X642020Y-208120D03*
X651700Y-156200D03*
X650800Y-134500D03*
X644000Y-116100D03*
X652000Y-121400D03*
Y-114600D03*
X651700Y-104400D03*
X644610Y-90510D03*
X648266Y-98466D03*
X647200Y-17400D03*
X650900Y-9600D03*
Y-3400D03*
X642300Y2000D03*
X651100Y5700D03*
X650700Y13700D03*
X646866Y20134D03*
X643200Y27800D03*
X665000Y-368400D03*
X660500Y-351500D03*
X662500Y-332200D03*
X654000Y-325200D03*
X658100Y-308900D03*
X652500Y-307400D03*
X663200Y-252500D03*
X665600Y-234800D03*
X660500Y-218720D03*
X658500Y-214000D03*
X659200Y-205300D03*
X660100Y-135800D03*
X660500Y-100610D03*
X661500Y-95000D03*
X661600Y-87300D03*
X665800Y2500D03*
X658800Y2000D03*
X660500Y17500D03*
X655134Y22134D03*
X665800Y36900D03*
X659000Y30800D03*
X677800Y-450300D03*
X672500Y-381531D03*
X678600Y-376931D03*
X670705Y-364675D03*
X676500Y-374631D03*
X666700Y-355100D03*
X674300Y-354231D03*
X671500Y-347900D03*
X670705Y-336687D03*
X676200Y-343431D03*
X668800Y-308800D03*
X676395Y-294105D03*
X671300Y-279700D03*
X667400Y-253100D03*
X676500Y-256520D03*
X672500Y-263420D03*
X678600Y-258820D03*
X670705Y-246564D03*
X674900Y-229900D03*
X667300Y-224820D03*
X674300Y-236120D03*
X676200Y-225320D03*
X670705Y-218576D03*
X673300Y-155500D03*
X672500Y-145310D03*
X670705Y-128454D03*
X676500Y-138410D03*
X678600Y-140710D03*
X666200Y-114700D03*
X674300Y-118010D03*
X670705Y-100466D03*
X667300Y-106710D03*
X676200Y-107210D03*
X676500Y-20300D03*
X672500Y-27200D03*
X678600Y-22600D03*
X670705Y-10344D03*
X675700Y6900D03*
X674300Y100D03*
X667300Y11400D03*
X670705Y17644D03*
X676200Y10900D03*
X672000Y36700D03*
X671500Y42800D03*
X668300Y43700D03*
X688900Y-389431D03*
X680600Y-371900D03*
X690956Y-367126D03*
X680625Y-369095D03*
X691161Y-357931D03*
X691045Y-355315D03*
X680600Y-359000D03*
X681100Y-349410D03*
X681900Y-335500D03*
X692861Y-336231D03*
X691056Y-341536D03*
X690871Y-347441D03*
X690903Y-345473D03*
X693497Y-323295D03*
X681600Y-311400D03*
X687300Y-300100D03*
X688900Y-271320D03*
X691161Y-239820D03*
X690956Y-249015D03*
X680361Y-240420D03*
X680625Y-250984D03*
X691045Y-237204D03*
X690871Y-229330D03*
X690903Y-227362D03*
X680382Y-231299D03*
X692861Y-218120D03*
X691056Y-223425D03*
X693497Y-205184D03*
X688900Y-153210D03*
X690956Y-130905D03*
X680625Y-132874D03*
X691161Y-121710D03*
X691045Y-119094D03*
X680361Y-122310D03*
X692861Y-100010D03*
X691056Y-105315D03*
X690871Y-111220D03*
X690903Y-109252D03*
X680382Y-113189D03*
X681800Y-99800D03*
X693497Y-87074D03*
X688900Y-35100D03*
X691161Y-3600D03*
X690956Y-12795D03*
X680361Y-4200D03*
X680625Y-14764D03*
X690903Y8858D03*
X690871Y6890D03*
X691045Y-984D03*
X680382Y4921D03*
X682300Y18400D03*
X691056Y12795D03*
X692861Y18100D03*
X693497Y31036D03*
X681600Y42900D03*
X700045Y-392015D03*
X703600Y-382431D03*
X699803Y-382289D03*
X695250Y-387081D03*
X701771Y-371621D03*
X697834Y-371558D03*
X703961Y-363931D03*
X703761Y-349631D03*
X703861Y-354231D03*
X703961Y-359031D03*
X701771Y-337121D03*
X705708Y-337184D03*
X703961Y-345131D03*
X700550Y-325281D03*
X693725Y-317295D03*
X703800Y-317631D03*
X694000Y-280300D03*
X700045Y-273904D03*
X695250Y-268970D03*
X701771Y-253510D03*
X697834Y-253447D03*
X703600Y-264320D03*
X699803Y-264178D03*
X703961Y-240920D03*
Y-245820D03*
X703761Y-231520D03*
X703861Y-236120D03*
X703961Y-227020D03*
X701771Y-219010D03*
X705708Y-219073D03*
X693725Y-199184D03*
X703800Y-199520D03*
X700550Y-207170D03*
X700045Y-155794D03*
X703600Y-146210D03*
X699803Y-146068D03*
X695250Y-150860D03*
X701771Y-135400D03*
X697834Y-135337D03*
X703961Y-127710D03*
X703861Y-118010D03*
X703961Y-122810D03*
X701771Y-100900D03*
X705708Y-100963D03*
X703761Y-113410D03*
X703961Y-108910D03*
X700550Y-89060D03*
X693725Y-81074D03*
X703800Y-81410D03*
X700045Y-37684D03*
X695250Y-32750D03*
X697834Y-17227D03*
X701771Y-17290D03*
X703600Y-28100D03*
X699803Y-27958D03*
X703961Y-9600D03*
Y-4700D03*
Y9200D03*
X703861Y100D03*
X703761Y4700D03*
X705708Y17147D03*
X701771Y17210D03*
X693725Y37036D03*
X703800Y36700D03*
X700550Y29050D03*
X714600Y-450300D03*
X719200Y-392231D03*
X708700Y-394731D03*
X711614Y-382178D03*
X714561Y-382431D03*
X708561Y-382331D03*
X709645Y-371847D03*
X720161Y-371631D03*
X717519Y-371589D03*
X713761Y-363931D03*
X713861Y-349931D03*
X713961Y-354331D03*
X713861Y-358931D03*
X711614Y-337178D03*
X719488Y-337204D03*
X713861Y-345331D03*
X713700Y-326031D03*
X709645Y-326147D03*
X717519Y-326173D03*
X715551Y-320180D03*
X713400Y-300300D03*
X719200Y-274120D03*
X708700Y-276620D03*
X709645Y-253736D03*
X720161Y-253520D03*
X717519Y-253478D03*
X711614Y-264067D03*
X714561Y-264320D03*
X708561Y-264220D03*
X713861Y-240820D03*
X713761Y-245820D03*
X713861Y-231820D03*
X713961Y-236220D03*
X713861Y-227220D03*
X711614Y-219067D03*
X719488Y-219093D03*
X715551Y-202069D03*
X709645Y-208036D03*
X717519Y-208062D03*
X713700Y-207920D03*
X719200Y-156010D03*
X708700Y-158510D03*
X711614Y-145957D03*
X714561Y-146210D03*
X708561Y-146110D03*
X709645Y-135626D03*
X720161Y-135410D03*
X717519Y-135368D03*
X713761Y-127710D03*
X713961Y-118110D03*
X713861Y-122710D03*
X711614Y-100957D03*
X719488Y-100983D03*
X713861Y-113710D03*
Y-109110D03*
X709645Y-89926D03*
X717519Y-89952D03*
X713700Y-89810D03*
X715551Y-83959D03*
X719200Y-37900D03*
X708700Y-40400D03*
X717519Y-17258D03*
X720161Y-17300D03*
X709645Y-17516D03*
X711614Y-27847D03*
X714561Y-28100D03*
X708561Y-28000D03*
X713761Y-9600D03*
X713861Y-4600D03*
Y9000D03*
X713961Y0D03*
X713861Y4400D03*
X719488Y17127D03*
X711614Y17153D03*
X717519Y28158D03*
X709645Y28184D03*
X715551Y34151D03*
X713700Y28300D03*
X708300Y66400D03*
X721456Y-382126D03*
X724661Y-382431D03*
X725888Y-365158D03*
X726277Y-353347D03*
X726014Y-357284D03*
X723425Y-337095D03*
X726219Y-345473D03*
X721400Y-320131D03*
X731400Y-297300D03*
X721456Y-264015D03*
X724661Y-264320D03*
X726014Y-239173D03*
X725888Y-247047D03*
X726219Y-227362D03*
X726277Y-235236D03*
X723425Y-218984D03*
X721400Y-202020D03*
X721456Y-145905D03*
X724661Y-146210D03*
X725888Y-128937D03*
X726277Y-117126D03*
X726014Y-121063D03*
X723425Y-100874D03*
X726219Y-109252D03*
X721400Y-83910D03*
X721456Y-27795D03*
X724661Y-28100D03*
X725888Y-10827D03*
X726014Y-2953D03*
X726277Y984D03*
X726219Y8858D03*
X723425Y17236D03*
X721400Y34200D03*
X738500Y-402000D03*
X736661Y-364631D03*
X736461Y-352031D03*
X736361Y-361231D03*
X742000Y-351000D03*
X748600Y-344900D03*
X736934Y-343504D03*
X737900Y-315031D03*
X742500Y-320800D03*
X736361Y-243120D03*
X736661Y-246520D03*
X736934Y-225393D03*
X736461Y-233920D03*
X740077Y-233943D03*
X747100Y-212820D03*
X741800Y-197120D03*
X737900Y-196920D03*
X736661Y-128410D03*
X736461Y-115810D03*
X736361Y-125010D03*
X736934Y-107283D03*
X742700Y-113700D03*
X747100Y-94710D03*
X737900Y-78810D03*
X740700Y-84700D03*
X736361Y-6900D03*
X736661Y-10300D03*
X736461Y2300D03*
X740077Y2277D03*
X736934Y10827D03*
X747100Y23400D03*
X741800Y39100D03*
X737900Y39300D03*
X756200Y-403000D03*
X749061Y-369031D03*
X749109Y-355379D03*
X754400Y-353331D03*
X749300Y-341700D03*
Y-304500D03*
X749061Y-250920D03*
X749109Y-237268D03*
X754400Y-235220D03*
X751000Y-215620D03*
X749061Y-132810D03*
X749109Y-119158D03*
X754400Y-117110D03*
X751000Y-97510D03*
X749061Y-14700D03*
X749109Y-1048D03*
X754400Y1000D03*
X751000Y20600D03*
X766000Y-450300D03*
X771800Y-239000D03*
X774800Y-229300D03*
X773300Y-120500D03*
X773900Y-108700D03*
X765500Y-20600D03*
X770600Y-2900D03*
X772600Y10300D03*
X781000Y-403600D03*
X790200Y-382289D03*
X788816Y-364675D03*
X788700Y-336100D03*
X790200Y-264178D03*
X788816Y-246564D03*
Y-218576D03*
X790200Y-146068D03*
X788816Y-128454D03*
Y-100466D03*
X790200Y-27958D03*
X788816Y-10344D03*
Y17644D03*
X798700Y-363431D03*
X798736Y-369095D03*
X795600Y-369631D03*
X798493Y-349410D03*
X798472Y-358531D03*
X792900Y-354531D03*
X792400Y-344231D03*
X798700Y-245320D03*
X798472Y-240420D03*
X798736Y-250984D03*
X795600Y-251520D03*
X798493Y-231299D03*
X792900Y-236420D03*
X792400Y-226120D03*
X798736Y-132874D03*
X795600Y-133410D03*
X798700Y-127210D03*
X798472Y-122310D03*
X792900Y-118310D03*
X798493Y-113189D03*
X792400Y-108010D03*
X799600Y-19500D03*
X798700Y-9100D03*
X798472Y-4200D03*
X798736Y-14764D03*
X795600Y-15300D03*
X798493Y4921D03*
X792400Y10100D03*
X792900Y-200D03*
X804600Y-445700D03*
X805500Y-403600D03*
X817914Y-382289D03*
X813450Y-387081D03*
X807600Y-389431D03*
X809067Y-367126D03*
X815945Y-371558D03*
X809272Y-357931D03*
X809156Y-355315D03*
X810972Y-336231D03*
X809167Y-341536D03*
X808982Y-347441D03*
X809014Y-345473D03*
X811608Y-323295D03*
X811836Y-317295D03*
X807600Y-271320D03*
X813450Y-268970D03*
X815945Y-253447D03*
X817914Y-264178D03*
X809272Y-239820D03*
X809067Y-249015D03*
X809156Y-237204D03*
X808982Y-229330D03*
X809014Y-227362D03*
X810972Y-218120D03*
X809167Y-223425D03*
X811836Y-199184D03*
X811608Y-205184D03*
X817914Y-146068D03*
X807600Y-153210D03*
X813450Y-150860D03*
X809067Y-130905D03*
X815945Y-135337D03*
X809272Y-121710D03*
X809156Y-119094D03*
X810972Y-100010D03*
X809167Y-105315D03*
X808982Y-111220D03*
X809014Y-109252D03*
X811608Y-87074D03*
X811836Y-81074D03*
X813450Y-32750D03*
X807600Y-35100D03*
X815945Y-17227D03*
X817914Y-27958D03*
X809272Y-3600D03*
X809067Y-12795D03*
X809014Y8858D03*
X808982Y6890D03*
X809156Y-984D03*
X809167Y12795D03*
X810972Y18100D03*
X811836Y37036D03*
X811608Y31036D03*
X818156Y-392015D03*
X826200Y-394731D03*
X829725Y-382178D03*
X821700Y-382431D03*
X826672Y-382331D03*
X827756Y-371847D03*
X819882Y-371621D03*
X822072Y-363931D03*
X831872D03*
X821872Y-349631D03*
X821972Y-354231D03*
X822072Y-359031D03*
X819882Y-337121D03*
X823819Y-337184D03*
X829725Y-337178D03*
X822072Y-345131D03*
X831600Y-326231D03*
X827756Y-326147D03*
X819000Y-325831D03*
X821900Y-320731D03*
X818156Y-273904D03*
X826200Y-276620D03*
X827756Y-253736D03*
X819882Y-253510D03*
X829725Y-264067D03*
X821700Y-264320D03*
X826672Y-264220D03*
X822072Y-240920D03*
Y-245820D03*
X831872D03*
X821872Y-231520D03*
X821972Y-236120D03*
X822072Y-227020D03*
X819882Y-219010D03*
X823819Y-219073D03*
X829725Y-219067D03*
X827756Y-208036D03*
X821900Y-202620D03*
X831600Y-208120D03*
X819000Y-207720D03*
X818156Y-155794D03*
X826200Y-158510D03*
X829725Y-145957D03*
X821700Y-146210D03*
X826672Y-146110D03*
X827756Y-135626D03*
X819882Y-135400D03*
X822072Y-127710D03*
X831872D03*
X821972Y-118010D03*
X822072Y-122810D03*
X819882Y-100900D03*
X823819Y-100963D03*
X829725Y-100957D03*
X821872Y-113410D03*
X822072Y-108910D03*
X827756Y-89926D03*
X831600Y-90010D03*
X819000Y-89610D03*
X821900Y-84510D03*
X818156Y-37684D03*
X826200Y-40400D03*
X819882Y-17290D03*
X827756Y-17516D03*
X829725Y-27847D03*
X821700Y-28100D03*
X826672Y-28000D03*
X831872Y-9600D03*
X822072D03*
Y-4700D03*
Y9200D03*
X821972Y100D03*
X821872Y4700D03*
X829725Y17153D03*
X823819Y17147D03*
X819882Y17210D03*
X827756Y28184D03*
X821900Y33600D03*
X831600Y28100D03*
X819000Y28500D03*
X840500Y-447500D03*
X839567Y-382126D03*
X842772Y-382431D03*
X832100Y-382331D03*
X843999Y-365158D03*
X838272Y-371631D03*
X835630Y-371589D03*
X844388Y-353347D03*
X844125Y-357284D03*
X831972Y-349931D03*
X832072Y-354331D03*
X831972Y-358931D03*
X841536Y-337095D03*
X837599Y-337204D03*
X844330Y-345473D03*
X831972Y-345331D03*
X835630Y-326173D03*
X833662Y-323269D03*
X839500Y-320331D03*
X838272Y-253520D03*
X835630Y-253478D03*
X839567Y-264015D03*
X842772Y-264320D03*
X832100Y-264220D03*
X844125Y-239173D03*
X843999Y-247047D03*
X831972Y-240820D03*
X844330Y-227362D03*
X844388Y-235236D03*
X831972Y-231820D03*
X832072Y-236220D03*
X831972Y-227220D03*
X841536Y-218984D03*
X837599Y-219093D03*
X833662Y-205158D03*
X835630Y-208062D03*
X839500Y-202220D03*
X839567Y-145905D03*
X842772Y-146210D03*
X832100Y-146110D03*
X843999Y-128937D03*
X838272Y-135410D03*
X835630Y-135368D03*
X844388Y-117126D03*
X844125Y-121063D03*
X832072Y-118110D03*
X831972Y-122710D03*
X841536Y-100874D03*
X837599Y-100983D03*
X844330Y-109252D03*
X831972Y-113710D03*
Y-109110D03*
X835630Y-89952D03*
X833662Y-87048D03*
X839500Y-84110D03*
X835630Y-17258D03*
X838272Y-17300D03*
X839567Y-27795D03*
X842772Y-28100D03*
X832100Y-28000D03*
X843999Y-10827D03*
X831972Y-4600D03*
X844125Y-2953D03*
X844388Y984D03*
X844330Y8858D03*
X831972Y9000D03*
X832072Y0D03*
X831972Y4400D03*
X837599Y17127D03*
X841536Y17236D03*
X835630Y28158D03*
X839500Y34000D03*
X833662Y31062D03*
X854772Y-364631D03*
X854572Y-352031D03*
X854472Y-361231D03*
X859200Y-351831D03*
X855045Y-343504D03*
X855200Y-315231D03*
X854472Y-243120D03*
X854772Y-246520D03*
X855045Y-225393D03*
X854572Y-233920D03*
X859200Y-233720D03*
X855200Y-197120D03*
X854772Y-128410D03*
X854472Y-125010D03*
X854572Y-115810D03*
X859200Y-115610D03*
X855045Y-107283D03*
X854700Y-85400D03*
X854772Y-10300D03*
X854472Y-6900D03*
X854572Y2300D03*
X859200Y2500D03*
X855045Y10827D03*
X855200Y39100D03*
X861200Y-382431D03*
X867220Y-355379D03*
X867300Y-360631D03*
X871100Y-333731D03*
X861200Y-264320D03*
X867300Y-242520D03*
X867220Y-237268D03*
X868380Y-227920D03*
X871100Y-215620D03*
X868400Y-221600D03*
X861200Y-146210D03*
X867220Y-119158D03*
X867300Y-124410D03*
X869000Y-103600D03*
X868600Y-109600D03*
X871100Y-97510D03*
X861200Y-28100D03*
X867300Y-6300D03*
X867220Y-1048D03*
X869200Y8800D03*
X871100Y20600D03*
X867900Y14500D03*
X880300Y-348831D03*
Y-230720D03*
G54D30*
X-365590Y3886D03*
X-352590D03*
G54D31*
X-344171Y-394821D03*
X-344271Y-309321D03*
X-344171Y-228821D03*
Y-140621D03*
X-307163Y-394821D03*
X-307263Y-309321D03*
X-307163Y-228821D03*
Y-140621D03*
G54D22*
X-419604Y-421418D03*
X-417045D03*
X-414486D03*
X-411927D03*
Y-397918D03*
X-414486D03*
X-417045D03*
X-419604D03*
X-419704Y-335918D03*
X-417145D03*
X-414586D03*
X-412027D03*
Y-312418D03*
X-414586D03*
X-417145D03*
X-419704D03*
X-419604Y-255418D03*
X-417045D03*
X-414486D03*
X-411927D03*
Y-231918D03*
X-414486D03*
X-417045D03*
X-419604D03*
Y-167218D03*
X-417045D03*
X-414486D03*
X-411927D03*
Y-143718D03*
X-414486D03*
X-417045D03*
X-419604D03*
X-409368Y-421418D03*
X-406805D03*
X-404246D03*
Y-397918D03*
X-406805D03*
X-409368D03*
X-409468Y-335918D03*
X-406905D03*
X-404346D03*
Y-312418D03*
X-406905D03*
X-409468D03*
X-409368Y-255418D03*
X-406805D03*
X-404246D03*
Y-231918D03*
X-406805D03*
X-409368D03*
Y-167218D03*
X-406805D03*
X-404246D03*
Y-143718D03*
X-406805D03*
X-409368D03*
G54D40*
X-248640Y-15580D03*
X-250610D03*
X-252580D03*
X-254550D03*
X-256510D03*
X-258480D03*
Y45420D03*
X-256510D03*
X-254550D03*
X-252580D03*
X-250610D03*
X-248640D03*
X-234860Y-15580D03*
X-236830D03*
X-238800D03*
X-240770D03*
X-242730D03*
X-244700D03*
X-246670D03*
Y45420D03*
X-244700D03*
X-242730D03*
X-240770D03*
X-238800D03*
X-236830D03*
X-234860D03*
X-221080Y-15580D03*
X-223050D03*
X-225020D03*
X-226990D03*
X-228950D03*
X-230920D03*
X-232890D03*
Y45420D03*
X-230920D03*
X-228950D03*
X-226990D03*
X-225020D03*
X-223050D03*
X-221080D03*
X-211240Y-15580D03*
X-213210D03*
X-215170D03*
X-217140D03*
X-219110D03*
Y45420D03*
X-217140D03*
X-215170D03*
X-213210D03*
X-211240D03*
G54D13*
X-443294Y-429074D03*
X-394094Y63926D03*
X-197994Y68426D03*
X343206Y-429074D03*
Y63926D03*
X856006Y-429074D03*
Y63926D03*
G54D50*
G01X1223845Y-1183076D02*
Y-933076D01*
X2253845D01*
G01X1493845Y-1183076D02*
Y-933076D01*
G01X1743845D02*
Y-1183076D01*
G01X2253845Y-1003076D02*
X1743845D01*
G54D32*
X-336170Y-445774D03*
Y-433174D03*
Y-356290D03*
Y-343690D03*
Y-279774D03*
Y-267174D03*
Y-191574D03*
Y-178974D03*
X-163180Y-315410D03*
Y-302810D03*
Y-145710D03*
Y-133110D03*
X-138270Y-431790D03*
Y-419190D03*
X-139470Y-348190D03*
Y-335590D03*
Y-167790D03*
Y-180390D03*
G54D41*
X-222800Y-450873D03*
Y-422527D03*
Y-365173D03*
Y-336827D03*
X-221000Y-197173D03*
Y-168827D03*
G54D14*
X-445924Y-409746D03*
G54D23*
X-422200Y-58900D03*
X-416200D03*
X-422600Y-71500D03*
X-416600D03*
X-415400Y-39400D03*
X-421400D03*
X-415400Y62800D03*
X-421400D03*
X-370100Y-8700D03*
X-370648Y22946D03*
X-370754Y36096D03*
X-367600Y-36700D03*
X-361600D03*
X-367600Y-44200D03*
X-361600D03*
X-357600Y-8700D03*
X-364100D03*
X-364648Y22946D03*
X-358120Y16126D03*
X-358286Y22806D03*
X-364754Y36096D03*
X-358336Y37106D03*
Y31096D03*
X-358286Y45686D03*
X-351600Y-8700D03*
X-352120Y16126D03*
X-352286Y22806D03*
X-352336Y37106D03*
Y31096D03*
X-352286Y45686D03*
X-321584Y-429516D03*
X-315584D03*
X-320800Y-342900D03*
X-314800D03*
X-322400Y-263600D03*
X-316400D03*
X-322000Y-175400D03*
X-316000D03*
X-306338Y-4486D03*
X-306400Y1800D03*
X-300338Y-4486D03*
X-291236Y10956D03*
X-297236D03*
X-300400Y1800D03*
X-297488Y17704D03*
X-291488D03*
X-291438Y23876D03*
X-297438D03*
X-297574Y36564D03*
X-291574D03*
X-292000Y46700D03*
X-298000D03*
X-260800Y53620D03*
X-254800D03*
X-232700Y63900D03*
X-238700D03*
X-232900Y70100D03*
X-238900D03*
X-207410Y-22990D03*
X-213410D03*
X-216310Y54440D03*
X-210310D03*
X-196260Y29640D03*
X-196230Y35260D03*
X-196300Y42300D03*
X-190260Y29640D03*
X-190230Y35260D03*
X-190300Y42300D03*
X-83800Y18400D03*
X-83900Y12000D03*
X-77800Y18400D03*
X-77900Y12000D03*
X-31956Y-361783D03*
X-37956D03*
X-31956Y-339495D03*
X-37956D03*
X-31956Y-243672D03*
X-37956D03*
X-31956Y-221384D03*
X-37956D03*
X-31956Y-125562D03*
X-37956D03*
X-31956Y-103274D03*
X-37956D03*
X-31956Y-7452D03*
X-37956D03*
X-31956Y14836D03*
X-37956D03*
X11700Y-315169D03*
X12100Y-197480D03*
X13500Y-78790D03*
X7500D03*
X17700Y-315169D03*
X18100Y-197480D03*
X37300Y-369031D03*
X31300D03*
X31416Y-355379D03*
X37416D03*
X31200Y-360731D03*
X37200D03*
X31200Y-242620D03*
X37200D03*
X37300Y-250920D03*
X31300D03*
X31416Y-237268D03*
X37416D03*
X37300Y-132810D03*
X31300D03*
X31416Y-119158D03*
X37416D03*
X31200Y-124510D03*
X37200D03*
X37300Y-14700D03*
X31300D03*
X31200Y-6400D03*
X37200D03*
X31416Y-1048D03*
X37416D03*
X80154Y-361783D03*
Y-339495D03*
Y-243672D03*
Y-221384D03*
Y-125562D03*
Y-103274D03*
Y-7452D03*
Y14836D03*
X86154Y-361783D03*
Y-339495D03*
Y-243672D03*
Y-221384D03*
Y-125562D03*
Y-103274D03*
Y-7452D03*
Y14836D03*
X154900Y-368731D03*
X148900D03*
X149526Y-355379D03*
X149100Y-360731D03*
X155100D03*
X149100Y-242620D03*
X155100D03*
X154900Y-250620D03*
X148900D03*
X149526Y-237268D03*
X154900Y-132510D03*
X148900D03*
X149526Y-119158D03*
X149100Y-124510D03*
X155100D03*
X154900Y-14400D03*
X148900D03*
X149100Y-6400D03*
X155100D03*
X149526Y-1048D03*
X155526Y-355379D03*
Y-237268D03*
Y-119158D03*
Y-1048D03*
X204264Y-361783D03*
X198264D03*
X204264Y-339495D03*
X198264D03*
X204264Y-243672D03*
X198264D03*
X204264Y-221384D03*
X198264D03*
X204264Y-125562D03*
X198264D03*
X204264Y-103274D03*
X198264D03*
X204264Y-7452D03*
X198264D03*
X204264Y14836D03*
X198264D03*
X274200Y-373231D03*
X268200D03*
X274220Y-367721D03*
X268220D03*
X267636Y-355379D03*
X273636D03*
X268200Y-360831D03*
X274200D03*
Y-255120D03*
X268200D03*
Y-242720D03*
X274200D03*
X274220Y-249610D03*
X268220D03*
X267636Y-237268D03*
X273636D03*
X274200Y-137010D03*
X268200D03*
X274220Y-131500D03*
X268220D03*
X267636Y-119158D03*
X273636D03*
X268200Y-124610D03*
X274200D03*
Y-18900D03*
X268200D03*
X274220Y-13390D03*
X268220D03*
X268200Y-6500D03*
X274200D03*
X267636Y-1048D03*
X273636D03*
X316375Y-361783D03*
Y-339495D03*
Y-243672D03*
Y-221384D03*
Y-125562D03*
Y-103274D03*
Y-7452D03*
Y14836D03*
X322375Y-361783D03*
Y-339495D03*
Y-243672D03*
Y-221384D03*
Y-125562D03*
Y-103274D03*
Y-7452D03*
Y14836D03*
X386500Y-368000D03*
X385747Y-355379D03*
X386300Y-360531D03*
X386374Y-255169D03*
X386300Y-242420D03*
X386374Y-249500D03*
X385747Y-237268D03*
X386374Y-131390D03*
Y-137059D03*
X385747Y-119158D03*
X386300Y-124310D03*
X386374Y-18949D03*
Y-13280D03*
X386300Y-6200D03*
X385747Y-1048D03*
X392500Y-368000D03*
X391747Y-355379D03*
X392300Y-360531D03*
X392374Y-255169D03*
X392300Y-242420D03*
X392374Y-249500D03*
X391747Y-237268D03*
X392374Y-131390D03*
Y-137059D03*
X391747Y-119158D03*
X392300Y-124310D03*
X392374Y-18949D03*
Y-13280D03*
X392300Y-6200D03*
X391747Y-1048D03*
X440485Y-361783D03*
X434485D03*
X440485Y-339495D03*
X434485D03*
X440485Y-243672D03*
X434485D03*
X440485Y-221384D03*
X434485D03*
X440485Y-125562D03*
X434485D03*
X440485Y-103274D03*
X434485D03*
X440485Y-7452D03*
X434485D03*
X440485Y14836D03*
X434485D03*
X510400Y-373931D03*
X504400D03*
X510400Y-368231D03*
X504400D03*
X503857Y-355379D03*
X509857D03*
X504300Y-360731D03*
X510300D03*
X510400Y-255820D03*
X504400D03*
X504300Y-242620D03*
X510300D03*
X510400Y-250120D03*
X504400D03*
X503857Y-237268D03*
X509857D03*
X510400Y-137710D03*
X504400D03*
X510400Y-132010D03*
X504400D03*
X503857Y-119158D03*
X509857D03*
X504300Y-124510D03*
X510300D03*
X510400Y-19600D03*
X504400D03*
X510400Y-13900D03*
X504400D03*
X504300Y-6400D03*
X510300D03*
X503857Y-1048D03*
X509857D03*
X552595Y-361783D03*
Y-339495D03*
Y-243672D03*
Y-221384D03*
Y-125562D03*
Y-103274D03*
Y-7452D03*
Y14836D03*
X558595Y-361783D03*
Y-339495D03*
Y-243672D03*
Y-221384D03*
Y-125562D03*
Y-103274D03*
Y-7452D03*
Y14836D03*
X622400Y-369031D03*
X621967Y-355379D03*
X622200Y-360631D03*
Y-242520D03*
X622400Y-250920D03*
X621967Y-237268D03*
X622400Y-132810D03*
X621967Y-119158D03*
X622200Y-124410D03*
X622400Y-14700D03*
X622200Y-6300D03*
X621967Y-1048D03*
X628400Y-369031D03*
X627967Y-355379D03*
X628200Y-360631D03*
Y-242520D03*
X628400Y-250920D03*
X627967Y-237268D03*
X628400Y-132810D03*
X627967Y-119158D03*
X628200Y-124410D03*
X628400Y-14700D03*
X628200Y-6300D03*
X627967Y-1048D03*
X676705Y-361783D03*
X670705D03*
X676705Y-339495D03*
X670705D03*
X676705Y-243672D03*
X670705D03*
X676705Y-221384D03*
X670705D03*
X676705Y-125562D03*
X670705D03*
X676705Y-103274D03*
X670705D03*
X676705Y-7452D03*
X670705D03*
X676705Y14836D03*
X670705D03*
X746000Y-369031D03*
X740000D03*
X740077Y-355379D03*
X746077D03*
X740000Y-360731D03*
X746000D03*
X740000Y-242620D03*
X746000D03*
Y-250920D03*
X740000D03*
X740077Y-237268D03*
X746077D03*
X746000Y-132810D03*
X740000D03*
X740077Y-119158D03*
X746077D03*
X740000Y-124510D03*
X746000D03*
Y-14700D03*
X740000D03*
Y-6400D03*
X746000D03*
X740077Y-1048D03*
X746077D03*
X788816Y-361783D03*
Y-339495D03*
Y-243672D03*
Y-221384D03*
Y-125562D03*
Y-103274D03*
Y-7452D03*
Y14836D03*
X794816Y-361783D03*
Y-339495D03*
Y-243672D03*
Y-221384D03*
Y-125562D03*
Y-103274D03*
Y-7452D03*
Y14836D03*
X858188Y-355379D03*
X858300Y-360631D03*
Y-242520D03*
X858188Y-237268D03*
X858500Y-227920D03*
Y-222120D03*
X858188Y-119158D03*
X858300Y-124410D03*
X858500Y-104010D03*
Y-109810D03*
X858300Y-6300D03*
X858188Y-1048D03*
X858500Y8300D03*
Y14100D03*
X864188Y-355379D03*
X864300Y-360631D03*
Y-242520D03*
X864188Y-237268D03*
X864500Y-227920D03*
Y-222120D03*
X864188Y-119158D03*
X864300Y-124410D03*
X864500Y-104010D03*
Y-109810D03*
X864300Y-6300D03*
X864188Y-1048D03*
X864500Y8300D03*
Y14100D03*
G54D51*
G01X1425845Y-1009076D02*
X1235845D01*
G54D15*
X-445924Y-389746D03*
G54D33*
X-333380Y9110D03*
X-331410D03*
Y42110D03*
X-333380D03*
X-329440Y9110D03*
X-327470D03*
X-325500D03*
X-323530D03*
X-321570D03*
X-319600D03*
X-317630D03*
Y42110D03*
X-319600D03*
X-321570D03*
X-323530D03*
X-325500D03*
X-327470D03*
X-329440D03*
X-315660Y9110D03*
X-313690D03*
X-311720D03*
Y42110D03*
X-313690D03*
X-315660D03*
G54D42*
X-179100Y-450500D03*
Y-412000D03*
Y-375100D03*
Y-336600D03*
Y-204400D03*
Y-165900D03*
G54D24*
X-415132Y-18562D03*
Y42462D03*
G54D52*
G01X-471200Y75800D02*
Y85200D01*
X906700D01*
Y-473600D01*
X-471200D01*
Y85300D01*
X-453700D01*
G01X-471284Y-111524D02*
Y85296D01*
G01X1241765Y-1042196D02*
X1242455Y-1043293D01*
X1243375Y-1043919D01*
X1244410Y-1044076D01*
X1245330Y-1043919D01*
X1246250Y-1043136D01*
X1246825Y-1042196D01*
X1246940Y-1041256D01*
X1246710Y-1040160D01*
X1245905Y-1039376D01*
X1245100Y-1039063D01*
X1244065D01*
G01X1245100D02*
X1245790Y-1038593D01*
X1246365Y-1037810D01*
X1246595Y-1036869D01*
X1246365Y-1035929D01*
X1245790Y-1035146D01*
X1244755Y-1034676D01*
X1243720Y-1034833D01*
X1242685Y-1035459D01*
G01X1253495Y-1044389D02*
X1253265Y-1044233D01*
Y-1043919D01*
X1253495Y-1043763D01*
X1253725Y-1043919D01*
Y-1044233D01*
X1253495Y-1044389D01*
G01X1269365Y-1044076D02*
Y-1034676D01*
X1271665D01*
X1272585Y-1035146D01*
X1273275Y-1035773D01*
X1273850Y-1036713D01*
X1274310Y-1037810D01*
X1274425Y-1039376D01*
X1274310Y-1040943D01*
X1273850Y-1042039D01*
X1273275Y-1042980D01*
X1272585Y-1043606D01*
X1271665Y-1044076D01*
X1269365D01*
G01X1281095D02*
X1280175Y-1043919D01*
X1279370Y-1043293D01*
X1278680Y-1042353D01*
X1278220Y-1041256D01*
X1277990Y-1040003D01*
Y-1038749D01*
X1278220Y-1037496D01*
X1278680Y-1036399D01*
X1279370Y-1035459D01*
X1280175Y-1034833D01*
X1281095Y-1034676D01*
X1282015Y-1034833D01*
X1282820Y-1035459D01*
X1283510Y-1036399D01*
X1283970Y-1037496D01*
X1284200Y-1038749D01*
Y-1040003D01*
X1283970Y-1041256D01*
X1283510Y-1042353D01*
X1282820Y-1043293D01*
X1282015Y-1043919D01*
X1281095Y-1044076D01*
G01X1296850D02*
Y-1034676D01*
X1302140Y-1044076D01*
Y-1034676D01*
G01X1308695Y-1044076D02*
X1307775Y-1043919D01*
X1306970Y-1043293D01*
X1306280Y-1042353D01*
X1305820Y-1041256D01*
X1305590Y-1040003D01*
Y-1038749D01*
X1305820Y-1037496D01*
X1306280Y-1036399D01*
X1306970Y-1035459D01*
X1307775Y-1034833D01*
X1308695Y-1034676D01*
X1309615Y-1034833D01*
X1310420Y-1035459D01*
X1311110Y-1036399D01*
X1311570Y-1037496D01*
X1311800Y-1038749D01*
Y-1040003D01*
X1311570Y-1041256D01*
X1311110Y-1042353D01*
X1310420Y-1043293D01*
X1309615Y-1043919D01*
X1308695Y-1044076D01*
G01X1317895Y-1034676D02*
Y-1044076D01*
G01X1315250Y-1034676D02*
X1320540D01*
G01X1333880Y-1042823D02*
X1334800Y-1043606D01*
X1335835Y-1044076D01*
X1336755D01*
X1337675Y-1043606D01*
X1338365Y-1042823D01*
X1338710Y-1041726D01*
X1338480Y-1040629D01*
X1337905Y-1039689D01*
X1336870Y-1039063D01*
X1335490Y-1038749D01*
X1334685Y-1038123D01*
X1334340Y-1037026D01*
X1334570Y-1035929D01*
X1335145Y-1035146D01*
X1335950Y-1034676D01*
X1336755D01*
X1337560Y-1034989D01*
X1338250Y-1035773D01*
G01X1348025Y-1035459D02*
X1347335Y-1034989D01*
X1346530Y-1034676D01*
X1345610D01*
X1344575Y-1035146D01*
X1343770Y-1035929D01*
X1343195Y-1036869D01*
X1342735Y-1038436D01*
X1342620Y-1039846D01*
X1342850Y-1041256D01*
X1343195Y-1042196D01*
X1343885Y-1043136D01*
X1344690Y-1043763D01*
X1345495Y-1044076D01*
X1346300D01*
X1347105Y-1043763D01*
X1347795Y-1043293D01*
X1348370Y-1042666D01*
G01X1351820Y-1044076D02*
X1354695Y-1034676D01*
X1357570Y-1044076D01*
G01X1356535Y-1040786D02*
X1352855D01*
G01X1361595Y-1034676D02*
Y-1044076D01*
X1366195D01*
G01X1375395D02*
X1370795D01*
Y-1034676D01*
X1375395D01*
G01X1373555Y-1039219D02*
X1370795D01*
G01X1388965Y-1044076D02*
Y-1034676D01*
X1391265D01*
X1392185Y-1035146D01*
X1392875Y-1035773D01*
X1393450Y-1036713D01*
X1393910Y-1037810D01*
X1394025Y-1039376D01*
X1393910Y-1040943D01*
X1393450Y-1042039D01*
X1392875Y-1042980D01*
X1392185Y-1043606D01*
X1391265Y-1044076D01*
X1388965D01*
G01X1398395D02*
Y-1034676D01*
X1401270D01*
X1402190Y-1035146D01*
X1402765Y-1035773D01*
X1402995Y-1037026D01*
X1402765Y-1038279D01*
X1402075Y-1039063D01*
X1401270Y-1039533D01*
X1398395D01*
G01X1401270D02*
X1402995Y-1044076D01*
G01X1407020D02*
X1409895Y-1034676D01*
X1412770Y-1044076D01*
G01X1411735Y-1040786D02*
X1408055D01*
G01X1415645Y-1034676D02*
X1417255Y-1044076D01*
X1419095Y-1034676D01*
X1420935Y-1044076D01*
X1422545Y-1034676D01*
G01X1426915D02*
X1429675D01*
G01X1428295D02*
Y-1044076D01*
G01X1426915D02*
X1429675D01*
G01X1434850D02*
Y-1034676D01*
X1440140Y-1044076D01*
Y-1034676D01*
G01X1447385Y-1039376D02*
X1449685D01*
Y-1042196D01*
X1448995Y-1043136D01*
X1448190Y-1043763D01*
X1447040Y-1044076D01*
X1445890Y-1043763D01*
X1445085Y-1043136D01*
X1444395Y-1042196D01*
X1443935Y-1041099D01*
X1443705Y-1039846D01*
Y-1038749D01*
X1443935Y-1037810D01*
X1444395Y-1036713D01*
X1445085Y-1035773D01*
X1445775Y-1035146D01*
X1446695Y-1034676D01*
X1447500D01*
X1448420Y-1034989D01*
X1449110Y-1035616D01*
G01X1242110Y-1006243D02*
X1242800Y-1005303D01*
X1243605Y-1004833D01*
X1244525Y-1004676D01*
X1245675Y-1004989D01*
X1246480Y-1005773D01*
X1246710Y-1006713D01*
X1246595Y-1007653D01*
X1246135Y-1008436D01*
X1243835Y-1010003D01*
X1242800Y-1011099D01*
X1242110Y-1012666D01*
X1241880Y-1014076D01*
X1246710D01*
G01X1253495Y-1014389D02*
X1253265Y-1014233D01*
Y-1013919D01*
X1253495Y-1013763D01*
X1253725Y-1013919D01*
Y-1014233D01*
X1253495Y-1014389D01*
G01X1272815Y-1009063D02*
X1273275Y-1008593D01*
X1273620Y-1007810D01*
X1273850Y-1006713D01*
X1273620Y-1005773D01*
X1273160Y-1005146D01*
X1272355Y-1004676D01*
X1269250D01*
Y-1014076D01*
X1273045D01*
X1273850Y-1013449D01*
X1274310Y-1012509D01*
X1274540Y-1011413D01*
X1274310Y-1010316D01*
X1273620Y-1009376D01*
X1272815Y-1009063D01*
X1269250D01*
G01X1278795Y-1014076D02*
Y-1004676D01*
X1281670D01*
X1282590Y-1005146D01*
X1283165Y-1005773D01*
X1283395Y-1007026D01*
X1283165Y-1008279D01*
X1282475Y-1009063D01*
X1281670Y-1009533D01*
X1278795D01*
G01X1281670D02*
X1283395Y-1014076D01*
G01X1292595D02*
X1287995D01*
Y-1004676D01*
X1292595D01*
G01X1290755Y-1009219D02*
X1287995D01*
G01X1296620Y-1014076D02*
X1299495Y-1004676D01*
X1302370Y-1014076D01*
G01X1301335Y-1010786D02*
X1297655D01*
G01X1306165Y-1014076D02*
Y-1004676D01*
G01X1310535D02*
X1306165Y-1010473D01*
G01X1311225Y-1014076D02*
X1308120Y-1007810D01*
G01X1324220Y-1014076D02*
X1327095Y-1004676D01*
X1329970Y-1014076D01*
G01X1328935Y-1010786D02*
X1325255D01*
G01X1333995Y-1004676D02*
Y-1014076D01*
X1338595D01*
G01X1343195Y-1004676D02*
Y-1014076D01*
X1347795D01*
G01X1361480Y-1012823D02*
X1362400Y-1013606D01*
X1363435Y-1014076D01*
X1364355D01*
X1365275Y-1013606D01*
X1365965Y-1012823D01*
X1366310Y-1011726D01*
X1366080Y-1010629D01*
X1365505Y-1009689D01*
X1364470Y-1009063D01*
X1363090Y-1008749D01*
X1362285Y-1008123D01*
X1361940Y-1007026D01*
X1362170Y-1005929D01*
X1362745Y-1005146D01*
X1363550Y-1004676D01*
X1364355D01*
X1365160Y-1004989D01*
X1365850Y-1005773D01*
G01X1370680Y-1014076D02*
Y-1004676D01*
G01X1375510D02*
Y-1014076D01*
G01Y-1009376D02*
X1370680D01*
G01X1379420Y-1014076D02*
X1382295Y-1004676D01*
X1385170Y-1014076D01*
G01X1384135Y-1010786D02*
X1380455D01*
G01X1389195Y-1014076D02*
Y-1004676D01*
X1392070D01*
X1392990Y-1005146D01*
X1393565Y-1005773D01*
X1393795Y-1007026D01*
X1393565Y-1008279D01*
X1392875Y-1009063D01*
X1392070Y-1009533D01*
X1389195D01*
G01X1392070D02*
X1393795Y-1014076D01*
G01X1398395D02*
Y-1004676D01*
X1401155D01*
X1402075Y-1005146D01*
X1402765Y-1006243D01*
X1402995Y-1007496D01*
X1402765Y-1008749D01*
X1402190Y-1009689D01*
X1401155Y-1010160D01*
X1398395D01*
G01X1421395Y-1014076D02*
X1416795D01*
Y-1004676D01*
X1421395D01*
G01X1419555Y-1009219D02*
X1416795D01*
G01X1425765Y-1014076D02*
Y-1004676D01*
X1428065D01*
X1428985Y-1005146D01*
X1429675Y-1005773D01*
X1430250Y-1006713D01*
X1430710Y-1007810D01*
X1430825Y-1009376D01*
X1430710Y-1010943D01*
X1430250Y-1012039D01*
X1429675Y-1012980D01*
X1428985Y-1013606D01*
X1428065Y-1014076D01*
X1425765D01*
G01X1438185Y-1009376D02*
X1440485D01*
Y-1012196D01*
X1439795Y-1013136D01*
X1438990Y-1013763D01*
X1437840Y-1014076D01*
X1436690Y-1013763D01*
X1435885Y-1013136D01*
X1435195Y-1012196D01*
X1434735Y-1011099D01*
X1434505Y-1009846D01*
Y-1008749D01*
X1434735Y-1007810D01*
X1435195Y-1006713D01*
X1435885Y-1005773D01*
X1436575Y-1005146D01*
X1437495Y-1004676D01*
X1438300D01*
X1439220Y-1004989D01*
X1439910Y-1005616D01*
G01X1448995Y-1014076D02*
X1444395D01*
Y-1004676D01*
X1448995D01*
G01X1447155Y-1009219D02*
X1444395D01*
G01X1453480Y-1012823D02*
X1454400Y-1013606D01*
X1455435Y-1014076D01*
X1456355D01*
X1457275Y-1013606D01*
X1457965Y-1012823D01*
X1458310Y-1011726D01*
X1458080Y-1010629D01*
X1457505Y-1009689D01*
X1456470Y-1009063D01*
X1455090Y-1008749D01*
X1454285Y-1008123D01*
X1453940Y-1007026D01*
X1454170Y-1005929D01*
X1454745Y-1005146D01*
X1455550Y-1004676D01*
X1456355D01*
X1457160Y-1004989D01*
X1457850Y-1005773D01*
G01X1244295Y-984076D02*
Y-974676D01*
X1242915Y-976556D01*
G01Y-984076D02*
X1245675D01*
G01X1253495Y-984389D02*
X1253265Y-984233D01*
Y-983919D01*
X1253495Y-983763D01*
X1253725Y-983919D01*
Y-984233D01*
X1253495Y-984389D01*
G01X1269365Y-984076D02*
Y-974676D01*
X1271665D01*
X1272585Y-975146D01*
X1273275Y-975773D01*
X1273850Y-976713D01*
X1274310Y-977810D01*
X1274425Y-979376D01*
X1274310Y-980943D01*
X1273850Y-982039D01*
X1273275Y-982980D01*
X1272585Y-983606D01*
X1271665Y-984076D01*
X1269365D01*
G01X1279715Y-974676D02*
X1282475D01*
G01X1281095D02*
Y-984076D01*
G01X1279715D02*
X1282475D01*
G01X1287305D02*
Y-974676D01*
X1290295Y-982509D01*
X1293285Y-974676D01*
Y-984076D01*
G01X1301795D02*
X1297195D01*
Y-974676D01*
X1301795D01*
G01X1299955Y-979219D02*
X1297195D01*
G01X1306050Y-984076D02*
Y-974676D01*
X1311340Y-984076D01*
Y-974676D01*
G01X1315480Y-982823D02*
X1316400Y-983606D01*
X1317435Y-984076D01*
X1318355D01*
X1319275Y-983606D01*
X1319965Y-982823D01*
X1320310Y-981726D01*
X1320080Y-980629D01*
X1319505Y-979689D01*
X1318470Y-979063D01*
X1317090Y-978749D01*
X1316285Y-978123D01*
X1315940Y-977026D01*
X1316170Y-975929D01*
X1316745Y-975146D01*
X1317550Y-974676D01*
X1318355D01*
X1319160Y-974989D01*
X1319850Y-975773D01*
G01X1325715Y-974676D02*
X1328475D01*
G01X1327095D02*
Y-984076D01*
G01X1325715D02*
X1328475D01*
G01X1336295D02*
X1335375Y-983919D01*
X1334570Y-983293D01*
X1333880Y-982353D01*
X1333420Y-981256D01*
X1333190Y-980003D01*
Y-978749D01*
X1333420Y-977496D01*
X1333880Y-976399D01*
X1334570Y-975459D01*
X1335375Y-974833D01*
X1336295Y-974676D01*
X1337215Y-974833D01*
X1338020Y-975459D01*
X1338710Y-976399D01*
X1339170Y-977496D01*
X1339400Y-978749D01*
Y-980003D01*
X1339170Y-981256D01*
X1338710Y-982353D01*
X1338020Y-983293D01*
X1337215Y-983919D01*
X1336295Y-984076D01*
G01X1342850D02*
Y-974676D01*
X1348140Y-984076D01*
Y-974676D01*
G01X1352280Y-982823D02*
X1353200Y-983606D01*
X1354235Y-984076D01*
X1355155D01*
X1356075Y-983606D01*
X1356765Y-982823D01*
X1357110Y-981726D01*
X1356880Y-980629D01*
X1356305Y-979689D01*
X1355270Y-979063D01*
X1353890Y-978749D01*
X1353085Y-978123D01*
X1352740Y-977026D01*
X1352970Y-975929D01*
X1353545Y-975146D01*
X1354350Y-974676D01*
X1355155D01*
X1355960Y-974989D01*
X1356650Y-975773D01*
G01X1370220Y-984076D02*
X1373095Y-974676D01*
X1375970Y-984076D01*
G01X1374935Y-980786D02*
X1371255D01*
G01X1379995Y-984076D02*
Y-974676D01*
X1382870D01*
X1383790Y-975146D01*
X1384365Y-975773D01*
X1384595Y-977026D01*
X1384365Y-978279D01*
X1383675Y-979063D01*
X1382870Y-979533D01*
X1379995D01*
G01X1382870D02*
X1384595Y-984076D01*
G01X1393795D02*
X1389195D01*
Y-974676D01*
X1393795D01*
G01X1391955Y-979219D02*
X1389195D01*
G01X1408515Y-974676D02*
X1411275D01*
G01X1409895D02*
Y-984076D01*
G01X1408515D02*
X1411275D01*
G01X1416450D02*
Y-974676D01*
X1421740Y-984076D01*
Y-974676D01*
G01X1436115D02*
X1438875D01*
G01X1437495D02*
Y-984076D01*
G01X1436115D02*
X1438875D01*
G01X1444050D02*
Y-974676D01*
X1449340Y-984076D01*
Y-974676D01*
G01X1458425Y-975459D02*
X1457735Y-974989D01*
X1456930Y-974676D01*
X1456010D01*
X1454975Y-975146D01*
X1454170Y-975929D01*
X1453595Y-976869D01*
X1453135Y-978436D01*
X1453020Y-979846D01*
X1453250Y-981256D01*
X1453595Y-982196D01*
X1454285Y-983136D01*
X1455090Y-983763D01*
X1455895Y-984076D01*
X1456700D01*
X1457505Y-983763D01*
X1458195Y-983293D01*
X1458770Y-982666D01*
G01X1462680Y-984076D02*
Y-974676D01*
G01X1467510D02*
Y-984076D01*
G01Y-979376D02*
X1462680D01*
G01X1476595Y-984076D02*
X1471995D01*
Y-974676D01*
X1476595D01*
G01X1474755Y-979219D02*
X1471995D01*
G01X1481080Y-982823D02*
X1482000Y-983606D01*
X1483035Y-984076D01*
X1483955D01*
X1484875Y-983606D01*
X1485565Y-982823D01*
X1485910Y-981726D01*
X1485680Y-980629D01*
X1485105Y-979689D01*
X1484070Y-979063D01*
X1482690Y-978749D01*
X1481885Y-978123D01*
X1481540Y-977026D01*
X1481770Y-975929D01*
X1482345Y-975146D01*
X1483150Y-974676D01*
X1483955D01*
X1484760Y-974989D01*
X1485450Y-975773D01*
G01X1241765Y-944676D02*
Y-951413D01*
X1242225Y-952823D01*
X1243145Y-953763D01*
X1244295Y-954076D01*
X1245445Y-953763D01*
X1246365Y-952823D01*
X1246825Y-951413D01*
Y-944676D01*
G01X1250850Y-954076D02*
Y-944676D01*
X1256140Y-954076D01*
Y-944676D01*
G01X1260395D02*
Y-954076D01*
X1264995D01*
G01X1274195D02*
X1269595D01*
Y-944676D01*
X1274195D01*
G01X1272355Y-949219D02*
X1269595D01*
G01X1278680Y-952823D02*
X1279600Y-953606D01*
X1280635Y-954076D01*
X1281555D01*
X1282475Y-953606D01*
X1283165Y-952823D01*
X1283510Y-951726D01*
X1283280Y-950629D01*
X1282705Y-949689D01*
X1281670Y-949063D01*
X1280290Y-948749D01*
X1279485Y-948123D01*
X1279140Y-947026D01*
X1279370Y-945929D01*
X1279945Y-945146D01*
X1280750Y-944676D01*
X1281555D01*
X1282360Y-944989D01*
X1283050Y-945773D01*
G01X1287880Y-952823D02*
X1288800Y-953606D01*
X1289835Y-954076D01*
X1290755D01*
X1291675Y-953606D01*
X1292365Y-952823D01*
X1292710Y-951726D01*
X1292480Y-950629D01*
X1291905Y-949689D01*
X1290870Y-949063D01*
X1289490Y-948749D01*
X1288685Y-948123D01*
X1288340Y-947026D01*
X1288570Y-945929D01*
X1289145Y-945146D01*
X1289950Y-944676D01*
X1290755D01*
X1291560Y-944989D01*
X1292250Y-945773D01*
G01X1308695Y-954076D02*
X1307775Y-953919D01*
X1306970Y-953293D01*
X1306280Y-952353D01*
X1305820Y-951256D01*
X1305590Y-950003D01*
Y-948749D01*
X1305820Y-947496D01*
X1306280Y-946399D01*
X1306970Y-945459D01*
X1307775Y-944833D01*
X1308695Y-944676D01*
X1309615Y-944833D01*
X1310420Y-945459D01*
X1311110Y-946399D01*
X1311570Y-947496D01*
X1311800Y-948749D01*
Y-950003D01*
X1311570Y-951256D01*
X1311110Y-952353D01*
X1310420Y-953293D01*
X1309615Y-953919D01*
X1308695Y-954076D01*
G01X1317895Y-944676D02*
Y-954076D01*
G01X1315250Y-944676D02*
X1320540D01*
G01X1324680Y-954076D02*
Y-944676D01*
G01X1329510D02*
Y-954076D01*
G01Y-949376D02*
X1324680D01*
G01X1338595Y-954076D02*
X1333995D01*
Y-944676D01*
X1338595D01*
G01X1336755Y-949219D02*
X1333995D01*
G01X1343195Y-954076D02*
Y-944676D01*
X1346070D01*
X1346990Y-945146D01*
X1347565Y-945773D01*
X1347795Y-947026D01*
X1347565Y-948279D01*
X1346875Y-949063D01*
X1346070Y-949533D01*
X1343195D01*
G01X1346070D02*
X1347795Y-954076D01*
G01X1351245Y-944676D02*
X1352855Y-954076D01*
X1354695Y-944676D01*
X1356535Y-954076D01*
X1358145Y-944676D01*
G01X1362515D02*
X1365275D01*
G01X1363895D02*
Y-954076D01*
G01X1362515D02*
X1365275D01*
G01X1370680Y-952823D02*
X1371600Y-953606D01*
X1372635Y-954076D01*
X1373555D01*
X1374475Y-953606D01*
X1375165Y-952823D01*
X1375510Y-951726D01*
X1375280Y-950629D01*
X1374705Y-949689D01*
X1373670Y-949063D01*
X1372290Y-948749D01*
X1371485Y-948123D01*
X1371140Y-947026D01*
X1371370Y-945929D01*
X1371945Y-945146D01*
X1372750Y-944676D01*
X1373555D01*
X1374360Y-944989D01*
X1375050Y-945773D01*
G01X1384595Y-954076D02*
X1379995D01*
Y-944676D01*
X1384595D01*
G01X1382755Y-949219D02*
X1379995D01*
G01X1398280Y-952823D02*
X1399200Y-953606D01*
X1400235Y-954076D01*
X1401155D01*
X1402075Y-953606D01*
X1402765Y-952823D01*
X1403110Y-951726D01*
X1402880Y-950629D01*
X1402305Y-949689D01*
X1401270Y-949063D01*
X1399890Y-948749D01*
X1399085Y-948123D01*
X1398740Y-947026D01*
X1398970Y-945929D01*
X1399545Y-945146D01*
X1400350Y-944676D01*
X1401155D01*
X1401960Y-944989D01*
X1402650Y-945773D01*
G01X1407595Y-954076D02*
Y-944676D01*
X1410355D01*
X1411275Y-945146D01*
X1411965Y-946243D01*
X1412195Y-947496D01*
X1411965Y-948749D01*
X1411390Y-949689D01*
X1410355Y-950160D01*
X1407595D01*
G01X1421395Y-954076D02*
X1416795D01*
Y-944676D01*
X1421395D01*
G01X1419555Y-949219D02*
X1416795D01*
G01X1430825Y-945459D02*
X1430135Y-944989D01*
X1429330Y-944676D01*
X1428410D01*
X1427375Y-945146D01*
X1426570Y-945929D01*
X1425995Y-946869D01*
X1425535Y-948436D01*
X1425420Y-949846D01*
X1425650Y-951256D01*
X1425995Y-952196D01*
X1426685Y-953136D01*
X1427490Y-953763D01*
X1428295Y-954076D01*
X1429100D01*
X1429905Y-953763D01*
X1430595Y-953293D01*
X1431170Y-952666D01*
G01X1436115Y-944676D02*
X1438875D01*
G01X1437495D02*
Y-954076D01*
G01X1436115D02*
X1438875D01*
G01X1444510D02*
Y-944676D01*
X1448880D01*
G01X1447270Y-949219D02*
X1444510D01*
G01X1454515Y-944676D02*
X1457275D01*
G01X1455895D02*
Y-954076D01*
G01X1454515D02*
X1457275D01*
G01X1467395D02*
X1462795D01*
Y-944676D01*
X1467395D01*
G01X1465555Y-949219D02*
X1462795D01*
G01X1471765Y-954076D02*
Y-944676D01*
X1474065D01*
X1474985Y-945146D01*
X1475675Y-945773D01*
X1476250Y-946713D01*
X1476710Y-947810D01*
X1476825Y-949376D01*
X1476710Y-950943D01*
X1476250Y-952039D01*
X1475675Y-952980D01*
X1474985Y-953606D01*
X1474065Y-954076D01*
X1471765D01*
G01X1483495Y-954389D02*
X1483265Y-954233D01*
Y-953919D01*
X1483495Y-953763D01*
X1483725Y-953919D01*
Y-954233D01*
X1483495Y-954389D01*
G01Y-950160D02*
X1483265Y-950003D01*
Y-949689D01*
X1483495Y-949533D01*
X1483725Y-949689D01*
Y-950003D01*
X1483495Y-950160D01*
G01X1504595Y-1038076D02*
X1499995D01*
Y-1028676D01*
X1504595D01*
G01X1502755Y-1033219D02*
X1499995D01*
G01X1508850Y-1038076D02*
Y-1028676D01*
X1514140Y-1038076D01*
Y-1028676D01*
G01X1521385Y-1033376D02*
X1523685D01*
Y-1036196D01*
X1522995Y-1037136D01*
X1522190Y-1037763D01*
X1521040Y-1038076D01*
X1519890Y-1037763D01*
X1519085Y-1037136D01*
X1518395Y-1036196D01*
X1517935Y-1035099D01*
X1517705Y-1033846D01*
Y-1032749D01*
X1517935Y-1031810D01*
X1518395Y-1030713D01*
X1519085Y-1029773D01*
X1519775Y-1029146D01*
X1520695Y-1028676D01*
X1521500D01*
X1522420Y-1028989D01*
X1523110Y-1029616D01*
G01X1527595Y-1038076D02*
Y-1028676D01*
X1530470D01*
X1531390Y-1029146D01*
X1531965Y-1029773D01*
X1532195Y-1031026D01*
X1531965Y-1032279D01*
X1531275Y-1033063D01*
X1530470Y-1033533D01*
X1527595D01*
G01X1530470D02*
X1532195Y-1038076D01*
G01X1504825Y-1004459D02*
X1504135Y-1003989D01*
X1503330Y-1003676D01*
X1502410D01*
X1501375Y-1004146D01*
X1500570Y-1004929D01*
X1499995Y-1005869D01*
X1499535Y-1007436D01*
X1499420Y-1008846D01*
X1499650Y-1010256D01*
X1499995Y-1011196D01*
X1500685Y-1012136D01*
X1501490Y-1012763D01*
X1502295Y-1013076D01*
X1503100D01*
X1503905Y-1012763D01*
X1504595Y-1012293D01*
X1505170Y-1011666D01*
G01X1509080Y-1013076D02*
Y-1003676D01*
G01X1513910D02*
Y-1013076D01*
G01Y-1008376D02*
X1509080D01*
G01X1518165Y-1013076D02*
Y-1003676D01*
G01X1522535D02*
X1518165Y-1009473D01*
G01X1523225Y-1013076D02*
X1520120Y-1006810D01*
G01X1540015Y-1008063D02*
X1540475Y-1007593D01*
X1540820Y-1006810D01*
X1541050Y-1005713D01*
X1540820Y-1004773D01*
X1540360Y-1004146D01*
X1539555Y-1003676D01*
X1536450D01*
Y-1013076D01*
X1540245D01*
X1541050Y-1012449D01*
X1541510Y-1011509D01*
X1541740Y-1010413D01*
X1541510Y-1009316D01*
X1540820Y-1008376D01*
X1540015Y-1008063D01*
X1536450D01*
G01X1548295Y-1013076D02*
Y-1008846D01*
X1545995Y-1003676D01*
G01X1550595D02*
X1548295Y-1008846D01*
G01X1499765Y-983076D02*
Y-973676D01*
X1502065D01*
X1502985Y-974146D01*
X1503675Y-974773D01*
X1504250Y-975713D01*
X1504710Y-976810D01*
X1504825Y-978376D01*
X1504710Y-979943D01*
X1504250Y-981039D01*
X1503675Y-981980D01*
X1502985Y-982606D01*
X1502065Y-983076D01*
X1499765D01*
G01X1509195D02*
Y-973676D01*
X1512070D01*
X1512990Y-974146D01*
X1513565Y-974773D01*
X1513795Y-976026D01*
X1513565Y-977279D01*
X1512875Y-978063D01*
X1512070Y-978533D01*
X1509195D01*
G01X1512070D02*
X1513795Y-983076D01*
G01X1518050D02*
Y-973676D01*
X1523340Y-983076D01*
Y-973676D01*
G01X1540015Y-978063D02*
X1540475Y-977593D01*
X1540820Y-976810D01*
X1541050Y-975713D01*
X1540820Y-974773D01*
X1540360Y-974146D01*
X1539555Y-973676D01*
X1536450D01*
Y-983076D01*
X1540245D01*
X1541050Y-982449D01*
X1541510Y-981509D01*
X1541740Y-980413D01*
X1541510Y-979316D01*
X1540820Y-978376D01*
X1540015Y-978063D01*
X1536450D01*
G01X1548295Y-983076D02*
Y-978846D01*
X1545995Y-973676D01*
G01X1550595D02*
X1548295Y-978846D01*
G01X1554880Y-951823D02*
X1555800Y-952606D01*
X1556835Y-953076D01*
X1557755D01*
X1558675Y-952606D01*
X1559365Y-951823D01*
X1559710Y-950726D01*
X1559480Y-949629D01*
X1558905Y-948689D01*
X1557870Y-948063D01*
X1556490Y-947749D01*
X1555685Y-947123D01*
X1555340Y-946026D01*
X1555570Y-944929D01*
X1556145Y-944146D01*
X1556950Y-943676D01*
X1557755D01*
X1558560Y-943989D01*
X1559250Y-944773D01*
G01X1565115Y-943676D02*
X1567875D01*
G01X1566495D02*
Y-953076D01*
G01X1565115D02*
X1567875D01*
G01X1576385Y-948376D02*
X1578685D01*
Y-951196D01*
X1577995Y-952136D01*
X1577190Y-952763D01*
X1576040Y-953076D01*
X1574890Y-952763D01*
X1574085Y-952136D01*
X1573395Y-951196D01*
X1572935Y-950099D01*
X1572705Y-948846D01*
Y-947749D01*
X1572935Y-946810D01*
X1573395Y-945713D01*
X1574085Y-944773D01*
X1574775Y-944146D01*
X1575695Y-943676D01*
X1576500D01*
X1577420Y-943989D01*
X1578110Y-944616D01*
G01X1582250Y-953076D02*
Y-943676D01*
X1587540Y-953076D01*
Y-943676D01*
G01X1591220Y-953076D02*
X1594095Y-943676D01*
X1596970Y-953076D01*
G01X1595935Y-949786D02*
X1592255D01*
G01X1603295Y-943676D02*
Y-953076D01*
G01X1600650Y-943676D02*
X1605940D01*
G01X1609965D02*
Y-950413D01*
X1610425Y-951823D01*
X1611345Y-952763D01*
X1612495Y-953076D01*
X1613645Y-952763D01*
X1614565Y-951823D01*
X1615025Y-950413D01*
Y-943676D01*
G01X1619395Y-953076D02*
Y-943676D01*
X1622270D01*
X1623190Y-944146D01*
X1623765Y-944773D01*
X1623995Y-946026D01*
X1623765Y-947279D01*
X1623075Y-948063D01*
X1622270Y-948533D01*
X1619395D01*
G01X1622270D02*
X1623995Y-953076D01*
G01X1633195D02*
X1628595D01*
Y-943676D01*
X1633195D01*
G01X1631355Y-948219D02*
X1628595D01*
G01X1683265Y-952476D02*
Y-943076D01*
X1685565D01*
X1686485Y-943546D01*
X1687175Y-944173D01*
X1687750Y-945113D01*
X1688210Y-946210D01*
X1688325Y-947776D01*
X1688210Y-949343D01*
X1687750Y-950439D01*
X1687175Y-951380D01*
X1686485Y-952006D01*
X1685565Y-952476D01*
X1683265D01*
G01X1692120D02*
X1694995Y-943076D01*
X1697870Y-952476D01*
G01X1696835Y-949186D02*
X1693155D01*
G01X1704195Y-943076D02*
Y-952476D01*
G01X1701550Y-943076D02*
X1706840D01*
G01X1715695Y-952476D02*
X1711095D01*
Y-943076D01*
X1715695D01*
G01X1713855Y-947619D02*
X1711095D01*
G01X1757295Y-1013676D02*
Y-1023076D01*
G01X1754650Y-1013676D02*
X1759940D01*
G01X1765115D02*
X1767875D01*
G01X1766495D02*
Y-1023076D01*
G01X1765115D02*
X1767875D01*
G01X1775695Y-1013676D02*
Y-1023076D01*
G01X1773050Y-1013676D02*
X1778340D01*
G01X1782595D02*
Y-1023076D01*
X1787195D01*
G01X1796395D02*
X1791795D01*
Y-1013676D01*
X1796395D01*
G01X1794555Y-1018219D02*
X1791795D01*
G54D34*
X-339050Y22660D03*
Y20690D03*
Y18720D03*
Y16750D03*
Y14780D03*
Y36440D03*
Y34470D03*
Y32500D03*
Y30530D03*
Y28560D03*
Y26590D03*
Y24630D03*
X-306050Y14780D03*
Y16750D03*
Y18720D03*
Y20690D03*
Y22660D03*
Y24630D03*
Y26590D03*
Y28560D03*
Y30530D03*
Y32500D03*
Y34470D03*
Y36440D03*
G54D43*
X-179152Y-318400D03*
X-182900Y-309400D03*
X-178752Y-149000D03*
X-182500Y-140000D03*
X-175400Y-309400D03*
X-175000Y-140000D03*
G54D16*
X-444588Y-296812D03*
X-406700Y-95900D03*
Y-70300D03*
X-389100Y-95900D03*
X-243800Y-84300D03*
X-233800D03*
X-223800D03*
X-174400Y-35700D03*
Y-25700D03*
X-136700Y-400100D03*
Y-371900D03*
Y-269100D03*
Y-238900D03*
Y-149498D03*
Y-120689D03*
Y-91880D03*
Y-63071D03*
Y-34262D03*
Y-5453D03*
Y23356D03*
X-126700Y-400100D03*
Y-371900D03*
Y-269100D03*
Y-238900D03*
Y-149498D03*
Y-120689D03*
Y-91880D03*
Y-63071D03*
Y-34262D03*
Y-5453D03*
Y23356D03*
G54D25*
X-402812Y-390017D03*
Y-377115D03*
Y-304602D03*
Y-291700D03*
Y-224017D03*
Y-211115D03*
Y-135817D03*
Y-122915D03*
G54D35*
X-316704Y-438584D03*
X-324904D03*
X-314000Y-352200D03*
X-322200D03*
X-316704Y-272584D03*
X-324904D03*
X-316704Y-184384D03*
X-324904D03*
X-307404Y-438584D03*
Y-429368D03*
X-306300Y-352200D03*
X-306600Y-343500D03*
X-307404Y-272584D03*
Y-263368D03*
Y-184384D03*
Y-175168D03*
X-299204Y-438584D03*
Y-429368D03*
X-298100Y-352200D03*
X-298400Y-343500D03*
X-299204Y-272584D03*
Y-263368D03*
Y-184384D03*
Y-175168D03*
G54D44*
X-85634Y-355072D03*
Y-357631D03*
Y-360190D03*
Y-239520D03*
Y-242079D03*
Y-236961D03*
Y-118851D03*
Y-121410D03*
Y-123969D03*
Y-3300D03*
Y-5859D03*
Y-741D03*
X-77366Y-360190D03*
Y-357631D03*
Y-355072D03*
Y-242079D03*
Y-239520D03*
Y-236961D03*
Y-123969D03*
Y-121410D03*
Y-118851D03*
Y-5859D03*
Y-3300D03*
Y-741D03*
X175666Y-340872D03*
Y-343431D03*
Y-345990D03*
Y-211879D03*
Y-206761D03*
Y-209320D03*
Y-88051D03*
Y-90610D03*
Y-93169D03*
Y30359D03*
Y27800D03*
Y25241D03*
X183934Y-345990D03*
Y-343431D03*
Y-340872D03*
Y-211879D03*
Y-209320D03*
Y-206761D03*
Y-93169D03*
Y-90610D03*
Y-88051D03*
Y25241D03*
Y27800D03*
Y30359D03*
X646166Y-340872D03*
Y-343431D03*
Y-345990D03*
X646366Y-210679D03*
Y-205561D03*
Y-208120D03*
X648266Y-87951D03*
Y-90510D03*
Y-93069D03*
X646866Y30359D03*
Y27800D03*
Y25241D03*
X654434Y-345990D03*
Y-343431D03*
Y-340872D03*
X654634Y-210679D03*
Y-208120D03*
Y-205561D03*
X656534Y-93069D03*
Y-90510D03*
Y-87951D03*
X655134Y25241D03*
Y27800D03*
Y30359D03*
G54D17*
X-444588Y-286812D03*
X-389100Y-70300D03*
X-253800Y-84300D03*
X-174400Y-45700D03*
X-116700Y-400100D03*
Y-371900D03*
Y-269100D03*
Y-238900D03*
Y-149498D03*
Y-120689D03*
Y-91880D03*
Y-63071D03*
Y-34262D03*
Y-5453D03*
Y23356D03*
G54D26*
X-402140Y-570D03*
Y9430D03*
Y19430D03*
Y29430D03*
X-392140Y-5570D03*
Y4430D03*
Y14430D03*
Y24430D03*
X-171370Y4060D03*
Y24060D03*
G54D45*
X-12795Y-377067D03*
X-14764D03*
Y-331595D03*
X-12795D03*
Y-258956D03*
X-14764D03*
Y-213484D03*
X-12795D03*
Y-140846D03*
X-14764D03*
Y-95374D03*
X-12795D03*
Y-22736D03*
X-14764D03*
Y22736D03*
X-12795D03*
X984Y-377067D03*
X-984D03*
X-2953D03*
X-4921D03*
X-6890D03*
X-8858D03*
X-10827D03*
Y-331595D03*
X-8858D03*
X-6890D03*
X-4921D03*
X-2953D03*
X-984D03*
X984D03*
Y-258956D03*
X-984D03*
X-2953D03*
X-4921D03*
X-6890D03*
X-8858D03*
X-10827D03*
Y-213484D03*
X-8858D03*
X-6890D03*
X-4921D03*
X-2953D03*
X-984D03*
X984D03*
Y-140846D03*
X-984D03*
X-2953D03*
X-4921D03*
X-6890D03*
X-8858D03*
X-10827D03*
Y-95374D03*
X-8858D03*
X-6890D03*
X-4921D03*
X-2953D03*
X-984D03*
X984D03*
Y-22736D03*
X-984D03*
X-2953D03*
X-4921D03*
X-6890D03*
X-8858D03*
X-10827D03*
Y22736D03*
X-8858D03*
X-6890D03*
X-4921D03*
X-2953D03*
X-984D03*
X984D03*
X14764Y-377067D03*
X12795D03*
X10827D03*
X8858D03*
X6890D03*
X4921D03*
X2953D03*
Y-331595D03*
X4921D03*
X6890D03*
X8858D03*
X10827D03*
X12795D03*
X14764D03*
Y-258956D03*
X12795D03*
X10827D03*
X8858D03*
X6890D03*
X4921D03*
X2953D03*
Y-213484D03*
X4921D03*
X6890D03*
X8858D03*
X10827D03*
X12795D03*
X14764D03*
Y-140846D03*
X12795D03*
X10827D03*
X8858D03*
X6890D03*
X4921D03*
X2953D03*
Y-95374D03*
X4921D03*
X6890D03*
X8858D03*
X10827D03*
X12795D03*
X14764D03*
Y-22736D03*
X12795D03*
X10827D03*
X8858D03*
X6890D03*
X4921D03*
X2953D03*
Y22736D03*
X4921D03*
X6890D03*
X8858D03*
X10827D03*
X12795D03*
X14764D03*
X111220Y-377067D03*
X109252D03*
X107283D03*
X105315D03*
X103346D03*
Y-331595D03*
X105315D03*
X107283D03*
X109252D03*
X111220D03*
Y-258956D03*
X109252D03*
X107283D03*
X105315D03*
X103346D03*
Y-213484D03*
X105315D03*
X107283D03*
X109252D03*
X111220D03*
Y-140846D03*
X109252D03*
X107283D03*
X105315D03*
X103346D03*
Y-95374D03*
X105315D03*
X107283D03*
X109252D03*
X111220D03*
Y-22736D03*
X109252D03*
X107283D03*
X105315D03*
X103346D03*
Y22736D03*
X105315D03*
X107283D03*
X109252D03*
X111220D03*
X125000Y-377067D03*
X123031D03*
X121063D03*
X119094D03*
X117126D03*
X115157D03*
X113189D03*
Y-331595D03*
X115157D03*
X117126D03*
X119094D03*
X121063D03*
X123031D03*
X125000D03*
Y-258956D03*
X123031D03*
X121063D03*
X119094D03*
X117126D03*
X115157D03*
X113189D03*
Y-213484D03*
X115157D03*
X117126D03*
X119094D03*
X121063D03*
X123031D03*
X125000D03*
Y-140846D03*
X123031D03*
X121063D03*
X119094D03*
X117126D03*
X115157D03*
X113189D03*
Y-95374D03*
X115157D03*
X117126D03*
X119094D03*
X121063D03*
X123031D03*
X125000D03*
Y-22736D03*
X123031D03*
X121063D03*
X119094D03*
X117126D03*
X115157D03*
X113189D03*
Y22736D03*
X115157D03*
X117126D03*
X119094D03*
X121063D03*
X123031D03*
X125000D03*
X132874Y-377067D03*
X130905D03*
X128937D03*
X126968D03*
Y-331595D03*
X128937D03*
X130905D03*
X132874D03*
Y-258956D03*
X130905D03*
X128937D03*
X126968D03*
Y-213484D03*
X128937D03*
X130905D03*
X132874D03*
Y-140846D03*
X130905D03*
X128937D03*
X126968D03*
Y-95374D03*
X128937D03*
X130905D03*
X132874D03*
Y-22736D03*
X130905D03*
X128937D03*
X126968D03*
Y22736D03*
X128937D03*
X130905D03*
X132874D03*
X221456Y-377067D03*
Y-331595D03*
Y-258956D03*
Y-213484D03*
Y-140846D03*
Y-95374D03*
Y-22736D03*
Y22736D03*
X235236Y-377067D03*
X233267D03*
X231299D03*
X229330D03*
X227362D03*
X225393D03*
X223425D03*
Y-331595D03*
X225393D03*
X227362D03*
X229330D03*
X231299D03*
X233267D03*
X235236D03*
Y-258956D03*
X233267D03*
X231299D03*
X229330D03*
X227362D03*
X225393D03*
X223425D03*
Y-213484D03*
X225393D03*
X227362D03*
X229330D03*
X231299D03*
X233267D03*
X235236D03*
Y-140846D03*
X233267D03*
X231299D03*
X229330D03*
X227362D03*
X225393D03*
X223425D03*
Y-95374D03*
X225393D03*
X227362D03*
X229330D03*
X231299D03*
X233267D03*
X235236D03*
Y-22736D03*
X233267D03*
X231299D03*
X229330D03*
X227362D03*
X225393D03*
X223425D03*
Y22736D03*
X225393D03*
X227362D03*
X229330D03*
X231299D03*
X233267D03*
X235236D03*
X249015Y-377067D03*
X247047D03*
X245078D03*
X243110D03*
X241141D03*
X239173D03*
X237204D03*
Y-331595D03*
X239173D03*
X241141D03*
X243110D03*
X245078D03*
X247047D03*
X249015D03*
Y-258956D03*
X247047D03*
X245078D03*
X243110D03*
X241141D03*
X239173D03*
X237204D03*
Y-213484D03*
X239173D03*
X241141D03*
X243110D03*
X245078D03*
X247047D03*
X249015D03*
Y-140846D03*
X247047D03*
X245078D03*
X243110D03*
X241141D03*
X239173D03*
X237204D03*
Y-95374D03*
X239173D03*
X241141D03*
X243110D03*
X245078D03*
X247047D03*
X249015D03*
Y-22736D03*
X247047D03*
X245078D03*
X243110D03*
X241141D03*
X239173D03*
X237204D03*
Y22736D03*
X239173D03*
X241141D03*
X243110D03*
X245078D03*
X247047D03*
X249015D03*
X250984Y-377067D03*
Y-331595D03*
Y-258956D03*
Y-213484D03*
Y-140846D03*
Y-95374D03*
Y-22736D03*
Y22736D03*
X347441Y-377067D03*
X345473D03*
X343504D03*
X341536D03*
X339567D03*
Y-331595D03*
X341536D03*
X343504D03*
X345473D03*
X347441D03*
Y-258956D03*
X345473D03*
X343504D03*
X341536D03*
X339567D03*
Y-213484D03*
X341536D03*
X343504D03*
X345473D03*
X347441D03*
Y-140846D03*
X345473D03*
X343504D03*
X341536D03*
X339567D03*
Y-95374D03*
X341536D03*
X343504D03*
X345473D03*
X347441D03*
Y-22736D03*
X345473D03*
X343504D03*
X341536D03*
X339567D03*
Y22736D03*
X341536D03*
X343504D03*
X345473D03*
X347441D03*
X361221Y-377067D03*
X359252D03*
X357284D03*
X355315D03*
X353347D03*
X351378D03*
X349410D03*
Y-331595D03*
X351378D03*
X353347D03*
X355315D03*
X357284D03*
X359252D03*
X361221D03*
Y-258956D03*
X359252D03*
X357284D03*
X355315D03*
X353347D03*
X351378D03*
X349410D03*
Y-213484D03*
X351378D03*
X353347D03*
X355315D03*
X357284D03*
X359252D03*
X361221D03*
Y-140846D03*
X359252D03*
X357284D03*
X355315D03*
X353347D03*
X351378D03*
X349410D03*
Y-95374D03*
X351378D03*
X353347D03*
X355315D03*
X357284D03*
X359252D03*
X361221D03*
Y-22736D03*
X359252D03*
X357284D03*
X355315D03*
X353347D03*
X351378D03*
X349410D03*
Y22736D03*
X351378D03*
X353347D03*
X355315D03*
X357284D03*
X359252D03*
X361221D03*
X369095Y-377067D03*
X367126D03*
X365158D03*
X363189D03*
Y-331595D03*
X365158D03*
X367126D03*
X369095D03*
Y-258956D03*
X367126D03*
X365158D03*
X363189D03*
Y-213484D03*
X365158D03*
X367126D03*
X369095D03*
Y-140846D03*
X367126D03*
X365158D03*
X363189D03*
Y-95374D03*
X365158D03*
X367126D03*
X369095D03*
Y-22736D03*
X367126D03*
X365158D03*
X363189D03*
Y22736D03*
X365158D03*
X367126D03*
X369095D03*
X457677Y-377067D03*
Y-331595D03*
Y-258956D03*
Y-213484D03*
Y-140846D03*
Y-95374D03*
Y-22736D03*
Y22736D03*
X471457Y-377067D03*
X469488D03*
X467520D03*
X465551D03*
X463583D03*
X461614D03*
X459646D03*
Y-331595D03*
X461614D03*
X463583D03*
X465551D03*
X467520D03*
X469488D03*
X471457D03*
Y-258956D03*
X469488D03*
X467520D03*
X465551D03*
X463583D03*
X461614D03*
X459646D03*
Y-213484D03*
X461614D03*
X463583D03*
X465551D03*
X467520D03*
X469488D03*
X471457D03*
Y-140846D03*
X469488D03*
X467520D03*
X465551D03*
X463583D03*
X461614D03*
X459646D03*
Y-95374D03*
X461614D03*
X463583D03*
X465551D03*
X467520D03*
X469488D03*
X471457D03*
Y-22736D03*
X469488D03*
X467520D03*
X465551D03*
X463583D03*
X461614D03*
X459646D03*
Y22736D03*
X461614D03*
X463583D03*
X465551D03*
X467520D03*
X469488D03*
X471457D03*
X485236Y-377067D03*
X483268D03*
X481299D03*
X479331D03*
X477362D03*
X475394D03*
X473425D03*
Y-331595D03*
X475394D03*
X477362D03*
X479331D03*
X481299D03*
X483268D03*
X485236D03*
Y-258956D03*
X483268D03*
X481299D03*
X479331D03*
X477362D03*
X475394D03*
X473425D03*
Y-213484D03*
X475394D03*
X477362D03*
X479331D03*
X481299D03*
X483268D03*
X485236D03*
Y-140846D03*
X483268D03*
X481299D03*
X479331D03*
X477362D03*
X475394D03*
X473425D03*
Y-95374D03*
X475394D03*
X477362D03*
X479331D03*
X481299D03*
X483268D03*
X485236D03*
Y-22736D03*
X483268D03*
X481299D03*
X479331D03*
X477362D03*
X475394D03*
X473425D03*
Y22736D03*
X475394D03*
X477362D03*
X479331D03*
X481299D03*
X483268D03*
X485236D03*
X487205Y-377067D03*
Y-331595D03*
Y-258956D03*
Y-213484D03*
Y-140846D03*
Y-95374D03*
Y-22736D03*
Y22736D03*
X581693Y-377067D03*
X579724D03*
X577756D03*
X575787D03*
Y-331595D03*
X577756D03*
X579724D03*
X581693D03*
Y-258956D03*
X579724D03*
X577756D03*
X575787D03*
Y-213484D03*
X577756D03*
X579724D03*
X581693D03*
Y-140846D03*
X579724D03*
X577756D03*
X575787D03*
Y-95374D03*
X577756D03*
X579724D03*
X581693D03*
Y-22736D03*
X579724D03*
X577756D03*
X575787D03*
Y22736D03*
X577756D03*
X579724D03*
X581693D03*
X595472Y-377067D03*
X593504D03*
X591535D03*
X589567D03*
X587598D03*
X585630D03*
X583661D03*
Y-331595D03*
X585630D03*
X587598D03*
X589567D03*
X591535D03*
X593504D03*
X595472D03*
Y-258956D03*
X593504D03*
X591535D03*
X589567D03*
X587598D03*
X585630D03*
X583661D03*
Y-213484D03*
X585630D03*
X587598D03*
X589567D03*
X591535D03*
X593504D03*
X595472D03*
Y-140846D03*
X593504D03*
X591535D03*
X589567D03*
X587598D03*
X585630D03*
X583661D03*
Y-95374D03*
X585630D03*
X587598D03*
X589567D03*
X591535D03*
X593504D03*
X595472D03*
Y-22736D03*
X593504D03*
X591535D03*
X589567D03*
X587598D03*
X585630D03*
X583661D03*
Y22736D03*
X585630D03*
X587598D03*
X589567D03*
X591535D03*
X593504D03*
X595472D03*
X605315Y-377067D03*
X603346D03*
X601378D03*
X599409D03*
X597441D03*
Y-331595D03*
X599409D03*
X601378D03*
X603346D03*
X605315D03*
Y-258956D03*
X603346D03*
X601378D03*
X599409D03*
X597441D03*
Y-213484D03*
X599409D03*
X601378D03*
X603346D03*
X605315D03*
Y-140846D03*
X603346D03*
X601378D03*
X599409D03*
X597441D03*
Y-95374D03*
X599409D03*
X601378D03*
X603346D03*
X605315D03*
Y-22736D03*
X603346D03*
X601378D03*
X599409D03*
X597441D03*
Y22736D03*
X599409D03*
X601378D03*
X603346D03*
X605315D03*
X705708Y-377067D03*
X703740D03*
X701771D03*
X699803D03*
X697834D03*
X695866D03*
X693897D03*
Y-331595D03*
X695866D03*
X697834D03*
X699803D03*
X701771D03*
X703740D03*
X705708D03*
Y-258956D03*
X703740D03*
X701771D03*
X699803D03*
X697834D03*
X695866D03*
X693897D03*
Y-213484D03*
X695866D03*
X697834D03*
X699803D03*
X701771D03*
X703740D03*
X705708D03*
Y-140846D03*
X703740D03*
X701771D03*
X699803D03*
X697834D03*
X695866D03*
X693897D03*
Y-95374D03*
X695866D03*
X697834D03*
X699803D03*
X701771D03*
X703740D03*
X705708D03*
Y-22736D03*
X703740D03*
X701771D03*
X699803D03*
X697834D03*
X695866D03*
X693897D03*
Y22736D03*
X695866D03*
X697834D03*
X699803D03*
X701771D03*
X703740D03*
X705708D03*
X719488Y-377067D03*
X717519D03*
X715551D03*
X713582D03*
X711614D03*
X709645D03*
X707677D03*
Y-331595D03*
X709645D03*
X711614D03*
X713582D03*
X715551D03*
X717519D03*
X719488D03*
Y-258956D03*
X717519D03*
X715551D03*
X713582D03*
X711614D03*
X709645D03*
X707677D03*
Y-213484D03*
X709645D03*
X711614D03*
X713582D03*
X715551D03*
X717519D03*
X719488D03*
Y-140846D03*
X717519D03*
X715551D03*
X713582D03*
X711614D03*
X709645D03*
X707677D03*
Y-95374D03*
X709645D03*
X711614D03*
X713582D03*
X715551D03*
X717519D03*
X719488D03*
Y-22736D03*
X717519D03*
X715551D03*
X713582D03*
X711614D03*
X709645D03*
X707677D03*
Y22736D03*
X709645D03*
X711614D03*
X713582D03*
X715551D03*
X717519D03*
X719488D03*
X723425Y-377067D03*
X721456D03*
Y-331595D03*
X723425D03*
Y-258956D03*
X721456D03*
Y-213484D03*
X723425D03*
Y-140846D03*
X721456D03*
Y-95374D03*
X723425D03*
Y-22736D03*
X721456D03*
Y22736D03*
X723425D03*
X815945Y-377067D03*
X813977D03*
X812008D03*
Y-331595D03*
X813977D03*
X815945D03*
Y-258956D03*
X813977D03*
X812008D03*
Y-213484D03*
X813977D03*
X815945D03*
Y-140846D03*
X813977D03*
X812008D03*
Y-95374D03*
X813977D03*
X815945D03*
Y-22736D03*
X813977D03*
X812008D03*
Y22736D03*
X813977D03*
X815945D03*
X829725Y-377067D03*
X827756D03*
X825788D03*
X823819D03*
X821851D03*
X819882D03*
X817914D03*
Y-331595D03*
X819882D03*
X821851D03*
X823819D03*
X825788D03*
X827756D03*
X829725D03*
Y-258956D03*
X827756D03*
X825788D03*
X823819D03*
X821851D03*
X819882D03*
X817914D03*
Y-213484D03*
X819882D03*
X821851D03*
X823819D03*
X825788D03*
X827756D03*
X829725D03*
Y-140846D03*
X827756D03*
X825788D03*
X823819D03*
X821851D03*
X819882D03*
X817914D03*
Y-95374D03*
X819882D03*
X821851D03*
X823819D03*
X825788D03*
X827756D03*
X829725D03*
Y-22736D03*
X827756D03*
X825788D03*
X823819D03*
X821851D03*
X819882D03*
X817914D03*
Y22736D03*
X819882D03*
X821851D03*
X823819D03*
X825788D03*
X827756D03*
X829725D03*
X841536Y-377067D03*
X839567D03*
X837599D03*
X835630D03*
X833662D03*
X831693D03*
Y-331595D03*
X833662D03*
X835630D03*
X837599D03*
X839567D03*
X841536D03*
Y-258956D03*
X839567D03*
X837599D03*
X835630D03*
X833662D03*
X831693D03*
Y-213484D03*
X833662D03*
X835630D03*
X837599D03*
X839567D03*
X841536D03*
Y-140846D03*
X839567D03*
X837599D03*
X835630D03*
X833662D03*
X831693D03*
Y-95374D03*
X833662D03*
X835630D03*
X837599D03*
X839567D03*
X841536D03*
Y-22736D03*
X839567D03*
X837599D03*
X835630D03*
X833662D03*
X831693D03*
Y22736D03*
X833662D03*
X835630D03*
X837599D03*
X839567D03*
X841536D03*
G54D36*
X-273888Y-431360D03*
Y-436360D03*
Y-441360D03*
Y-426360D03*
X-272188Y-351360D03*
Y-356360D03*
Y-341360D03*
Y-346360D03*
X-272088Y-182660D03*
Y-187660D03*
Y-172660D03*
Y-177660D03*
X-251888Y-441360D03*
Y-436360D03*
Y-431360D03*
Y-426360D03*
X-250188Y-356360D03*
Y-351360D03*
Y-346360D03*
Y-341360D03*
X-250088Y-187660D03*
Y-182660D03*
Y-177660D03*
Y-172660D03*
G54D18*
X-443124Y-4192D03*
Y-14192D03*
Y28092D03*
Y38092D03*
X-354900Y-89700D03*
X-364900Y-79700D03*
X-354900D03*
X-344900Y-89700D03*
Y-79700D03*
X-334900Y-89700D03*
Y-79700D03*
X-324900Y-89700D03*
X-314900D03*
X-324900Y-79700D03*
X-314900D03*
X-304900Y-89700D03*
Y-79700D03*
X-294900Y-89700D03*
Y-79700D03*
X-284900Y-89700D03*
X-274900D03*
X-284900Y-79700D03*
X-274900D03*
G54D27*
X-387398Y-437436D03*
Y-431936D03*
Y-426436D03*
Y-420936D03*
Y-396436D03*
Y-390936D03*
Y-385436D03*
Y-379936D03*
X-387498Y-351936D03*
Y-346436D03*
Y-340936D03*
Y-335436D03*
Y-310936D03*
Y-305436D03*
Y-299936D03*
Y-294436D03*
X-387398Y-271436D03*
Y-265936D03*
Y-260436D03*
Y-254936D03*
Y-230436D03*
Y-224936D03*
Y-219436D03*
Y-213936D03*
Y-183236D03*
Y-177736D03*
Y-172236D03*
Y-166736D03*
Y-142236D03*
Y-136736D03*
Y-131236D03*
Y-125736D03*
X-363300Y-437436D03*
Y-431936D03*
Y-426436D03*
Y-420936D03*
Y-396436D03*
Y-390936D03*
Y-385436D03*
Y-379936D03*
X-363400Y-351936D03*
Y-346436D03*
Y-340936D03*
Y-335436D03*
Y-310936D03*
Y-305436D03*
Y-299936D03*
Y-294436D03*
X-363300Y-271436D03*
Y-265936D03*
Y-260436D03*
Y-254936D03*
Y-230436D03*
Y-224936D03*
Y-219436D03*
Y-213936D03*
Y-183236D03*
Y-177736D03*
Y-172236D03*
Y-166736D03*
Y-142236D03*
Y-136736D03*
Y-131236D03*
Y-125736D03*
G54D46*
X-22736Y-369095D03*
Y-367126D03*
Y-365158D03*
Y-363189D03*
Y-361221D03*
Y-359252D03*
Y-357284D03*
Y-355315D03*
Y-353347D03*
Y-351378D03*
Y-349410D03*
Y-347441D03*
Y-345473D03*
Y-343504D03*
Y-341536D03*
Y-339567D03*
Y-250984D03*
Y-249015D03*
Y-247047D03*
Y-245078D03*
Y-243110D03*
Y-241141D03*
Y-239173D03*
Y-237204D03*
Y-235236D03*
Y-233267D03*
Y-231299D03*
Y-229330D03*
Y-227362D03*
Y-225393D03*
Y-223425D03*
Y-221456D03*
Y-132874D03*
Y-130905D03*
Y-128937D03*
Y-126968D03*
Y-125000D03*
Y-123031D03*
Y-121063D03*
Y-119094D03*
Y-117126D03*
Y-115157D03*
Y-113189D03*
Y-111220D03*
Y-109252D03*
Y-107283D03*
Y-105315D03*
Y-103346D03*
Y-14764D03*
Y-12795D03*
Y-10827D03*
Y-8858D03*
Y-6890D03*
Y-4921D03*
Y-2953D03*
Y-984D03*
Y984D03*
Y2953D03*
Y4921D03*
Y6890D03*
Y8858D03*
Y10827D03*
Y12795D03*
Y14764D03*
X22736Y-363189D03*
Y-365158D03*
Y-367126D03*
Y-369095D03*
Y-349410D03*
Y-351378D03*
Y-353347D03*
Y-355315D03*
Y-357284D03*
Y-359252D03*
Y-361221D03*
Y-339567D03*
Y-341536D03*
Y-343504D03*
Y-345473D03*
Y-347441D03*
Y-239173D03*
Y-241141D03*
Y-243110D03*
Y-245078D03*
Y-247047D03*
Y-249015D03*
Y-250984D03*
Y-225393D03*
Y-227362D03*
Y-229330D03*
Y-231299D03*
Y-233267D03*
Y-235236D03*
Y-237204D03*
Y-221456D03*
Y-223425D03*
Y-128937D03*
Y-130905D03*
Y-132874D03*
Y-115157D03*
Y-117126D03*
Y-119094D03*
Y-121063D03*
Y-123031D03*
Y-125000D03*
Y-126968D03*
Y-103346D03*
Y-105315D03*
Y-107283D03*
Y-109252D03*
Y-111220D03*
Y-113189D03*
Y-4921D03*
Y-6890D03*
Y-8858D03*
Y-10827D03*
Y-12795D03*
Y-14764D03*
Y8858D03*
Y6890D03*
Y4921D03*
Y2953D03*
Y984D03*
Y-984D03*
Y-2953D03*
Y14764D03*
Y12795D03*
Y10827D03*
X95374Y-369095D03*
Y-367126D03*
Y-365158D03*
Y-363189D03*
Y-361221D03*
Y-359252D03*
Y-357284D03*
Y-355315D03*
Y-353347D03*
Y-351378D03*
Y-349410D03*
Y-347441D03*
Y-345473D03*
Y-343504D03*
Y-341536D03*
Y-339567D03*
Y-250984D03*
Y-249015D03*
Y-247047D03*
Y-245078D03*
Y-243110D03*
Y-241141D03*
Y-239173D03*
Y-237204D03*
Y-235236D03*
Y-233267D03*
Y-231299D03*
Y-229330D03*
Y-227362D03*
Y-225393D03*
Y-223425D03*
Y-221456D03*
Y-132874D03*
Y-130905D03*
Y-128937D03*
Y-126968D03*
Y-125000D03*
Y-123031D03*
Y-121063D03*
Y-119094D03*
Y-117126D03*
Y-115157D03*
Y-113189D03*
Y-111220D03*
Y-109252D03*
Y-107283D03*
Y-105315D03*
Y-103346D03*
Y-14764D03*
Y-12795D03*
Y-10827D03*
Y-8858D03*
Y-6890D03*
Y-4921D03*
Y-2953D03*
Y-984D03*
Y984D03*
Y2953D03*
Y4921D03*
Y6890D03*
Y8858D03*
Y10827D03*
Y12795D03*
Y14764D03*
X140846Y-363189D03*
Y-365158D03*
Y-367126D03*
Y-369095D03*
Y-349410D03*
Y-351378D03*
Y-353347D03*
Y-355315D03*
Y-357284D03*
Y-359252D03*
Y-361221D03*
Y-339567D03*
Y-341536D03*
Y-343504D03*
Y-345473D03*
Y-347441D03*
Y-239173D03*
Y-241141D03*
Y-243110D03*
Y-245078D03*
Y-247047D03*
Y-249015D03*
Y-250984D03*
Y-225393D03*
Y-227362D03*
Y-229330D03*
Y-231299D03*
Y-233267D03*
Y-235236D03*
Y-237204D03*
Y-221456D03*
Y-223425D03*
Y-128937D03*
Y-130905D03*
Y-132874D03*
Y-115157D03*
Y-117126D03*
Y-119094D03*
Y-121063D03*
Y-123031D03*
Y-125000D03*
Y-126968D03*
Y-103346D03*
Y-105315D03*
Y-107283D03*
Y-109252D03*
Y-111220D03*
Y-113189D03*
Y-4921D03*
Y-6890D03*
Y-8858D03*
Y-10827D03*
Y-12795D03*
Y-14764D03*
Y8858D03*
Y6890D03*
Y4921D03*
Y2953D03*
Y984D03*
Y-984D03*
Y-2953D03*
Y14764D03*
Y12795D03*
Y10827D03*
X213484Y-369095D03*
Y-367126D03*
Y-365158D03*
Y-363189D03*
Y-361221D03*
Y-359252D03*
Y-357284D03*
Y-355315D03*
Y-353347D03*
Y-351378D03*
Y-349410D03*
Y-347441D03*
Y-345473D03*
Y-343504D03*
Y-341536D03*
Y-339567D03*
Y-250984D03*
Y-249015D03*
Y-247047D03*
Y-245078D03*
Y-243110D03*
Y-241141D03*
Y-239173D03*
Y-237204D03*
Y-235236D03*
Y-233267D03*
Y-231299D03*
Y-229330D03*
Y-227362D03*
Y-225393D03*
Y-223425D03*
Y-221456D03*
Y-132874D03*
Y-130905D03*
Y-128937D03*
Y-126968D03*
Y-125000D03*
Y-123031D03*
Y-121063D03*
Y-119094D03*
Y-117126D03*
Y-115157D03*
Y-113189D03*
Y-111220D03*
Y-109252D03*
Y-107283D03*
Y-105315D03*
Y-103346D03*
Y-14764D03*
Y-12795D03*
Y-10827D03*
Y-8858D03*
Y-6890D03*
Y-4921D03*
Y-2953D03*
Y-984D03*
Y984D03*
Y2953D03*
Y4921D03*
Y6890D03*
Y8858D03*
Y10827D03*
Y12795D03*
Y14764D03*
X258956Y-363189D03*
Y-365158D03*
Y-367126D03*
Y-369095D03*
Y-349410D03*
Y-351378D03*
Y-353347D03*
Y-355315D03*
Y-357284D03*
Y-359252D03*
Y-361221D03*
Y-339567D03*
Y-341536D03*
Y-343504D03*
Y-345473D03*
Y-347441D03*
Y-239173D03*
Y-241141D03*
Y-243110D03*
Y-245078D03*
Y-247047D03*
Y-249015D03*
Y-250984D03*
Y-225393D03*
Y-227362D03*
Y-229330D03*
Y-231299D03*
Y-233267D03*
Y-235236D03*
Y-237204D03*
Y-221456D03*
Y-223425D03*
Y-128937D03*
Y-130905D03*
Y-132874D03*
Y-115157D03*
Y-117126D03*
Y-119094D03*
Y-121063D03*
Y-123031D03*
Y-125000D03*
Y-126968D03*
Y-103346D03*
Y-105315D03*
Y-107283D03*
Y-109252D03*
Y-111220D03*
Y-113189D03*
Y-4921D03*
Y-6890D03*
Y-8858D03*
Y-10827D03*
Y-12795D03*
Y-14764D03*
Y8858D03*
Y6890D03*
Y4921D03*
Y2953D03*
Y984D03*
Y-984D03*
Y-2953D03*
Y14764D03*
Y12795D03*
Y10827D03*
X331595Y-369095D03*
Y-367126D03*
Y-365158D03*
Y-363189D03*
Y-361221D03*
Y-359252D03*
Y-357284D03*
Y-355315D03*
Y-353347D03*
Y-351378D03*
Y-349410D03*
Y-347441D03*
Y-345473D03*
Y-343504D03*
Y-341536D03*
Y-339567D03*
Y-250984D03*
Y-249015D03*
Y-247047D03*
Y-245078D03*
Y-243110D03*
Y-241141D03*
Y-239173D03*
Y-237204D03*
Y-235236D03*
Y-233267D03*
Y-231299D03*
Y-229330D03*
Y-227362D03*
Y-225393D03*
Y-223425D03*
Y-221456D03*
Y-132874D03*
Y-130905D03*
Y-128937D03*
Y-126968D03*
Y-125000D03*
Y-123031D03*
Y-121063D03*
Y-119094D03*
Y-117126D03*
Y-115157D03*
Y-113189D03*
Y-111220D03*
Y-109252D03*
Y-107283D03*
Y-105315D03*
Y-103346D03*
Y-14764D03*
Y-12795D03*
Y-10827D03*
Y-8858D03*
Y-6890D03*
Y-4921D03*
Y-2953D03*
Y-984D03*
Y984D03*
Y2953D03*
Y4921D03*
Y6890D03*
Y8858D03*
Y10827D03*
Y12795D03*
Y14764D03*
X377067Y-363189D03*
Y-365158D03*
Y-367126D03*
Y-369095D03*
Y-349410D03*
Y-351378D03*
Y-353347D03*
Y-355315D03*
Y-357284D03*
Y-359252D03*
Y-361221D03*
Y-339567D03*
Y-341536D03*
Y-343504D03*
Y-345473D03*
Y-347441D03*
Y-239173D03*
Y-241141D03*
Y-243110D03*
Y-245078D03*
Y-247047D03*
Y-249015D03*
Y-250984D03*
Y-225393D03*
Y-227362D03*
Y-229330D03*
Y-231299D03*
Y-233267D03*
Y-235236D03*
Y-237204D03*
Y-221456D03*
Y-223425D03*
Y-128937D03*
Y-130905D03*
Y-132874D03*
Y-115157D03*
Y-117126D03*
Y-119094D03*
Y-121063D03*
Y-123031D03*
Y-125000D03*
Y-126968D03*
Y-103346D03*
Y-105315D03*
Y-107283D03*
Y-109252D03*
Y-111220D03*
Y-113189D03*
Y-4921D03*
Y-6890D03*
Y-8858D03*
Y-10827D03*
Y-12795D03*
Y-14764D03*
Y8858D03*
Y6890D03*
Y4921D03*
Y2953D03*
Y984D03*
Y-984D03*
Y-2953D03*
Y14764D03*
Y12795D03*
Y10827D03*
X449705Y-369095D03*
Y-367126D03*
Y-365158D03*
Y-363189D03*
Y-361221D03*
Y-359252D03*
Y-357284D03*
Y-355315D03*
Y-353347D03*
Y-351378D03*
Y-349410D03*
Y-347441D03*
Y-345473D03*
Y-343504D03*
Y-341536D03*
Y-339567D03*
Y-250984D03*
Y-249015D03*
Y-247047D03*
Y-245078D03*
Y-243110D03*
Y-241141D03*
Y-239173D03*
Y-237204D03*
Y-235236D03*
Y-233267D03*
Y-231299D03*
Y-229330D03*
Y-227362D03*
Y-225393D03*
Y-223425D03*
Y-221456D03*
Y-132874D03*
Y-130905D03*
Y-128937D03*
Y-126968D03*
Y-125000D03*
Y-123031D03*
Y-121063D03*
Y-119094D03*
Y-117126D03*
Y-115157D03*
Y-113189D03*
Y-111220D03*
Y-109252D03*
Y-107283D03*
Y-105315D03*
Y-103346D03*
Y-14764D03*
Y-12795D03*
Y-10827D03*
Y-8858D03*
Y-6890D03*
Y-4921D03*
Y-2953D03*
Y-984D03*
Y984D03*
Y2953D03*
Y4921D03*
Y6890D03*
Y8858D03*
Y10827D03*
Y12795D03*
Y14764D03*
X495177Y-363189D03*
Y-365158D03*
Y-367126D03*
Y-369095D03*
Y-349410D03*
Y-351378D03*
Y-353347D03*
Y-355315D03*
Y-357284D03*
Y-359252D03*
Y-361221D03*
Y-339567D03*
Y-341536D03*
Y-343504D03*
Y-345473D03*
Y-347441D03*
Y-239173D03*
Y-241141D03*
Y-243110D03*
Y-245078D03*
Y-247047D03*
Y-249015D03*
Y-250984D03*
Y-225393D03*
Y-227362D03*
Y-229330D03*
Y-231299D03*
Y-233267D03*
Y-235236D03*
Y-237204D03*
Y-221456D03*
Y-223425D03*
Y-128937D03*
Y-130905D03*
Y-132874D03*
Y-115157D03*
Y-117126D03*
Y-119094D03*
Y-121063D03*
Y-123031D03*
Y-125000D03*
Y-126968D03*
Y-103346D03*
Y-105315D03*
Y-107283D03*
Y-109252D03*
Y-111220D03*
Y-113189D03*
Y-4921D03*
Y-6890D03*
Y-8858D03*
Y-10827D03*
Y-12795D03*
Y-14764D03*
Y8858D03*
Y6890D03*
Y4921D03*
Y2953D03*
Y984D03*
Y-984D03*
Y-2953D03*
Y14764D03*
Y12795D03*
Y10827D03*
X567815Y-369095D03*
Y-367126D03*
Y-365158D03*
Y-363189D03*
Y-361221D03*
Y-359252D03*
Y-357284D03*
Y-355315D03*
Y-353347D03*
Y-351378D03*
Y-349410D03*
Y-347441D03*
Y-345473D03*
Y-343504D03*
Y-341536D03*
Y-339567D03*
Y-250984D03*
Y-249015D03*
Y-247047D03*
Y-245078D03*
Y-243110D03*
Y-241141D03*
Y-239173D03*
Y-237204D03*
Y-235236D03*
Y-233267D03*
Y-231299D03*
Y-229330D03*
Y-227362D03*
Y-225393D03*
Y-223425D03*
Y-221456D03*
Y-132874D03*
Y-130905D03*
Y-128937D03*
Y-126968D03*
Y-125000D03*
Y-123031D03*
Y-121063D03*
Y-119094D03*
Y-117126D03*
Y-115157D03*
Y-113189D03*
Y-111220D03*
Y-109252D03*
Y-107283D03*
Y-105315D03*
Y-103346D03*
Y-14764D03*
Y-12795D03*
Y-10827D03*
Y-8858D03*
Y-6890D03*
Y-4921D03*
Y-2953D03*
Y-984D03*
Y984D03*
Y2953D03*
Y4921D03*
Y6890D03*
Y8858D03*
Y10827D03*
Y12795D03*
Y14764D03*
X613287Y-363189D03*
Y-365158D03*
Y-367126D03*
Y-369095D03*
Y-349410D03*
Y-351378D03*
Y-353347D03*
Y-355315D03*
Y-357284D03*
Y-359252D03*
Y-361221D03*
Y-339567D03*
Y-341536D03*
Y-343504D03*
Y-345473D03*
Y-347441D03*
Y-239173D03*
Y-241141D03*
Y-243110D03*
Y-245078D03*
Y-247047D03*
Y-249015D03*
Y-250984D03*
Y-225393D03*
Y-227362D03*
Y-229330D03*
Y-231299D03*
Y-233267D03*
Y-235236D03*
Y-237204D03*
Y-221456D03*
Y-223425D03*
Y-128937D03*
Y-130905D03*
Y-132874D03*
Y-115157D03*
Y-117126D03*
Y-119094D03*
Y-121063D03*
Y-123031D03*
Y-125000D03*
Y-126968D03*
Y-103346D03*
Y-105315D03*
Y-107283D03*
Y-109252D03*
Y-111220D03*
Y-113189D03*
Y-4921D03*
Y-6890D03*
Y-8858D03*
Y-10827D03*
Y-12795D03*
Y-14764D03*
Y8858D03*
Y6890D03*
Y4921D03*
Y2953D03*
Y984D03*
Y-984D03*
Y-2953D03*
Y14764D03*
Y12795D03*
Y10827D03*
X685925Y-369095D03*
Y-367126D03*
Y-365158D03*
Y-363189D03*
Y-361221D03*
Y-359252D03*
Y-357284D03*
Y-355315D03*
Y-353347D03*
Y-351378D03*
Y-349410D03*
Y-347441D03*
Y-345473D03*
Y-343504D03*
Y-341536D03*
Y-339567D03*
Y-250984D03*
Y-249015D03*
Y-247047D03*
Y-245078D03*
Y-243110D03*
Y-241141D03*
Y-239173D03*
Y-237204D03*
Y-235236D03*
Y-233267D03*
Y-231299D03*
Y-229330D03*
Y-227362D03*
Y-225393D03*
Y-223425D03*
Y-221456D03*
Y-132874D03*
Y-130905D03*
Y-128937D03*
Y-126968D03*
Y-125000D03*
Y-123031D03*
Y-121063D03*
Y-119094D03*
Y-117126D03*
Y-115157D03*
Y-113189D03*
Y-111220D03*
Y-109252D03*
Y-107283D03*
Y-105315D03*
Y-103346D03*
Y-14764D03*
Y-12795D03*
Y-10827D03*
Y-8858D03*
Y-6890D03*
Y-4921D03*
Y-2953D03*
Y-984D03*
Y984D03*
Y2953D03*
Y4921D03*
Y6890D03*
Y8858D03*
Y10827D03*
Y12795D03*
Y14764D03*
X731397Y-363189D03*
Y-365158D03*
Y-367126D03*
Y-369095D03*
Y-349410D03*
Y-351378D03*
Y-353347D03*
Y-355315D03*
Y-357284D03*
Y-359252D03*
Y-361221D03*
Y-339567D03*
Y-341536D03*
Y-343504D03*
Y-345473D03*
Y-347441D03*
Y-239173D03*
Y-241141D03*
Y-243110D03*
Y-245078D03*
Y-247047D03*
Y-249015D03*
Y-250984D03*
Y-225393D03*
Y-227362D03*
Y-229330D03*
Y-231299D03*
Y-233267D03*
Y-235236D03*
Y-237204D03*
Y-221456D03*
Y-223425D03*
Y-128937D03*
Y-130905D03*
Y-132874D03*
Y-115157D03*
Y-117126D03*
Y-119094D03*
Y-121063D03*
Y-123031D03*
Y-125000D03*
Y-126968D03*
Y-103346D03*
Y-105315D03*
Y-107283D03*
Y-109252D03*
Y-111220D03*
Y-113189D03*
Y-4921D03*
Y-6890D03*
Y-8858D03*
Y-10827D03*
Y-12795D03*
Y-14764D03*
Y8858D03*
Y6890D03*
Y4921D03*
Y2953D03*
Y984D03*
Y-984D03*
Y-2953D03*
Y14764D03*
Y12795D03*
Y10827D03*
X804036Y-369095D03*
Y-367126D03*
Y-365158D03*
Y-363189D03*
Y-361221D03*
Y-359252D03*
Y-357284D03*
Y-355315D03*
Y-353347D03*
Y-351378D03*
Y-349410D03*
Y-347441D03*
Y-345473D03*
Y-343504D03*
Y-341536D03*
Y-339567D03*
Y-250984D03*
Y-249015D03*
Y-247047D03*
Y-245078D03*
Y-243110D03*
Y-241141D03*
Y-239173D03*
Y-237204D03*
Y-235236D03*
Y-233267D03*
Y-231299D03*
Y-229330D03*
Y-227362D03*
Y-225393D03*
Y-223425D03*
Y-221456D03*
Y-132874D03*
Y-130905D03*
Y-128937D03*
Y-126968D03*
Y-125000D03*
Y-123031D03*
Y-121063D03*
Y-119094D03*
Y-117126D03*
Y-115157D03*
Y-113189D03*
Y-111220D03*
Y-109252D03*
Y-107283D03*
Y-105315D03*
Y-103346D03*
Y-14764D03*
Y-12795D03*
Y-10827D03*
Y-8858D03*
Y-6890D03*
Y-4921D03*
Y-2953D03*
Y-984D03*
Y984D03*
Y2953D03*
Y4921D03*
Y6890D03*
Y8858D03*
Y10827D03*
Y12795D03*
Y14764D03*
X849508Y-363189D03*
Y-365158D03*
Y-367126D03*
Y-369095D03*
Y-349410D03*
Y-351378D03*
Y-353347D03*
Y-355315D03*
Y-357284D03*
Y-359252D03*
Y-361221D03*
Y-339567D03*
Y-341536D03*
Y-343504D03*
Y-345473D03*
Y-347441D03*
Y-239173D03*
Y-241141D03*
Y-243110D03*
Y-245078D03*
Y-247047D03*
Y-249015D03*
Y-250984D03*
Y-225393D03*
Y-227362D03*
Y-229330D03*
Y-231299D03*
Y-233267D03*
Y-235236D03*
Y-237204D03*
Y-221456D03*
Y-223425D03*
Y-128937D03*
Y-130905D03*
Y-132874D03*
Y-115157D03*
Y-117126D03*
Y-119094D03*
Y-121063D03*
Y-123031D03*
Y-125000D03*
Y-126968D03*
Y-103346D03*
Y-105315D03*
Y-107283D03*
Y-109252D03*
Y-111220D03*
Y-113189D03*
Y-4921D03*
Y-6890D03*
Y-8858D03*
Y-10827D03*
Y-12795D03*
Y-14764D03*
Y8858D03*
Y6890D03*
Y4921D03*
Y2953D03*
Y984D03*
Y-984D03*
Y-2953D03*
Y14764D03*
Y12795D03*
Y10827D03*
G54D19*
X-429700Y-455500D03*
Y-447300D03*
Y-437100D03*
Y-428900D03*
X-429200Y-353000D03*
Y-344800D03*
Y-334200D03*
Y-326000D03*
Y-272300D03*
Y-253500D03*
Y-264100D03*
Y-245300D03*
Y-184700D03*
Y-176500D03*
Y-158200D03*
Y-166400D03*
X-345600Y-441984D03*
Y-433784D03*
Y-355400D03*
Y-347200D03*
Y-275984D03*
Y-267784D03*
Y-187784D03*
Y-179584D03*
G54D37*
X-274000Y-406224D03*
Y-384176D03*
Y-319524D03*
Y-297476D03*
Y-242524D03*
Y-220476D03*
Y-152324D03*
Y-130276D03*
G54D28*
X-376721Y-35721D03*
Y-28421D03*
X-324904Y-443604D03*
X-320884Y-423816D03*
X-320800Y-337500D03*
X-324904Y-277604D03*
X-320884Y-257816D03*
X-324904Y-189404D03*
X-321600Y-161100D03*
X-292384Y-438584D03*
X-293168Y-429368D03*
X-292484Y-353084D03*
X-293268Y-343868D03*
X-292384Y-272584D03*
X-293168Y-263368D03*
X-292384Y-184384D03*
X-293168Y-175168D03*
X-194500Y-89000D03*
X-181200Y-102900D03*
X-143900Y-73000D03*
X-9800Y-363631D03*
X0Y-363531D03*
X300Y-354531D03*
X-9900Y-354331D03*
X-9700Y-345131D03*
X300Y-345231D03*
X-9800Y-245520D03*
X0Y-245420D03*
X300Y-236420D03*
X-9700Y-227020D03*
X300Y-227120D03*
X-9900Y-236220D03*
X-9800Y-127410D03*
X0Y-127310D03*
X300Y-118310D03*
X-9900Y-118110D03*
X-9700Y-108910D03*
X300Y-109010D03*
X0Y-9200D03*
X-9800Y-9300D03*
X-9900Y0D03*
X300Y9100D03*
X-9700Y9200D03*
X300Y-200D03*
X9800Y-363631D03*
X9700Y-354531D03*
X9600Y-345331D03*
X9800Y-245520D03*
X9600Y-227220D03*
X9700Y-236420D03*
X9800Y-127410D03*
X9700Y-118310D03*
X9600Y-109110D03*
X9800Y-9300D03*
X9700Y-200D03*
X9600Y9000D03*
X86154Y-291146D03*
Y-178646D03*
Y-58500D03*
X108310Y-363631D03*
X108210Y-354331D03*
X108410Y-345131D03*
X108310Y-245520D03*
X108210Y-236220D03*
X108410Y-227020D03*
X108310Y-127410D03*
X108210Y-118110D03*
X108410Y-108910D03*
X108310Y-9300D03*
X108410Y9200D03*
X108210Y0D03*
X118110Y-363531D03*
X127910Y-363631D03*
X118410Y-354531D03*
X127810D03*
X118410Y-345231D03*
X127710Y-345331D03*
X118110Y-245420D03*
X127910Y-245520D03*
X118410Y-236420D03*
Y-227120D03*
X127810Y-236420D03*
X127710Y-227220D03*
X118110Y-127310D03*
X127910Y-127410D03*
X118410Y-118310D03*
X127810D03*
X118410Y-109010D03*
X127710Y-109110D03*
X127910Y-9300D03*
X118110Y-9200D03*
X127710Y9000D03*
X127810Y-200D03*
X118410Y9100D03*
Y-200D03*
X164700Y-369100D03*
X161600Y-351200D03*
X204046Y-178646D03*
X203600Y-45700D03*
X211854Y-291146D03*
X236220Y-363531D03*
X226420Y-363631D03*
X236520Y-354531D03*
X226320Y-354331D03*
X236520Y-345231D03*
X226520Y-345131D03*
X236220Y-245420D03*
X226420Y-245520D03*
X236520Y-236420D03*
X226320Y-236220D03*
X236520Y-227120D03*
X226520Y-227020D03*
X236220Y-127310D03*
X226420Y-127410D03*
X236520Y-118310D03*
X226320Y-118110D03*
X236520Y-109010D03*
X226520Y-108910D03*
X226420Y-9300D03*
X236220Y-9200D03*
X226520Y9200D03*
X236520Y9100D03*
X226320Y0D03*
X236520Y-200D03*
X246020Y-363631D03*
X245920Y-354531D03*
X245820Y-345331D03*
X246020Y-245520D03*
X245920Y-236420D03*
X245820Y-227220D03*
X246020Y-127410D03*
X245920Y-118310D03*
X245820Y-109110D03*
X246020Y-9300D03*
X245820Y9000D03*
X245920Y-200D03*
X344531Y-363631D03*
X344431Y-354331D03*
X344631Y-345131D03*
X344531Y-245520D03*
X344431Y-236220D03*
X344631Y-227020D03*
X344531Y-127410D03*
X344431Y-118110D03*
X344631Y-108910D03*
X344531Y-9300D03*
X344631Y9200D03*
X344431Y0D03*
X354331Y-363531D03*
X354631Y-354531D03*
Y-345231D03*
X354331Y-245420D03*
X354631Y-236420D03*
Y-227120D03*
X354331Y-127310D03*
X354631Y-118310D03*
Y-109010D03*
X354331Y-9200D03*
X354631Y9100D03*
Y-200D03*
X364131Y-363631D03*
X364031Y-354531D03*
X363931Y-345331D03*
X364131Y-245520D03*
X364031Y-236420D03*
X363931Y-227220D03*
X364131Y-127410D03*
X364031Y-118310D03*
X363931Y-109110D03*
X364131Y-9300D03*
X363931Y9000D03*
X364031Y-200D03*
X472441Y-363531D03*
X462641Y-363631D03*
X472741Y-354531D03*
X462541Y-354331D03*
X472741Y-345231D03*
X462741Y-345131D03*
X472441Y-245420D03*
X462641Y-245520D03*
X472741Y-236420D03*
X462541Y-236220D03*
X472741Y-227120D03*
X462741Y-227020D03*
X472441Y-127310D03*
X462641Y-127410D03*
X472741Y-118310D03*
X462541Y-118110D03*
X472741Y-109010D03*
X462741Y-108910D03*
X462641Y-9300D03*
X472441Y-9200D03*
X462741Y9200D03*
X472741Y9100D03*
X462541Y0D03*
X472741Y-200D03*
X482241Y-363631D03*
X482141Y-354531D03*
X482041Y-345331D03*
X482241Y-245520D03*
X482141Y-236420D03*
X482041Y-227220D03*
X482241Y-127410D03*
X482141Y-118310D03*
X482041Y-109110D03*
X482241Y-9300D03*
X482041Y9000D03*
X482141Y-200D03*
X558595Y-180405D03*
Y-64795D03*
X580751Y-363631D03*
X580651Y-354331D03*
X580851Y-345131D03*
X580751Y-245520D03*
X580651Y-236220D03*
X580851Y-227020D03*
X580751Y-127410D03*
X580651Y-118110D03*
X580851Y-108910D03*
X580751Y-9300D03*
X580851Y9200D03*
X580651Y0D03*
X590551Y-363531D03*
X590851Y-354531D03*
Y-345231D03*
X590551Y-245420D03*
X590851Y-236420D03*
Y-227120D03*
X590551Y-127310D03*
X590851Y-118310D03*
Y-109010D03*
X590551Y-9200D03*
X590851Y9100D03*
Y-200D03*
X600351Y-363631D03*
X600251Y-354531D03*
X600151Y-345331D03*
X600351Y-245520D03*
X600251Y-236420D03*
X600151Y-227220D03*
X600351Y-127410D03*
X600251Y-118310D03*
X600151Y-109110D03*
X600351Y-9300D03*
X600151Y9000D03*
X600251Y-200D03*
X638200Y-368600D03*
X633400Y-342400D03*
X676895Y-180405D03*
X686895Y-64795D03*
X698861Y-363631D03*
X698761Y-354331D03*
X698961Y-345131D03*
X698861Y-245520D03*
X698761Y-236220D03*
X698961Y-227020D03*
X698861Y-127410D03*
X698761Y-118110D03*
X698961Y-108910D03*
X698861Y-9300D03*
X698961Y9200D03*
X698761Y0D03*
X708661Y-363531D03*
X718461Y-363631D03*
X708961Y-354531D03*
X718361D03*
X708961Y-345231D03*
X718261Y-345331D03*
X708661Y-245420D03*
X718461Y-245520D03*
X708961Y-236420D03*
Y-227120D03*
X718361Y-236420D03*
X718261Y-227220D03*
X708661Y-127310D03*
X718461Y-127410D03*
X708961Y-118310D03*
X718361D03*
X708961Y-109010D03*
X718261Y-109110D03*
X718461Y-9300D03*
X708661Y-9200D03*
X718261Y9000D03*
X718361Y-200D03*
X708961Y9100D03*
Y-200D03*
X816972Y-363631D03*
X816872Y-354331D03*
X817072Y-345131D03*
X816972Y-245520D03*
X816872Y-236220D03*
X817072Y-227020D03*
X816972Y-127410D03*
X816872Y-118110D03*
X817072Y-108910D03*
X816972Y-9300D03*
X817072Y9200D03*
X816872Y0D03*
X826772Y-363531D03*
X827072Y-354531D03*
Y-345231D03*
X826772Y-245420D03*
X827072Y-236420D03*
Y-227120D03*
X826772Y-127310D03*
X827072Y-118310D03*
Y-109010D03*
X826772Y-9200D03*
X827072Y9100D03*
Y-200D03*
X836572Y-363631D03*
X836472Y-354531D03*
X836372Y-345331D03*
X836572Y-245520D03*
X836472Y-236420D03*
X836372Y-227220D03*
X836572Y-127410D03*
X836472Y-118310D03*
X836372Y-109110D03*
X836572Y-9300D03*
X836372Y9000D03*
X836472Y-200D03*
G54D38*
X-269690Y-450630D03*
Y-366130D03*
X-267890Y-196930D03*
X-257090Y-450630D03*
Y-366130D03*
X-255290Y-196930D03*
X-187210Y-298570D03*
Y-130070D03*
X-174610Y-298570D03*
Y-130070D03*
G54D47*
X0Y-354331D03*
Y-236220D03*
Y-118110D03*
Y0D03*
X118110Y-354331D03*
Y-236220D03*
Y-118110D03*
Y0D03*
X236220Y-354331D03*
Y-236220D03*
Y-118110D03*
Y0D03*
X354331Y-354331D03*
Y-236220D03*
Y-118110D03*
Y0D03*
X472441Y-354331D03*
Y-236220D03*
Y-118110D03*
Y0D03*
X590551Y-354331D03*
Y-236220D03*
Y-118110D03*
Y0D03*
X708661Y-354331D03*
Y-236220D03*
Y-118110D03*
Y0D03*
X826772Y-354331D03*
Y-236220D03*
Y-118110D03*
Y0D03*
G54D29*
X-364900Y-89700D03*
G54D39*
X-265360Y-8700D03*
Y-6730D03*
Y-4770D03*
Y-2800D03*
Y-830D03*
Y1140D03*
Y3110D03*
Y5080D03*
Y7050D03*
Y9010D03*
Y10980D03*
Y12950D03*
Y14920D03*
Y16890D03*
Y18860D03*
Y20830D03*
Y22790D03*
Y24760D03*
Y26730D03*
Y28700D03*
Y30670D03*
Y32640D03*
Y34610D03*
Y36570D03*
Y38540D03*
X-204360Y-4770D03*
Y-6730D03*
Y-8700D03*
Y9010D03*
Y7050D03*
Y5080D03*
Y3110D03*
Y1140D03*
Y-830D03*
Y-2800D03*
Y22790D03*
Y20830D03*
Y18860D03*
Y16890D03*
Y14920D03*
Y12950D03*
Y10980D03*
Y36570D03*
Y34610D03*
Y32640D03*
Y30670D03*
Y28700D03*
Y26730D03*
Y24760D03*
Y38540D03*
G54D48*
X169600Y-377431D03*
Y-357931D03*
Y-244320D03*
Y-224820D03*
Y-126210D03*
Y-106710D03*
Y-8100D03*
Y11400D03*
X188600Y-377431D03*
Y-357931D03*
Y-244320D03*
Y-224820D03*
Y-126210D03*
Y-106710D03*
Y-8100D03*
Y11400D03*
X641500Y-377431D03*
Y-357931D03*
Y-244320D03*
Y-224820D03*
Y-126210D03*
Y-106710D03*
Y-8100D03*
Y11400D03*
X660500Y-377431D03*
Y-357931D03*
Y-244320D03*
Y-224820D03*
Y-126210D03*
Y-106710D03*
Y-8100D03*
Y11400D03*
G54D49*
G01X1743845Y-1023076D02*
X1493845D01*
G01X1743845Y-993076D02*
X1493845D01*
G01X1743845Y-963076D02*
X1493845D01*
G01X1656845Y-933076D02*
Y-1183076D01*
M02*
